<?xml version="1.0" standalone="no"?>
<!DOCTYPE svg PUBLIC "-//W3C//DTD SVG 1.1//EN" "http://www.w3.org/Graphics/SVG/1.1/DTD/svg11.dtd" >
<svg>
<metadata>
Created by FontForge 20120731 at Thu Sep 15 18:27:03 2016
 By ,,,
Digitized data copyright (C) 1993-1997 The Monotype Corporation. All rights reserved.
</metadata>
<defs>
<font id="AndaleMono" horiz-adv-x="1229" >
  <font-face 
    font-family="Andale Mono"
    font-weight="400"
    font-stretch="normal"
    units-per-em="2048"
    panose-1="2 11 5 9 0 0 0 0 0 4"
    ascent="1638"
    descent="-410"
    x-height="1042"
    cap-height="1411"
    bbox="0 -447 1229 2038"
    underline-thickness="102"
    underline-position="-154"
    unicode-range="U+0020-FB02"
  />
<missing-glyph 
d="M216 0v1376h797v-1376h-797zM344 128h541v1120h-541v-1120z" />
    <glyph glyph-name=".notdef" 
d="M216 0v1376h797v-1376h-797zM344 128h541v1120h-541v-1120z" />
    <glyph glyph-name=".null" horiz-adv-x="0" 
 />
    <glyph glyph-name="nonmarkingreturn" 
 />
    <glyph glyph-name="space" unicode=" " 
 />
    <glyph glyph-name="exclam" unicode="!" 
d="M688 952l-47 -528h-86l-47 528v459h180v-459zM602 229q53 0 89 -36t36 -89t-36.5 -92t-88.5 -39q-51 0 -87 38.5t-36 92.5t35.5 89.5t87.5 35.5z" />
    <glyph glyph-name="quotedbl" unicode="&#x22;" 
d="M872 1171l-36 -280h-80l-37 280v240h153v-240zM510 1171l-37 -280h-80l-37 280v240h154v-240z" />
    <glyph glyph-name="numbersign" unicode="#" 
d="M1147 397h-318l-84 -397h-141l84 397h-268l-84 -397h-141l84 397h-191v131h219l76 359h-295v131h322l84 393h141l-84 -393h268l84 393h141l-83 -393h186v-131h-213l-76 -359h289v-131zM793 887h-269l-75 -359h268z" />
    <glyph glyph-name="dollar" unicode="$" 
d="M682 809q189 -81 264.5 -179.5t75.5 -223.5q0 -158 -90.5 -268.5t-249.5 -149.5v-129h-117v114h-8q-182 0 -319 72l34 141q161 -73 281 -73h12v583q-215 92 -276.5 181.5t-61.5 189.5q0 142 89 238t249 125v106h117v-98q137 0 270 -43l-37 -140q-122 43 -233 43v-489z
M565 864v420q-178 -47 -178 -211q0 -121 178 -209zM682 131q180 65 180 254q0 84 -42.5 143t-137.5 111v-508z" />
    <glyph glyph-name="percent" unicode="%" 
d="M330 1438q133 0 207.5 -93t74.5 -241t-75 -241t-207 -93q-131 0 -207 93.5t-76 240.5q0 144 76.5 239t206.5 95zM330 891q139 0 139 213t-139 213q-140 0 -140 -213t140 -213zM1053 1411l-746 -1411h-139l745 1411h140zM897 641q133 0 208 -92.5t75 -241.5
q0 -147 -75.5 -240.5t-207.5 -93.5q-131 0 -207 94t-76 240q0 145 76.5 239.5t206.5 94.5zM897 94q139 0 139 213t-139 213t-139 -213t139 -213z" />
    <glyph glyph-name="ampersand" unicode="&#x26;" 
d="M1227 8q-44 -18 -109 -18q-53 0 -105 37.5t-134 146.5q-156 -201 -377 -201q-177 0 -299.5 112.5t-122.5 279.5q0 107 64 202.5t239 216.5q-166 195 -166 340q0 140 92.5 227t233.5 87q131 0 216 -74.5t85 -206.5q0 -95 -58 -182t-217 -203l295 -364q68 174 101.5 242
t94.5 117.5t157 49.5h8v-137h-8q-61 0 -117 -65t-148 -318q75 -90 117 -129t94 -39q24 0 64 6v-127zM496 866q118 82 164.5 145t46.5 134q0 78 -47.5 118t-114.5 40q-78 0 -130.5 -47.5t-52.5 -131.5q0 -108 134 -258zM795 276l-336 414q-118 -86 -166.5 -158.5
t-48.5 -160.5q0 -110 77.5 -185t184.5 -75q167 0 289 165z" />
    <glyph glyph-name="quotesingle" unicode="'" 
d="M692 1171l-37 -280h-80l-36 280v240h153v-240z" />
    <glyph glyph-name="parenleft" unicode="(" 
d="M958 -209l-61 -86q-223 169 -340 393t-117 473q0 251 116 473.5t341 391.5l61 -86q-183 -164 -263.5 -343.5t-80.5 -433.5q0 -263 83.5 -442.5t260.5 -339.5z" />
    <glyph glyph-name="parenright" unicode=")" 
d="M332 1436q224 -169 340 -391.5t116 -473.5q0 -249 -116.5 -473t-339.5 -393l-62 86q183 162 263.5 344.5t80.5 437.5q0 263 -83 440t-261 337z" />
    <glyph glyph-name="asterisk" unicode="*" 
d="M967 858l-60 -100l-237 157v-286h-111v286l-240 -159l-59 102l252 164l-252 164l59 100l240 -160v285h111v-283l237 158l60 -100l-248 -164z" />
    <glyph glyph-name="plus" unicode="+" 
d="M1087 657h-405v-409h-131v409h-410v131h410v410h131v-410h405v-131z" />
    <glyph glyph-name="comma" unicode="," 
d="M616 -27q-52 6 -86 43t-34 84q0 51 33 86t83 35q56 0 97 -45.5t41 -109.5q0 -196 -218 -306l-38 72q122 60 122 141z" />
    <glyph glyph-name="hyphen" unicode="-" 
d="M901 487h-594v152h594v-152z" />
    <glyph glyph-name="period" unicode="." 
d="M608 229q53 0 89 -36t36 -89q0 -54 -36.5 -92.5t-88.5 -38.5q-51 0 -87 38.5t-36 92.5t35.5 89.5t87.5 35.5z" />
    <glyph glyph-name="slash" unicode="/" 
d="M975 1438l-613 -1465h-147l610 1465h150z" />
    <glyph glyph-name="zero" unicode="0" 
d="M612 1438q224 0 344.5 -192.5t120.5 -540.5q0 -337 -117 -534.5t-348 -197.5q-223 0 -344 192t-121 540q0 338 117.5 535.5t347.5 197.5zM612 117q148 0 219.5 140.5t71.5 447.5q0 308 -71.5 447.5t-219.5 139.5q-146 0 -218 -143t-72 -444q0 -305 71.5 -446.5
t218.5 -141.5zM608 855q63 0 106.5 -43.5t43.5 -106.5q0 -65 -44 -111.5t-106 -46.5q-61 0 -104.5 46.5t-43.5 111.5q0 64 42.5 107t105.5 43z" />
    <glyph glyph-name="one" unicode="1" 
d="M1018 0h-742v143h299v1096l-282 -141v164l305 157h141v-1276h279v-143z" />
    <glyph glyph-name="two" unicode="2" 
d="M981 0h-776v119q295 329 383 441t143 235t55 245q0 118 -71.5 186t-200.5 68q-99 0 -266 -61l-23 141q151 64 316 64q189 0 304.5 -106.5t115.5 -284.5q0 -127 -59.5 -252t-152.5 -240t-362 -412h594v-143z" />
    <glyph glyph-name="three" unicode="3" 
d="M702 758q129 -36 207 -131.5t78 -214.5q0 -186 -145 -312.5t-342 -126.5q-168 0 -301 74l32 135q139 -65 275 -65q128 0 218.5 79.5t90.5 204.5q0 123 -97 200t-257 77h-43v135h12q154 0 254 72.5t100 195.5q0 100 -72 156.5t-198 56.5q-109 0 -244 -59l-22 141
q136 62 274 62q189 0 311.5 -99.5t122.5 -255.5q0 -108 -74.5 -201.5t-179.5 -117.5v-6z" />
    <glyph glyph-name="four" unicode="4" 
d="M1073 326h-174v-326h-164v326h-614v125l557 960h221v-942h174v-143zM735 469v780l-448 -780h448z" />
    <glyph glyph-name="five" unicode="5" 
d="M434 842q68 18 133 18q200 0 316 -122.5t116 -305.5q0 -192 -135 -325.5t-329 -133.5q-185 0 -310 62l33 139q136 -57 281 -57q129 0 208.5 83t79.5 232q0 141 -75 217t-193 76q-86 0 -170 -33l-98 45v674h645v-143h-502v-426z" />
    <glyph glyph-name="six" unicode="6" 
d="M362 735q132 107 287 107q179 0 298.5 -114.5t119.5 -295.5q0 -199 -106 -329t-283 -130q-226 0 -358 207.5t-132 507.5q0 320 137.5 535t376.5 215q165 0 285 -49l-26 -146q-139 51 -254 51q-163 0 -254 -156t-91 -403zM367 594q0 -181 85 -329t214 -148q109 0 168 80
t59 221q0 130 -65 205t-183 75q-153 0 -278 -104z" />
    <glyph glyph-name="seven" unicode="7" 
d="M1036 1294l-559 -1294h-168l551 1268h-661v143h837v-117z" />
    <glyph glyph-name="eight" unicode="8" 
d="M756 774q144 -42 223.5 -143t79.5 -236q0 -194 -128.5 -308t-316.5 -114q-197 0 -323.5 115t-126.5 305q0 134 82 236t229 145q-117 30 -187.5 115.5t-70.5 191.5q0 136 108 246.5t285 110.5q175 0 289.5 -110t114.5 -247q0 -103 -72 -189.5t-186 -117.5zM610 842
q5 0 48 12t73.5 29.5t56.5 44.5t42 63.5t16 81.5q0 96 -69 159.5t-167 63.5q-95 0 -163 -65t-68 -158q0 -59 24.5 -103t61 -71t84 -42t61.5 -15zM610 702q-274 -80 -274 -301q0 -129 83 -206.5t195 -77.5q116 0 195.5 76.5t79.5 207.5q0 99 -55 177.5t-224 123.5z" />
    <glyph glyph-name="nine" unicode="9" 
d="M883 678q-122 -107 -287 -107q-179 0 -298.5 114.5t-119.5 295.5q0 194 114.5 326.5t295.5 132.5q221 0 345 -202t124 -513t-145.5 -530.5t-389.5 -219.5q-164 0 -284 50l26 145q138 -51 254 -51q166 0 265.5 161t99.5 398zM879 819q0 190 -77 333.5t-202 143.5
q-113 0 -180.5 -83.5t-67.5 -217.5q0 -123 68.5 -201.5t179.5 -78.5q153 0 266 94z" />
    <glyph glyph-name="colon" unicode=":" 
d="M606 1057q51 0 86 -34.5t35 -84.5t-35 -84.5t-86 -34.5q-50 0 -84.5 34.5t-34.5 84.5t34.5 84.5t84.5 34.5zM606 221q51 0 86 -34t35 -85q0 -50 -35 -84t-86 -34q-50 0 -84.5 34t-34.5 84q0 51 34.5 85t84.5 34z" />
    <glyph glyph-name="semicolon" unicode=";" 
d="M614 1057q51 0 86 -34.5t35 -84.5q0 -51 -35 -85t-86 -34q-50 0 -84 34.5t-34 84.5t34 84.5t84 34.5zM616 -27q-52 6 -86 43t-34 84q0 51 33 86t83 35q56 0 97 -45.5t41 -109.5q0 -196 -218 -306l-38 72q122 60 122 141z" />
    <glyph glyph-name="less" unicode="&#x3c;" 
d="M975 215l-748 449v120l748 445v-144l-600 -366l600 -357v-147z" />
    <glyph glyph-name="equal" unicode="=" 
d="M1087 858h-946v131h946v-131zM1087 457h-946v131h946v-131z" />
    <glyph glyph-name="greater" unicode="&#x3e;" 
d="M1014 664l-748 -449v147l600 357l-600 366v144l748 -445v-120z" />
    <glyph glyph-name="question" unicode="?" 
d="M240 1358q177 80 317 80q189 0 292 -85t103 -251q0 -172 -223 -357q-97 -80 -118.5 -106.5t-34.5 -64.5t-13 -95v-55h-137v57q0 174 111 271l132 116q64 54 94 109.5t30 118.5q0 104 -66 159.5t-180 55.5q-103 0 -260 -74zM512 229q53 0 89 -36t36 -89q0 -54 -36.5 -92.5
t-88.5 -38.5q-51 0 -87 38.5t-36 92.5t35.5 89.5t87.5 35.5z" />
    <glyph glyph-name="at" unicode="@" 
d="M969 -78q-151 -84 -326 -84q-242 0 -393.5 197.5t-151.5 531.5q0 401 149.5 632t391.5 231q224 0 365 -182.5t141 -491.5q0 -231 -92.5 -382t-239.5 -151q-101 0 -129 119q-57 -119 -162 -119q-76 0 -127 80t-51 209q0 202 86.5 337.5t214.5 135.5q50 0 103 -37l4 25h125
q-60 -539 -60 -578q0 -27 11.5 -45t29.5 -18q67 0 122.5 119.5t55.5 304.5q0 264 -108 417.5t-289 153.5q-194 0 -313 -203t-119 -557q0 -284 120.5 -454t315.5 -170q161 0 303 69zM733 840q-30 37 -82 37q-82 0 -131 -96t-49 -255q0 -91 25 -142.5t63 -51.5q57 0 94 55
t39 78z" />
    <glyph glyph-name="A" unicode="A" 
d="M1176 0h-172l-156 494h-463l-158 -494h-170l461 1411h197zM801 637l-185 584l-184 -584h369z" />
    <glyph glyph-name="B" unicode="B" 
d="M784 774q141 -33 221 -128t80 -226q0 -192 -139.5 -306t-335.5 -114h-401v1411h391q204 0 319 -89.5t115 -252.5q0 -100 -66.5 -178t-183.5 -113v-4zM373 850h192q301 0 301 215q0 98 -74 150.5t-217 52.5h-202v-418zM373 143h186q163 0 258.5 74t95.5 203q0 137 -94 212
t-272 75h-174v-564z" />
    <glyph glyph-name="C" unicode="C" 
d="M1071 88q-166 -115 -385 -115q-274 0 -416.5 188t-142.5 544q0 344 138 538.5t421 194.5q102 0 202 -26t161 -69l-54 -129q-141 80 -309 80q-195 0 -290 -141.5t-95 -447.5q0 -588 385 -588q163 0 334 100z" />
    <glyph glyph-name="D" unicode="D" 
d="M209 1411h278q277 0 444 -188.5t167 -517.5q0 -336 -169.5 -520.5t-434.5 -184.5h-285v1411zM373 143h116q201 0 318 149t117 413q0 262 -117.5 412.5t-317.5 150.5h-116v-1125z" />
    <glyph glyph-name="E" unicode="E" 
d="M993 0h-737v1411h731v-143h-567v-437h545v-143h-545v-545h573v-143z" />
    <glyph glyph-name="F" unicode="F" 
d="M1004 1268h-584v-461h532v-143h-532v-664h-164v1411h748v-143z" />
    <glyph glyph-name="G" unicode="G" 
d="M1069 100q-173 -127 -383 -127q-275 0 -417 186.5t-142 545.5q0 347 137.5 540t421.5 193q102 0 202 -26t161 -69l-54 -129q-141 80 -309 80q-194 0 -289.5 -142t-95.5 -447q0 -588 385 -588q145 0 219 61v348h-254v142h418v-568z" />
    <glyph glyph-name="H" unicode="H" 
d="M1020 0h-164v700h-483v-700h-164v1411h164v-567h483v567h164v-1411z" />
    <glyph glyph-name="I" unicode="I" 
d="M928 0h-641v143h243v1125h-243v143h641v-143h-234v-1125h234v-143z" />
    <glyph glyph-name="J" unicode="J" 
d="M866 375q0 -194 -101.5 -298t-297.5 -104q-171 0 -311 72l49 131q119 -59 262 -59q124 0 179.5 65.5t55.5 204.5v1024h164v-1036z" />
    <glyph glyph-name="K" unicode="K" 
d="M1206 0h-207l-477 692l-149 -162v-530h-164v1411h164v-676l626 676h189l-551 -596z" />
    <glyph glyph-name="L" unicode="L" 
d="M1024 0h-768v1411h164v-1268h604v-143z" />
    <glyph glyph-name="M" unicode="M" 
d="M1069 0h-158v1210l-213 -579h-155l-213 579v-1210h-158v1411h213l236 -643l235 643h213v-1411z" />
    <glyph glyph-name="N" unicode="N" 
d="M1040 0h-182l-506 1114v-1114h-164v1411h183l508 -1104v1104h161v-1411z" />
    <glyph glyph-name="O" unicode="O" 
d="M612 1438q237 0 361.5 -187.5t124.5 -545.5q0 -356 -124 -544t-362 -188q-236 0 -360.5 187.5t-124.5 544.5t124 545t361 188zM612 117q312 0 312 588q0 589 -312 589q-152 0 -231.5 -152.5t-79.5 -436.5q0 -287 79 -437.5t232 -150.5z" />
    <glyph glyph-name="P" unicode="P" 
d="M256 1411h358q203 0 325 -102t122 -281q0 -180 -121.5 -287.5t-318.5 -107.5h-201v-633h-164v1411zM420 776h178q289 0 289 242q0 112 -78.5 181t-202.5 69h-186v-492z" />
    <glyph glyph-name="Q" unicode="Q" 
d="M1135 -233q-87 -27 -172 -27q-220 0 -285 240q-39 -7 -66 -7q-236 0 -360.5 187.5t-124.5 544.5t124 545t361 188t361.5 -187.5t124.5 -545.5q0 -520 -260 -676q37 -146 141 -146q58 0 127 15zM612 117q312 0 312 588q0 589 -312 589q-152 0 -231.5 -152.5t-79.5 -436.5
q0 -287 79 -437.5t232 -150.5z" />
    <glyph glyph-name="R" unicode="R" 
d="M1174 0h-205l-414 641h-182v-641h-164v1411h399q201 0 317.5 -97.5t116.5 -271.5q0 -129 -85 -229.5t-234 -136.5zM373 784h207q130 0 211 70.5t81 177.5q0 236 -288 236h-211v-484z" />
    <glyph glyph-name="S" unicode="S" 
d="M915 1255q-126 43 -239 43q-128 0 -208.5 -58.5t-80.5 -166.5q0 -128 211 -225q156 -72 206.5 -100t102.5 -77t83.5 -115.5t31.5 -149.5q0 -206 -138.5 -319.5t-326.5 -113.5q-182 0 -319 72l34 141q161 -73 281 -73q140 0 224.5 72.5t84.5 199.5q0 94 -55 159.5
t-203 133.5q-152 70 -196.5 95.5t-88.5 70.5t-68 101t-24 122q0 175 126 273t319 98q141 0 280 -43z" />
    <glyph glyph-name="T" unicode="T" 
d="M1133 1278h-435v-1278h-163v1278h-437v133h1035v-133z" />
    <glyph glyph-name="U" unicode="U" 
d="M1020 444q0 -245 -99.5 -358t-302.5 -113q-409 0 -409 467v971h164v-956q0 -338 245 -338q123 0 180.5 80t57.5 260v954h164v-967z" />
    <glyph glyph-name="V" unicode="V" 
d="M1171 1411l-460 -1411h-197l-461 1411h172l387 -1221l389 1221h170z" />
    <glyph glyph-name="W" unicode="W" 
d="M1186 1411l-180 -1411h-152l-240 795l-239 -795h-156l-176 1411h162l119 -1147l208 694h164l209 -696l121 1149h160z" />
    <glyph glyph-name="X" unicode="X" 
d="M1163 0h-182l-358 578l-355 -578h-182l451 719l-449 692h188l347 -559l350 559h180l-442 -692z" />
    <glyph glyph-name="Y" unicode="Y" 
d="M1139 1411l-441 -807v-604h-163v604l-441 807h185l337 -635l338 635h185z" />
    <glyph glyph-name="Z" unicode="Z" 
d="M1040 1294l-671 -1151h659v-143h-846v115l668 1153h-639v143h829v-117z" />
    <glyph glyph-name="bracketleft" unicode="[" 
d="M911 -270h-389v1681h389v-137h-233v-1409h233v-135z" />
    <glyph glyph-name="backslash" unicode="\" 
d="M973 -27h-148l-612 1465h149z" />
    <glyph glyph-name="bracketright" unicode="]" 
d="M678 -266h-399v135h243v1407h-243v135h399v-1677z" />
    <glyph glyph-name="asciicircum" unicode="^" 
d="M1124 788h-143l-367 601l-356 -601h-147l448 748h121z" />
    <glyph glyph-name="underscore" unicode="_" 
d="M1229 -446h-1229v131h1229v-131z" />
    <glyph glyph-name="grave" unicode="`" 
d="M772 1165h-113l-311 301h225z" />
    <glyph glyph-name="a" unicode="a" 
d="M1044 0h-155q-19 63 -19 168q-133 -195 -362 -195q-116 0 -204.5 82.5t-88.5 212.5q0 77 31 136t91 99.5t146 64t204 32.5l175 14v50q0 268 -250 268q-59 0 -149.5 -25.5t-155.5 -60.5l-41 112q213 109 396 109q356 0 356 -377v-448q0 -136 26 -242zM862 309v189
q-211 -19 -289.5 -35.5t-136 -61.5t-57.5 -122q0 -70 49 -113t125 -43q83 0 165 49.5t144 136.5z" />
    <glyph glyph-name="b" unicode="b" 
d="M371 907q52 72 140.5 116t186.5 44q182 0 283.5 -146t101.5 -384q0 -241 -108 -402.5t-289 -161.5q-97 0 -181.5 48.5t-133.5 128.5v-150h-156v1411h156v-504zM371 752v-433q44 -88 119 -147t155 -59q126 0 200.5 120t74.5 295q0 180 -71 292t-198 112q-165 0 -280 -180z
" />
    <glyph glyph-name="c" unicode="c" 
d="M1014 35q-136 -62 -299 -62q-246 0 -392.5 149.5t-146.5 397.5t147.5 397.5t387.5 149.5q157 0 299 -55l-41 -129q-142 49 -256 49q-172 0 -272.5 -111t-100.5 -301q0 -174 104 -292.5t271 -118.5q132 0 272 51z" />
    <glyph glyph-name="d" unicode="d" 
d="M1014 0h-156v150q-48 -77 -137.5 -127t-188.5 -50q-179 0 -283 159.5t-104 404.5q0 229 108.5 379.5t287.5 150.5q197 0 317 -160v504h156v-1411zM858 319v433q-112 180 -270 180q-129 0 -204 -114.5t-75 -289.5q0 -180 70.5 -297.5t193.5 -117.5q59 0 119 32t113 96
t53 78z" />
    <glyph glyph-name="e" unicode="e" 
d="M1049 516h-715q0 -177 102.5 -292t251.5 -115q142 0 293 51l27 -125q-138 -62 -322 -62q-232 0 -374 149t-142 402q0 248 127.5 395.5t329.5 147.5q180 0 301 -137t121 -365v-49zM879 643q0 122 -76 205.5t-170 83.5q-121 0 -200.5 -80t-88.5 -209h535z" />
    <glyph glyph-name="f" unicode="f" 
d="M1028 1395l-41 -127q-111 32 -199 32q-84 0 -115.5 -47.5t-31.5 -191.5v-19h350v-135h-350v-907h-156v907h-262v135h262v35q0 199 68 279t235 80q108 0 240 -41z" />
    <glyph glyph-name="g" unicode="g" 
d="M504 393q-146 -71 -146 -125q0 -29 33.5 -49t91.5 -20l351 10q125 0 194.5 -61t69.5 -173q0 -177 -158 -282t-369 -105q-173 0 -283 72.5t-110 187.5q0 125 170 211q-141 66 -141 162q0 110 182 205q-84 51 -129 132t-45 171q0 147 100 241.5t250 94.5q108 0 195 -45
l309 47v-152h-199q45 -79 45 -186q0 -142 -99 -240t-251 -98q-32 0 -61 2zM565 512q86 0 140.5 59.5t54.5 155.5q0 101 -53 158t-142 57q-83 0 -139.5 -59.5t-56.5 -155.5q0 -94 56.5 -154.5t139.5 -60.5zM571 -291q154 0 262.5 68.5t108.5 169.5q0 104 -154 104
q-51 0 -176 -6q-79 -4 -124 -4q-22 0 -68.5 -36t-71 -72.5t-24.5 -75.5q0 -61 68 -104.5t179 -43.5z" />
    <glyph glyph-name="h" unicode="h" 
d="M1018 0h-156v668q0 139 -44.5 201.5t-139.5 62.5q-143 0 -307 -178v-754h-156v1411h156v-522q168 178 354 178q293 0 293 -354v-713z" />
    <glyph glyph-name="i" unicode="i" 
d="M682 1436q44 0 75 -31.5t31 -75.5q0 -46 -30.5 -77t-75.5 -31q-41 0 -72.5 32.5t-31.5 75.5t31.5 75t72.5 32zM758 0h-156v907h-307v135h463v-1042z" />
    <glyph glyph-name="j" unicode="j" 
d="M682 1436q44 0 75 -31.5t31 -75.5q0 -46 -30.5 -77t-75.5 -31q-41 0 -72.5 32.5t-31.5 75.5t31.5 75t72.5 32zM758 -53q0 -196 -67.5 -277.5t-235.5 -81.5q-108 0 -240 41l41 127q111 -32 199 -32q84 0 115.5 47.5t31.5 191.5v944h-307v135h463v-1095z" />
    <glyph glyph-name="k" unicode="k" 
d="M1120 0h-205l-442 518l-102 -88v-430h-156v1411h156v-809l489 440h199l-475 -426z" />
    <glyph glyph-name="l" unicode="l" 
d="M942 0h-426v1276h-272v135h428v-1276h270v-135z" />
    <glyph glyph-name="m" unicode="m" 
d="M1100 0h-156v684q0 248 -92 248q-47 0 -103.5 -85.5t-56.5 -94.5v-752h-155v684q0 248 -93 248q-46 0 -102.5 -85.5t-56.5 -94.5v-752h-156v1042h150v-157q44 83 104.5 132.5t120.5 49.5q63 0 113 -49.5t69 -132.5q44 83 105 132.5t120 49.5q189 0 189 -338v-729z" />
    <glyph glyph-name="n" unicode="n" 
d="M1018 0h-156v668q0 139 -44.5 201.5t-139.5 62.5q-143 0 -307 -178v-754h-156v1042h156v-153q168 178 354 178q293 0 293 -354v-713z" />
    <glyph glyph-name="o" unicode="o" 
d="M614 1067q215 0 342 -150t127 -395q0 -247 -127 -398t-342 -151q-216 0 -342.5 150.5t-126.5 398.5q0 246 127 395.5t342 149.5zM614 109q142 0 224 120t82 291q0 180 -81 296t-225 116q-145 0 -225 -114.5t-80 -297.5q0 -174 81 -292.5t224 -118.5z" />
    <glyph glyph-name="p" unicode="p" 
d="M371 907q52 72 140.5 116t186.5 44q180 0 282.5 -148.5t102.5 -386.5q0 -240 -107.5 -399.5t-289.5 -159.5q-97 0 -181.5 48.5t-133.5 128.5v-562h-156v1454h156v-135zM371 752v-433q44 -88 119 -147t155 -59q126 0 200.5 118t74.5 293q0 180 -71 294t-198 114
q-165 0 -280 -180z" />
    <glyph glyph-name="q" unicode="q" 
d="M1014 -412h-156v562q-48 -77 -137.5 -127t-188.5 -50q-179 0 -283 157t-104 400q0 233 108 385t288 152q197 0 317 -160v135h156v-1454zM858 319v433q-112 180 -270 180q-129 0 -204 -117t-75 -293q0 -179 70.5 -294t193.5 -115q59 0 119 32t113 96t53 78z" />
    <glyph glyph-name="r" unicode="r" 
d="M1034 1014l-63 -150q-103 45 -178 45q-69 0 -135 -39.5t-121.5 -113t-55.5 -82.5v-674h-155v1042h155v-211q125 236 324 236q118 0 229 -53z" />
    <glyph glyph-name="s" unicode="s" 
d="M909 893q-131 43 -247 43q-127 0 -201 -42.5t-74 -113.5q0 -45 34 -78.5t136 -62.5l149 -43q103 -29 168 -69.5t97.5 -98t32.5 -133.5q0 -149 -125 -235.5t-318 -86.5q-192 0 -317 58l30 135q131 -62 281 -62q130 0 211.5 48.5t81.5 128.5q0 54 -40.5 96.5t-190.5 88.5
q-121 37 -178 55.5t-106 54.5t-74.5 86t-25.5 112q0 135 118 214t313 79q126 0 280 -43z" />
    <glyph glyph-name="t" unicode="t" 
d="M1028 47q-157 -72 -309 -72q-279 0 -279 295v637h-200v135h200v285h152v-285h354v-135h-354v-596q0 -95 42 -147.5t114 -52.5q128 0 253 57z" />
    <glyph glyph-name="u" unicode="u" 
d="M1016 0h-156v154q-168 -179 -354 -179q-293 0 -293 355v712h156v-667q0 -133 42 -198.5t142 -65.5q143 0 307 178v753h156v-1042z" />
    <glyph glyph-name="v" unicode="v" 
d="M1065 1042l-395 -1042h-142l-393 1042h170l295 -829l295 829h170z" />
    <glyph glyph-name="w" unicode="w" 
d="M1141 1042l-150 -1042h-119l-245 590l-246 -590h-119l-147 1042h155q83 -730 86 -766l191 453h160l190 -450l84 763h160z" />
    <glyph glyph-name="x" unicode="x" 
d="M1055 0h-176l-279 408l-289 -408h-166l371 522l-371 520h179l280 -405l285 405h166l-369 -514z" />
    <glyph glyph-name="y" unicode="y" 
d="M1065 1042l-395 -1042q-86 -230 -170.5 -321t-192.5 -91q-96 0 -190 35l26 125q76 -24 136 -24q84 0 138 65t109 213l-391 1040h170l295 -831l295 831h170z" />
    <glyph glyph-name="z" unicode="z" 
d="M1004 0h-801v84l594 821h-580v137h787v-77l-594 -828h594v-137z" />
    <glyph glyph-name="braceleft" unicode="{" 
d="M915 -342h-79q-144 0 -207.5 77.5t-63.5 287.5v96q0 187 -49 260.5t-158 73.5v163q109 0 158 73.5t49 260.5v97q0 209 63.5 286.5t207.5 77.5h79v-131h-30q-93 0 -129.5 -40t-36.5 -191v-64q0 -207 -48 -305t-163 -145q115 -48 163 -146t48 -305v-64q0 -151 36.5 -191
t129.5 -40h30v-131z" />
    <glyph glyph-name="bar" unicode="|" 
d="M686 -383h-154v1794h154v-1794z" />
    <glyph glyph-name="braceright" unicode="}" 
d="M866 453q-108 0 -157.5 -73.5t-49.5 -260.5v-96q0 -210 -63 -287.5t-207 -77.5h-80v131h31q93 0 129.5 40t36.5 191v64q0 207 48 305t163 146q-115 47 -163 145t-48 305v64q0 151 -36.5 191t-129.5 40h-31v131h80q144 0 207 -77.5t63 -286.5v-97q0 -169 44 -251.5
t163 -82.5v-163z" />
    <glyph glyph-name="asciitilde" unicode="~" 
d="M1155 512q-155 -131 -299 -131q-84 0 -256 78q-176 78 -250 78q-117 0 -291 -138v144q158 131 306 131q86 0 258 -78t245 -78q117 0 287 137v-143z" />
    <glyph glyph-name="Adieresis" unicode="&#xc4;" 
d="M1176 0h-172l-156 494h-463l-158 -494h-170l461 1411h197zM801 637l-185 584l-184 -584h369zM813 1759q45 0 75 -31t30 -78q0 -43 -31 -75.5t-74 -32.5q-45 0 -76.5 32.5t-31.5 75.5q0 47 31 78t77 31zM418 1759q46 0 76 -30.5t30 -78.5q0 -44 -31 -76t-75 -32
t-76.5 32.5t-32.5 75.5q0 47 32 78t77 31z" />
    <glyph glyph-name="Aring" unicode="&#xc5;" 
d="M727 1370q0 1 224 -684l225 -686h-172l-156 494h-463l-158 -494h-170l447 1368q-80 61 -80 156q0 78 56 134t134 56t134.5 -56t56.5 -134q0 -94 -78 -154zM614 1411q46 0 79.5 33.5t33.5 79.5t-33.5 79t-79.5 33q-45 0 -78.5 -33t-33.5 -79t33 -79.5t79 -33.5zM801 637
l-185 584l-184 -584h369z" />
    <glyph glyph-name="Ccedilla" unicode="&#xc7;" 
d="M1071 88q-148 -104 -344 -113l-8 -28q119 -28 119 -125q0 -87 -64.5 -138t-161.5 -51q-40 0 -82 7v96q35 -4 56 -4q55 0 93 22.5t38 50.5q0 66 -127 66l37 104q-247 21 -373.5 208.5t-126.5 521.5q0 344 138 538.5t421 194.5q102 0 202 -26t161 -69l-54 -129
q-141 80 -309 80q-195 0 -290 -141.5t-95 -447.5q0 -588 385 -588q163 0 334 100z" />
    <glyph glyph-name="Eacute" unicode="&#xc9;" 
d="M993 0h-737v1411h731v-143h-567v-437h545v-143h-545v-545h573v-143zM885 1835l-312 -301h-112l198 301h226z" />
    <glyph glyph-name="Ntilde" unicode="&#xd1;" 
d="M1040 0h-182l-506 1114v-1114h-164v1411h183l508 -1104v1104h161v-1411zM962 1782q-34 -230 -192 -230q-56 0 -174 57q-101 48 -142 48q-39 0 -68 -30t-36 -75h-84q34 230 192 230q56 0 174 -57q101 -48 142 -48q39 0 68 30t36 75h84z" />
    <glyph glyph-name="Odieresis" unicode="&#xd6;" 
d="M612 1438q237 0 361.5 -187.5t124.5 -545.5q0 -356 -124 -544t-362 -188q-236 0 -360.5 187.5t-124.5 544.5t124 545t361 188zM612 117q312 0 312 588q0 589 -312 589q-152 0 -231.5 -152.5t-79.5 -436.5q0 -287 79 -437.5t232 -150.5zM813 1761q45 0 75 -31t30 -78
q0 -43 -31 -75.5t-74 -32.5q-45 0 -76.5 32.5t-31.5 75.5q0 47 31 78t77 31zM418 1761q46 0 76 -30.5t30 -78.5q0 -44 -31 -76t-75 -32t-76.5 32.5t-32.5 75.5q0 47 32 78t77 31z" />
    <glyph glyph-name="Udieresis" unicode="&#xdc;" 
d="M1020 444q0 -245 -99.5 -358t-302.5 -113q-409 0 -409 467v971h164v-956q0 -338 245 -338q123 0 180.5 80t57.5 260v954h164v-967zM813 1759q45 0 75 -31t30 -78q0 -43 -31 -75.5t-74 -32.5q-45 0 -76.5 32.5t-31.5 75.5q0 47 31 78t77 31zM418 1759q46 0 76 -30.5
t30 -78.5q0 -44 -31 -76t-75 -32t-76.5 32.5t-32.5 75.5q0 47 32 78t77 31z" />
    <glyph glyph-name="aacute" unicode="&#xe1;" 
d="M1044 0h-155q-19 63 -19 168q-133 -195 -362 -195q-116 0 -204.5 82.5t-88.5 212.5q0 77 31 136t91 99.5t146 64t204 32.5l175 14v50q0 268 -250 268q-59 0 -149.5 -25.5t-155.5 -60.5l-41 112q213 109 396 109q356 0 356 -377v-448q0 -136 26 -242zM862 309v189
q-211 -19 -289.5 -35.5t-136 -61.5t-57.5 -122q0 -70 49 -113t125 -43q83 0 165 49.5t144 136.5zM918 1466l-312 -301h-112l198 301h226z" />
    <glyph glyph-name="agrave" unicode="&#xe0;" 
d="M1044 0h-155q-19 63 -19 168q-133 -195 -362 -195q-116 0 -204.5 82.5t-88.5 212.5q0 77 31 136t91 99.5t146 64t204 32.5l175 14v50q0 268 -250 268q-59 0 -149.5 -25.5t-155.5 -60.5l-41 112q213 109 396 109q356 0 356 -377v-448q0 -136 26 -242zM862 309v189
q-211 -19 -289.5 -35.5t-136 -61.5t-57.5 -122q0 -70 49 -113t125 -43q83 0 165 49.5t144 136.5zM821 1165h-113l-311 301h225z" />
    <glyph glyph-name="acircumflex" unicode="&#xe2;" 
d="M1044 0h-155q-19 63 -19 168q-133 -195 -362 -195q-116 0 -204.5 82.5t-88.5 212.5q0 77 31 136t91 99.5t146 64t204 32.5l175 14v50q0 268 -250 268q-59 0 -149.5 -25.5t-155.5 -60.5l-41 112q213 109 396 109q356 0 356 -377v-448q0 -136 26 -242zM862 309v189
q-211 -19 -289.5 -35.5t-136 -61.5t-57.5 -122q0 -70 49 -113t125 -43q83 0 165 49.5t144 136.5zM959 1165h-113l-198 193l-199 -193h-113l199 301h225z" />
    <glyph glyph-name="adieresis" unicode="&#xe4;" 
d="M1044 0h-155q-19 63 -19 168q-133 -195 -362 -195q-116 0 -204.5 82.5t-88.5 212.5q0 77 31 136t91 99.5t146 64t204 32.5l175 14v50q0 268 -250 268q-59 0 -149.5 -25.5t-155.5 -60.5l-41 112q213 109 396 109q356 0 356 -377v-448q0 -136 26 -242zM862 309v189
q-211 -19 -289.5 -35.5t-136 -61.5t-57.5 -122q0 -70 49 -113t125 -43q83 0 165 49.5t144 136.5zM838 1391q45 0 75 -31t30 -78q0 -43 -31 -75.5t-74 -32.5q-45 0 -76.5 32.5t-31.5 75.5q0 47 31 78t77 31zM443 1391q46 0 76 -30.5t30 -78.5q0 -44 -31 -76t-75 -32
t-76.5 32.5t-32.5 75.5q0 47 32 78t77 31z" />
    <glyph glyph-name="atilde" unicode="&#xe3;" 
d="M1044 0h-155q-19 63 -19 168q-133 -195 -362 -195q-116 0 -204.5 82.5t-88.5 212.5q0 77 31 136t91 99.5t146 64t204 32.5l175 14v50q0 268 -250 268q-59 0 -149.5 -25.5t-155.5 -60.5l-41 112q213 109 396 109q356 0 356 -377v-448q0 -136 26 -242zM862 309v189
q-211 -19 -289.5 -35.5t-136 -61.5t-57.5 -122q0 -70 49 -113t125 -43q83 0 165 49.5t144 136.5zM987 1414q-34 -230 -192 -230q-56 0 -174 57q-101 48 -142 48q-39 0 -68 -30t-36 -75h-84q34 230 192 230q56 0 174 -57q101 -48 142 -48q39 0 68 30t36 75h84z" />
    <glyph glyph-name="aring" unicode="&#xe5;" 
d="M1044 0h-155q-19 63 -19 168q-133 -195 -362 -195q-116 0 -204.5 82.5t-88.5 212.5q0 77 31 136t91 99.5t146 64t204 32.5l175 14v50q0 268 -250 268q-59 0 -149.5 -25.5t-155.5 -60.5l-41 112q213 109 396 109q356 0 356 -377v-448q0 -136 26 -242zM862 309v189
q-211 -19 -289.5 -35.5t-136 -61.5t-57.5 -122q0 -70 49 -113t125 -43q83 0 165 49.5t144 136.5zM641 1548q78 0 134.5 -56.5t56.5 -133.5q0 -78 -56.5 -134.5t-134.5 -56.5t-134 56.5t-56 134.5q0 77 56 133.5t134 56.5zM641 1245q46 0 79.5 33.5t33.5 79.5
q0 45 -33.5 78.5t-79.5 33.5q-45 0 -78.5 -33.5t-33.5 -78.5q0 -47 33 -80t79 -33z" />
    <glyph glyph-name="ccedilla" unicode="&#xe7;" 
d="M1014 35q-129 -58 -287 -62l-8 -26q119 -28 119 -125q0 -87 -64.5 -138t-161.5 -51q-40 0 -82 7v96q35 -4 56 -4q55 0 93 22.5t38 50.5q0 66 -127 66l37 109q-214 28 -332.5 174t-118.5 366q0 248 147.5 397.5t387.5 149.5q157 0 299 -55l-41 -129q-142 49 -256 49
q-172 0 -272.5 -111t-100.5 -301q0 -174 104 -292.5t271 -118.5q132 0 272 51z" />
    <glyph glyph-name="eacute" unicode="&#xe9;" 
d="M1049 516h-715q0 -177 102.5 -292t251.5 -115q142 0 293 51l27 -125q-138 -62 -322 -62q-232 0 -374 149t-142 402q0 248 127.5 395.5t329.5 147.5q180 0 301 -137t121 -365v-49zM879 643q0 122 -76 205.5t-170 83.5q-121 0 -200.5 -80t-88.5 -209h535zM875 1466
l-312 -301h-112l198 301h226z" />
    <glyph glyph-name="egrave" unicode="&#xe8;" 
d="M1049 516h-715q0 -177 102.5 -292t251.5 -115q142 0 293 51l27 -125q-138 -62 -322 -62q-232 0 -374 149t-142 402q0 248 127.5 395.5t329.5 147.5q180 0 301 -137t121 -365v-49zM879 643q0 122 -76 205.5t-170 83.5q-121 0 -200.5 -80t-88.5 -209h535zM772 1165h-113
l-311 301h225z" />
    <glyph glyph-name="ecircumflex" unicode="&#xea;" 
d="M1049 516h-715q0 -177 102.5 -292t251.5 -115q142 0 293 51l27 -125q-138 -62 -322 -62q-232 0 -374 149t-142 402q0 248 127.5 395.5t329.5 147.5q180 0 301 -137t121 -365v-49zM879 643q0 122 -76 205.5t-170 83.5q-121 0 -200.5 -80t-88.5 -209h535zM926 1165h-113
l-198 193l-199 -193h-113l199 301h225z" />
    <glyph glyph-name="edieresis" unicode="&#xeb;" 
d="M1049 516h-715q0 -177 102.5 -292t251.5 -115q142 0 293 51l27 -125q-138 -62 -322 -62q-232 0 -374 149t-142 402q0 248 127.5 395.5t329.5 147.5q180 0 301 -137t121 -365v-49zM879 643q0 122 -76 205.5t-170 83.5q-121 0 -200.5 -80t-88.5 -209h535zM826 1391
q45 0 75 -31t30 -78q0 -43 -31 -75.5t-74 -32.5q-45 0 -76.5 32.5t-31.5 75.5q0 47 31 78t77 31zM431 1391q46 0 76 -30.5t30 -78.5q0 -44 -31 -76t-75 -32t-76.5 32.5t-32.5 75.5q0 47 32 78t77 31z" />
    <glyph glyph-name="iacute" unicode="&#xed;" 
d="M758 0h-156v907h-307v135h463v-1042zM866 1466l-312 -301h-112l198 301h226z" />
    <glyph glyph-name="igrave" unicode="&#xec;" 
d="M758 0h-156v907h-307v135h463v-1042zM760 1165h-113l-311 301h225z" />
    <glyph glyph-name="icircumflex" unicode="&#xee;" 
d="M758 0h-156v907h-307v135h463v-1042zM904 1165h-113l-198 193l-199 -193h-113l199 301h225z" />
    <glyph glyph-name="idieresis" unicode="&#xef;" 
d="M758 0h-156v907h-307v135h463v-1042zM805 1391q45 0 75 -31t30 -78q0 -43 -31 -75.5t-74 -32.5q-45 0 -76.5 32.5t-31.5 75.5q0 47 31 78t77 31zM410 1391q46 0 76 -30.5t30 -78.5q0 -44 -31 -76t-75 -32t-76.5 32.5t-32.5 75.5q0 47 32 78t77 31z" />
    <glyph glyph-name="ntilde" unicode="&#xf1;" 
d="M1018 0h-156v668q0 139 -44.5 201.5t-139.5 62.5q-143 0 -307 -178v-754h-156v1042h156v-153q168 178 354 178q293 0 293 -354v-713zM960 1414q-34 -230 -192 -230q-56 0 -174 57q-101 48 -142 48q-39 0 -68 -30t-36 -75h-84q34 230 192 230q56 0 174 -57
q101 -48 142 -48q39 0 68 30t36 75h84z" />
    <glyph glyph-name="oacute" unicode="&#xf3;" 
d="M614 1067q215 0 342 -150t127 -395q0 -247 -127 -398t-342 -151q-216 0 -342.5 150.5t-126.5 398.5q0 246 127 395.5t342 149.5zM614 109q142 0 224 120t82 291q0 180 -81 296t-225 116q-145 0 -225 -114.5t-80 -297.5q0 -174 81 -292.5t224 -118.5zM893 1466l-312 -301
h-112l198 301h226z" />
    <glyph glyph-name="ograve" unicode="&#xf2;" 
d="M614 1067q215 0 342 -150t127 -395q0 -247 -127 -398t-342 -151q-216 0 -342.5 150.5t-126.5 398.5q0 246 127 395.5t342 149.5zM614 109q142 0 224 120t82 291q0 180 -81 296t-225 116q-145 0 -225 -114.5t-80 -297.5q0 -174 81 -292.5t224 -118.5zM795 1165h-113
l-311 301h225z" />
    <glyph glyph-name="ocircumflex" unicode="&#xf4;" 
d="M614 1067q215 0 342 -150t127 -395q0 -247 -127 -398t-342 -151q-216 0 -342.5 150.5t-126.5 398.5q0 246 127 395.5t342 149.5zM614 109q142 0 224 120t82 291q0 180 -81 296t-225 116q-145 0 -225 -114.5t-80 -297.5q0 -174 81 -292.5t224 -118.5zM928 1165h-113
l-198 193l-199 -193h-113l199 301h225z" />
    <glyph glyph-name="odieresis" unicode="&#xf6;" 
d="M614 1067q215 0 342 -150t127 -395q0 -247 -127 -398t-342 -151q-216 0 -342.5 150.5t-126.5 398.5q0 246 127 395.5t342 149.5zM614 109q142 0 224 120t82 291q0 180 -81 296t-225 116q-145 0 -225 -114.5t-80 -297.5q0 -174 81 -292.5t224 -118.5zM813 1391
q45 0 75 -31t30 -78q0 -43 -31 -75.5t-74 -32.5q-45 0 -76.5 32.5t-31.5 75.5q0 47 31 78t77 31zM418 1391q46 0 76 -30.5t30 -78.5q0 -44 -31 -76t-75 -32t-76.5 32.5t-32.5 75.5q0 47 32 78t77 31z" />
    <glyph glyph-name="otilde" unicode="&#xf5;" 
d="M614 1067q215 0 342 -150t127 -395q0 -247 -127 -398t-342 -151q-216 0 -342.5 150.5t-126.5 398.5q0 246 127 395.5t342 149.5zM614 109q142 0 224 120t82 291q0 180 -81 296t-225 116q-145 0 -225 -114.5t-80 -297.5q0 -174 81 -292.5t224 -118.5zM964 1414
q-34 -230 -192 -230q-56 0 -174 57q-101 48 -142 48q-39 0 -68 -30t-36 -75h-84q34 230 192 230q56 0 174 -57q101 -48 142 -48q39 0 68 30t36 75h84z" />
    <glyph glyph-name="uacute" unicode="&#xfa;" 
d="M1016 0h-156v154q-168 -179 -354 -179q-293 0 -293 355v712h156v-667q0 -133 42 -198.5t142 -65.5q143 0 307 178v753h156v-1042zM889 1466l-312 -301h-112l198 301h226z" />
    <glyph glyph-name="ugrave" unicode="&#xf9;" 
d="M1016 0h-156v154q-168 -179 -354 -179q-293 0 -293 355v712h156v-667q0 -133 42 -198.5t142 -65.5q143 0 307 178v753h156v-1042zM768 1165h-113l-311 301h225z" />
    <glyph glyph-name="ucircumflex" unicode="&#xfb;" 
d="M1016 0h-156v154q-168 -179 -354 -179q-293 0 -293 355v712h156v-667q0 -133 42 -198.5t142 -65.5q143 0 307 178v753h156v-1042zM920 1165h-113l-198 193l-199 -193h-113l199 301h225z" />
    <glyph glyph-name="udieresis" unicode="&#xfc;" 
d="M1016 0h-156v154q-168 -179 -354 -179q-293 0 -293 355v712h156v-667q0 -133 42 -198.5t142 -65.5q143 0 307 178v753h156v-1042zM805 1391q45 0 75 -31t30 -78q0 -43 -31 -75.5t-74 -32.5q-45 0 -76.5 32.5t-31.5 75.5q0 47 31 78t77 31zM410 1391q46 0 76 -30.5
t30 -78.5q0 -44 -31 -76t-75 -32t-76.5 32.5t-32.5 75.5q0 47 32 78t77 31z" />
    <glyph glyph-name="dagger" unicode="&#x2020;" 
d="M1008 819h-134l-188 37v-1206h-145v1206l-189 -37h-133v174h133l183 -37l-9 258v197h174v-197l-8 -258l182 37h134v-174z" />
    <glyph glyph-name="degree" unicode="&#xb0;" 
d="M612 1438q115 0 196 -81t81 -196q0 -114 -81 -195t-196 -81q-114 0 -195 81t-81 195q0 115 81 196t195 81zM612 991q71 0 120.5 50t49.5 120t-49.5 119t-120.5 49q-70 0 -119 -48.5t-49 -119.5q0 -70 49 -120t119 -50z" />
    <glyph glyph-name="cent" unicode="&#xa2;" 
d="M1034 35q-126 -58 -278 -62v-180h-117v187q-210 31 -326 176.5t-116 363.5q0 217 117 363t325 178v186h117v-180q144 -3 274 -55l-41 -129q-123 43 -233 49v-823q126 5 252 51zM639 119v803q-134 -30 -206.5 -136t-72.5 -266q0 -144 74.5 -255t204.5 -146z" />
    <glyph glyph-name="sterling" unicode="&#xa3;" 
d="M1112 78q-115 -98 -258 -98q-79 0 -204 60q-114 56 -181 56q-127 0 -258 -106v157q112 86 129.5 148.5t17.5 118.5v217h-196v133h196v170q0 257 95.5 379.5t298.5 122.5q145 0 266 -54l-37 -133q-115 43 -227 43q-121 0 -176.5 -86t-55.5 -274v-168h252v-133h-252v-199
q0 -116 -61 -180q93 0 226 -64q112 -53 177 -53q121 0 248 111v-168z" />
    <glyph glyph-name="section" unicode="&#xa7;" 
d="M920 1262q-130 38 -242 38q-133 0 -210 -48t-77 -140q0 -127 211 -203q163 -59 217 -85.5t103.5 -71.5t76.5 -104t27 -132q0 -182 -166 -297q129 -113 129 -258q0 -176 -133 -281.5t-328 -105.5q-172 0 -323 74l33 135q151 -70 282 -70q142 0 224.5 61t82.5 169
q0 92 -58.5 153.5t-193.5 112.5q-154 58 -199.5 80.5t-91 63t-70 92t-24.5 114.5q0 92 55 167t156 118q-174 98 -174 262q0 151 124 241.5t323 90.5q147 0 282 -39zM741 309q125 62 125 189q0 40 -10 73.5t-35 63.5t-69.5 57.5t-112.5 52.5t-74 25q-69 0 -142 -58.5
t-73 -150.5q0 -53 49.5 -98t143 -80.5t198.5 -73.5z" />
    <glyph glyph-name="bullet" unicode="&#x2022;" 
d="M612 952q104 0 179 -75t75 -179t-75 -179t-179 -75t-179 75t-75 179t75 179t179 75z" />
    <glyph glyph-name="paragraph" unicode="&#xb6;" 
d="M1137 1305h-150v-1655h-117v1655h-237v-1655h-119v901q-165 0 -319 120t-154 296q0 204 139 324t371 120h586v-106z" />
    <glyph glyph-name="germandbls" unicode="&#xdf;" 
d="M156 0v1030q0 193 104.5 299.5t296.5 106.5q367 0 367 -301q0 -54 -29 -106t-134 -126q-74 -52 -92 -78.5t-18 -52.5q0 -56 47.5 -86t204.5 -94q234 -95 234 -313q0 -139 -100 -222.5t-261 -83.5q-152 0 -278 54l32 135q120 -58 240 -58q91 0 152 49t61 119
q0 68 -39 115.5t-153 93.5q-134 54 -182 83t-79.5 80t-31.5 126q0 49 27.5 96.5t127.5 118.5q78 55 97.5 84t19.5 57q0 83 -54 128.5t-157 45.5q-119 0 -183.5 -77.5t-64.5 -227.5v-995h-155z" />
    <glyph glyph-name="registered" unicode="&#xae;" 
d="M614 1438q250 0 427.5 -177t177.5 -425q0 -251 -177.5 -429t-427.5 -178t-427 178t-177 429q0 250 176.5 426t427.5 176zM614 340q206 0 352 145.5t146 350.5q0 204 -146 349.5t-352 145.5q-204 0 -349.5 -145.5t-145.5 -349.5q0 -206 145 -351t350 -145zM922 512h-144
l-170 258h-78v-258h-127v653h205q103 0 169.5 -52t66.5 -140q0 -122 -125 -172zM530 874h68q123 0 123 95q0 90 -117 90h-74v-185z" />
    <glyph glyph-name="copyright" unicode="&#xa9;" 
d="M614 1438q250 0 427.5 -177t177.5 -425q0 -251 -177.5 -429t-427.5 -178t-427 178t-177 429q0 250 176.5 426t427.5 176zM614 340q206 0 352 145.5t146 350.5q0 204 -146 349.5t-352 145.5q-204 0 -349.5 -145.5t-145.5 -349.5q0 -206 145 -351t350 -145zM823 578
q-92 -68 -192 -68q-130 0 -207.5 92t-77.5 236q0 153 75.5 241t209.5 88q89 0 180 -49l-35 -94q-67 37 -145 37q-82 0 -120 -52.5t-38 -170.5q0 -222 158 -222q73 0 160 54z" />
    <glyph glyph-name="trademark" unicode="&#x2122;" 
d="M1159 668h-131v549l-137 -310h-94l-131 310v-549h-121v743h145l154 -364l162 364h153v-743zM487 1303h-172v-635h-127v635h-172v108h471v-108z" />
    <glyph glyph-name="acute" unicode="&#xb4;" 
d="M883 1466l-312 -301h-112l198 301h226z" />
    <glyph glyph-name="dieresis" unicode="&#xa8;" 
d="M813 1407q45 0 75 -31t30 -78q0 -43 -31 -75.5t-74 -32.5q-45 0 -76.5 32.5t-31.5 75.5q0 47 31 78t77 31zM418 1407q46 0 76 -30.5t30 -78.5q0 -44 -31 -76t-75 -32t-76.5 32.5t-32.5 75.5q0 47 32 78t77 31z" />
    <glyph glyph-name="notequal" unicode="&#x2260;" 
d="M1087 457h-524l-201 -484h-147l201 484h-275v131h330l113 270h-443v131h498l186 449h150l-189 -449h301v-131h-356l-113 -270h469v-131z" />
    <glyph glyph-name="AE" unicode="&#xc6;" 
d="M1182 0h-586v504h-260l-156 -504h-168l451 1411h713v-143h-416v-437h393v-143h-393v-545h422v-143zM596 647v615h-23l-190 -615h213z" />
    <glyph glyph-name="Oslash" unicode="&#xd8;" 
d="M936 1300q162 -187 162 -595q0 -356 -124 -544t-362 -188q-124 0 -221 54l-61 -144h-135l96 226q-164 183 -164 596q0 357 124 545t361 188q126 0 222 -56l65 154h137zM772 1239q-68 55 -160 55q-152 0 -231.5 -152.5t-79.5 -436.5q0 -260 68 -414zM453 172
q68 -55 159 -55q312 0 312 588q0 268 -66 413z" />
    <glyph glyph-name="infinity" unicode="&#x221e;" 
d="M592 836q91 136 155 184.5t136 48.5q127 0 210 -95t83 -249q0 -157 -82 -248.5t-209 -91.5q-76 0 -141 49t-152 182q-136 -192 -295 -192q-106 0 -174 83t-68 218q0 134 68.5 212.5t173.5 78.5q168 0 295 -180zM668 725q85 -122 128.5 -161.5t88.5 -39.5q70 0 110.5 54.5
t40.5 148.5q0 96 -40 148.5t-111 52.5q-40 0 -88.5 -43.5t-128.5 -159.5zM514 725q-109 162 -207 162q-50 0 -85.5 -44.5t-35.5 -117.5q0 -70 33.5 -115t87.5 -45q93 0 207 160z" />
    <glyph glyph-name="plusminus" unicode="&#xb1;" 
d="M1087 657h-405v-409h-131v409h-410v131h410v410h131v-410h405v-131zM1087 0h-946v131h946v-131z" />
    <glyph glyph-name="lessequal" unicode="&#x2264;" 
d="M975 215l-748 449v120l748 445v-144l-600 -366l600 -357v-147zM975 0h-748v131h748v-131z" />
    <glyph glyph-name="greaterequal" unicode="&#x2265;" 
d="M1014 666l-748 -449v148l600 356l-600 366v144l748 -445v-120zM1014 0h-748v131h748v-131z" />
    <glyph glyph-name="yen" unicode="&#xa5;" 
d="M1139 1411l-389 -717h340v-131h-392v-143h392v-131h-392v-293h-163v293h-392v131h392v143h-392v131h340l-389 717h185l337 -639l338 639h185z" />
    <glyph glyph-name="mu1" unicode="&#xb5;" 
d="M1016 0h-156v154q-168 -179 -354 -179q-81 0 -137 27v-340h-156v1380h156v-667q0 -133 42 -198.5t142 -65.5q143 0 307 178v753h156v-1042z" />
    <glyph glyph-name="partialdiff" unicode="&#x2202;" 
d="M436 1446q42 24 116 43.5t128 19.5q200 0 315 -136.5t115 -377.5q0 -418 -184 -719t-463 -301q-165 0 -261 110t-96 292q0 277 167 478.5t403 201.5q65 0 139.5 -30t130.5 -91v39q0 190 -68.5 296.5t-189.5 106.5q-99 0 -211 -53zM926 770q-52 70 -131.5 111t-147.5 41
q-171 0 -274 -162.5t-103 -378.5q0 -124 57.5 -194t166.5 -70q148 0 262.5 176.5t169.5 476.5z" />
    <glyph glyph-name="summation" unicode="&#x2211;" 
d="M1143 -283h-1032v144l493 727l-469 696v127h969v-143h-772l456 -680l-479 -707h834v-164z" />
    <glyph glyph-name="product" unicode="&#x220f;" 
d="M1079 -281h-164v1549h-602v-1549h-163v1692h929v-1692z" />
    <glyph glyph-name="pi1" 
d="M1137 887h-170v-887h-156v887h-401v-887h-156v887h-43q-65 0 -156 -25v160q85 20 144 20h938v-155z" />
    <glyph glyph-name="integral" unicode="&#x222b;" 
d="M999 1460l-32 -108q-85 28 -158 28q-68 0 -93.5 -54t-25.5 -171v-1210q0 -168 -63.5 -246t-206.5 -78q-84 0 -193 43l33 109q91 -31 158 -31t93 54.5t26 172.5v1211q0 174 66.5 247.5t203.5 73.5q89 0 192 -41z" />
    <glyph glyph-name="ordfeminine" unicode="&#xaa;" 
d="M877 797h-136q-8 38 -8 82q-37 -43 -96.5 -71t-110.5 -28q-79 0 -133.5 53t-54.5 138q0 186 389 203v18q0 70 -36.5 105.5t-92.5 35.5q-86 0 -192 -55l-41 90q154 70 262 70q233 0 233 -234v-252q0 -68 17 -155zM727 977v119q-153 -7 -201.5 -40t-48.5 -85
q0 -37 25 -61.5t59 -24.5q97 0 166 92z" />
    <glyph glyph-name="ordmasculine" unicode="&#xba;" 
d="M602 1438q136 0 217.5 -90.5t81.5 -235.5q0 -147 -82 -238.5t-217 -91.5q-137 0 -218 90.5t-81 239.5q0 144 80.5 235t218.5 91zM602 887q73 0 116.5 64t43.5 159q0 223 -160 223q-74 0 -117 -61.5t-43 -161.5q0 -95 43.5 -159t116.5 -64z" />
    <glyph glyph-name="Ohm" unicode="&#x2126;" 
d="M365 133q-94 65 -166 230.5t-72 363.5q0 325 128 518t357 193q226 0 356 -190.5t130 -520.5q0 -196 -71.5 -361.5t-164.5 -232.5h209v-133h-381v131q109 48 176.5 212t67.5 384q0 273 -85 425.5t-237 152.5t-236.5 -152t-84.5 -426q0 -212 72.5 -381t183.5 -215v-131
h-393v133h211z" />
    <glyph glyph-name="ae" unicode="&#xe6;" 
d="M1186 35q-129 -62 -258 -62q-210 0 -310 177q-132 -177 -309 -177q-115 0 -189.5 80.5t-74.5 214.5q0 144 108 231.5t388 112.5v52q0 141 -45.5 204.5t-157.5 63.5q-78 0 -211 -58l-41 119q151 74 301 74q185 0 256 -119q91 119 234 119q142 0 224.5 -125t82.5 -367v-59
h-488v-18q0 -188 59 -288.5t173 -100.5q108 0 235 51zM1010 643q0 137 -35 214t-98 77q-81 0 -128 -77.5t-53 -213.5h314zM541 256v242q-163 -10 -247.5 -69.5t-84.5 -149.5q0 -69 42.5 -112.5t104.5 -43.5q73 0 129 53t56 80z" />
    <glyph glyph-name="oslash" unicode="&#xf8;" 
d="M891 979q192 -149 192 -457q0 -247 -127 -398t-342 -151q-72 0 -147 21l-61 -144h-136l84 197q-209 147 -209 475q0 246 127 395.5t342 149.5q86 0 166 -27l64 148h137zM725 911q-55 21 -111 21q-145 0 -225 -114.5t-80 -297.5q0 -208 109 -327zM522 123q47 -14 92 -14
q142 0 224 120t82 291q0 193 -93 311z" />
    <glyph glyph-name="questiondown" unicode="&#xbf;" 
d="M721 1067q51 0 87 -38.5t36 -92.5t-35.5 -89.5t-87.5 -35.5q-53 0 -89 36t-36 89q0 54 36.5 92.5t88.5 38.5zM993 -317q-177 -80 -317 -80q-189 0 -292 85t-103 251q0 172 222 356q98 80 119 106.5t34.5 65t13.5 94.5v55h137v-57q0 -174 -111 -270l-133 -116
q-63 -55 -93 -110.5t-30 -117.5q0 -105 66 -160t180 -55q103 0 260 73z" />
    <glyph glyph-name="exclamdown" unicode="&#xa1;" 
d="M623 1067q51 0 86.5 -38.5t35.5 -92.5q0 -53 -35 -89t-87 -36q-53 0 -89 36t-36 89q0 54 36.5 92.5t88.5 38.5zM717 -371h-180v459l47 528h86l47 -528v-459z" />
    <glyph glyph-name="logicalnot" unicode="&#xac;" 
d="M1087 498h-131v360h-815v131h946v-491z" />
    <glyph glyph-name="radical" unicode="&#x221a;" 
d="M1229 1470h-146l-432 -1740h-172l-209 645l-198 -72l-41 127l329 115l199 -633l418 1690h252v-132z" />
    <glyph glyph-name="florin" unicode="&#x192;" 
d="M1143 1409l-31 -125q-69 21 -123 21q-69 0 -111 -38.5t-85 -224.5h235v-124h-262l-178 -803q-45 -206 -128 -301t-214 -95q-62 0 -164 31l43 131q66 -22 117 -22q69 0 113 50.5t77 203.5l176 805h-176v124h203q49 229 132 312.5t218 83.5q77 0 158 -29z" />
    <glyph glyph-name="approxequal" unicode="&#x2248;" 
d="M1163 905q-155 -131 -299 -131q-84 0 -256 78q-176 78 -250 78q-116 0 -290 -137v143q157 131 305 131q86 0 258 -78t246 -78q117 0 286 138v-144zM1163 512q-155 -131 -299 -131q-84 0 -256 78q-176 78 -250 78q-116 0 -290 -138v144q157 131 305 131q86 0 258 -78
t246 -78q117 0 286 137v-143z" />
    <glyph glyph-name="uni2206" unicode="&#x2206;" 
d="M1176 0h-1119l461 1411h197zM961 133l-345 1104l-346 -1104h691z" />
    <glyph glyph-name="guillemotleft" unicode="&#xab;" 
d="M1051 139l-93 -80l-380 443v121l380 440l93 -80l-359 -422zM649 139l-92 -80l-381 443v121l381 440l92 -80l-358 -422z" />
    <glyph glyph-name="guillemotright" unicode="&#xbb;" 
d="M1051 502l-381 -443l-92 80l358 422l-358 422l92 80l381 -440v-121zM649 502l-381 -443l-92 80l359 422l-359 422l92 80l381 -440v-121z" />
    <glyph glyph-name="ellipsis" unicode="&#x2026;" 
d="M1024 229q53 0 89 -36t36 -89q0 -54 -36.5 -92.5t-88.5 -38.5q-51 0 -87 38.5t-36 92.5t35.5 89.5t87.5 35.5zM616 229q53 0 89 -36t36 -89q0 -54 -36.5 -92.5t-88.5 -38.5q-51 0 -86.5 38.5t-35.5 92.5t35 89.5t87 35.5zM203 229q52 0 88.5 -36t36.5 -89
q0 -54 -36.5 -92.5t-88.5 -38.5t-87.5 38.5t-35.5 92.5t35.5 89.5t87.5 35.5z" />
    <glyph glyph-name="nonbreakingspace" unicode="&#xa0;" 
 />
    <glyph glyph-name="Agrave" unicode="&#xc0;" 
d="M1176 0h-172l-156 494h-463l-158 -494h-170l461 1411h197zM801 637l-185 584l-184 -584h369zM776 1534h-113l-311 301h225z" />
    <glyph glyph-name="Atilde" unicode="&#xc3;" 
d="M1176 0h-172l-156 494h-463l-158 -494h-170l461 1411h197zM801 637l-185 584l-184 -584h369zM975 1782q-34 -230 -192 -230q-56 0 -174 57q-101 48 -142 48q-39 0 -68 -30t-36 -75h-84q34 230 192 230q56 0 174 -57q101 -48 142 -48q39 0 68 30t36 75h84z" />
    <glyph glyph-name="Otilde" unicode="&#xd5;" 
d="M612 1438q237 0 361.5 -187.5t124.5 -545.5q0 -356 -124 -544t-362 -188q-236 0 -360.5 187.5t-124.5 544.5t124 545t361 188zM612 117q312 0 312 588q0 589 -312 589q-152 0 -231.5 -152.5t-79.5 -436.5q0 -287 79 -437.5t232 -150.5zM952 1782q-34 -230 -192 -230
q-56 0 -174 57q-101 48 -142 48q-39 0 -68 -30t-36 -75h-84q34 230 192 230q56 0 174 -57q101 -48 142 -48q39 0 68 30t36 75h84z" />
    <glyph glyph-name="OE" unicode="&#x152;" 
d="M1108 0h-512q-215 0 -342 193.5t-127 511.5q0 326 126 516t359 190h490v-143h-352v-439h329v-139h-329v-547h358v-143zM596 143v1123q-152 0 -223.5 -133.5t-71.5 -427.5q0 -264 72.5 -413t222.5 -149z" />
    <glyph glyph-name="oe" unicode="&#x153;" 
d="M1186 35q-129 -62 -258 -62q-148 0 -242 88q-97 -88 -225 -88q-179 0 -293.5 157t-114.5 390q0 242 111 394.5t297 152.5q126 0 223 -72q77 72 193 72q137 0 222 -124.5t85 -362.5v-64h-488v-18q0 -188 59 -288.5t173 -100.5q108 0 235 51zM1010 643q0 137 -35 214
t-98 77q-168 0 -183 -291h316zM614 162q-77 156 -77 391q0 190 61 324q-69 55 -137 55q-244 0 -244 -412q0 -198 62 -304.5t182 -106.5q85 0 153 53z" />
    <glyph glyph-name="endash" unicode="&#x2013;" 
d="M1004 487h-820v152h820v-152z" />
    <glyph glyph-name="emdash" unicode="&#x2014;" 
d="M1229 487h-1229v152h1229v-152z" />
    <glyph glyph-name="quotedblleft" unicode="&#x201c;" 
d="M915 1368q-122 -60 -122 -141q52 -6 86 -42.5t34 -84.5q0 -51 -33 -86t-83 -35q-56 0 -97 45.5t-41 110.5q0 195 218 305zM549 1368q-123 -60 -123 -141q53 -6 87 -42.5t34 -84.5q0 -51 -33.5 -86t-83.5 -35q-56 0 -96.5 45.5t-40.5 110.5q0 195 217 305z" />
    <glyph glyph-name="quotedblright" unicode="&#x201d;" 
d="M788 1190q-52 6 -86 42.5t-34 84.5q0 51 33.5 86t82.5 35q56 0 97 -45.5t41 -110.5q0 -195 -217 -305l-39 72q122 60 122 141zM422 1190q-53 6 -87 42.5t-34 84.5q0 51 33.5 86t83.5 35q56 0 96.5 -45.5t40.5 -110.5q0 -195 -217 -305l-39 72q123 60 123 141z" />
    <glyph glyph-name="quoteleft" unicode="&#x2018;" 
d="M735 1368q-123 -60 -123 -141q53 -6 87 -42.5t34 -84.5q0 -51 -33.5 -86t-83.5 -35q-55 0 -96 45.5t-41 110.5q0 195 217 305z" />
    <glyph glyph-name="quoteright" unicode="&#x2019;" 
d="M600 1190q-53 6 -87 42.5t-34 84.5q0 51 33.5 86t83.5 35q56 0 96.5 -45.5t40.5 -110.5q0 -195 -217 -305l-39 72q123 60 123 141z" />
    <glyph glyph-name="divide" unicode="&#xf7;" 
d="M616 1223q48 0 80.5 -32.5t32.5 -80.5t-33 -82.5t-80 -34.5q-46 0 -78 34.5t-32 82.5q0 49 31.5 81t78.5 32zM1087 657h-946v131h946v-131zM616 453q48 0 80.5 -32.5t32.5 -80.5t-33 -82.5t-80 -34.5q-46 0 -78 34.5t-32 82.5q0 49 31.5 81t78.5 32z" />
    <glyph glyph-name="lozenge" unicode="&#x25ca;" 
d="M1157 766l-543 -766l-542 766l542 766zM1001 766l-387 537l-389 -537l389 -553z" />
    <glyph glyph-name="ydieresis" unicode="&#xff;" 
d="M1065 1042l-395 -1042q-86 -230 -170.5 -321t-192.5 -91q-96 0 -190 35l26 125q76 -24 136 -24q84 0 138 65t109 213l-391 1040h170l295 -831l295 831h170zM803 1391q45 0 75 -31t30 -78q0 -43 -31 -75.5t-74 -32.5q-45 0 -76.5 32.5t-31.5 75.5q0 47 31 78t77 31z
M408 1391q46 0 76 -30.5t30 -78.5q0 -44 -31 -76t-75 -32t-76.5 32.5t-32.5 75.5q0 47 32 78t77 31z" />
    <glyph glyph-name="Ydieresis" unicode="&#x178;" 
d="M1139 1411l-441 -807v-604h-163v604l-441 807h185l337 -635l338 635h185zM821 1759q45 0 75 -31t30 -78q0 -43 -31 -75.5t-74 -32.5q-45 0 -76.5 32.5t-31.5 75.5q0 47 31 78t77 31zM426 1759q46 0 76 -30.5t30 -78.5q0 -44 -31 -76t-75 -32t-76.5 32.5t-32.5 75.5
q0 47 32 78t77 31z" />
    <glyph glyph-name="fraction" unicode="&#x2044;" 
d="M995 1411l-643 -1411h-116l641 1411h118z" />
    <glyph glyph-name="fraction" unicode="&#x2215;" 
d="M995 1411l-643 -1411h-116l641 1411h118z" />
    <glyph glyph-name="Euro" unicode="&#x20ac;" 
d="M1071 88q-166 -115 -385 -115q-469 0 -545 531h-141l72 131h57q-2 21 -2 70q0 50 2 73h-129l71 131h70q80 529 545 529q102 0 202 -26t161 -69l-54 -129q-141 80 -309 80q-319 0 -373 -385h703l-72 -131h-641q-2 -23 -2 -73q0 -49 2 -70h653l-71 -131h-570
q60 -387 371 -387q163 0 334 100z" />
    <glyph glyph-name="guilsinglleft" unicode="&#x2039;" 
d="M854 139l-92 -80l-381 443v121l381 440l92 -80l-358 -422z" />
    <glyph glyph-name="guilsinglright" unicode="&#x203a;" 
d="M848 502l-381 -443l-92 80l358 422l-358 422l92 80l381 -440v-121z" />
    <glyph glyph-name="fi" unicode="&#xfb01;" 
d="M987 0h-156v907h-405v-907h-156v907h-241v135h241v35q0 199 68 279t235 80q108 0 240 -41l-41 -127q-111 32 -199 32q-84 0 -115.5 -47.5t-31.5 -191.5v-19h561v-1042z" />
    <glyph glyph-name="fl" unicode="&#xfb02;" 
d="M987 0h-156v1272q-165 28 -243 28q-92 0 -127 -52.5t-35 -186.5v-19h281v-135h-281v-907h-156v907h-241v135h241v35q0 193 73 276t245 83q42 0 115 -9l131 -16h153v-1411z" />
    <glyph glyph-name="daggerdbl" unicode="&#x2021;" 
d="M1008 74h-134l-182 37l8 -265v-196h-174v196l9 265l-183 -37h-133v174h133l189 -37v639l-189 -37h-133v174h133l183 -31l-9 258v197h174v-197l-8 -258l182 31h134v-174h-134l-188 37v-639l188 37h134v-174z" />
    <glyph glyph-name="periodcentered" unicode="&#xb7;" 
d="M608 803q53 0 89 -36t36 -89q0 -54 -36.5 -92.5t-88.5 -38.5q-51 0 -87 38.5t-36 92.5q0 53 35.5 89t87.5 36z" />
    <glyph glyph-name="periodcentered" unicode="&#x2219;" 
d="M608 803q53 0 89 -36t36 -89q0 -54 -36.5 -92.5t-88.5 -38.5q-51 0 -87 38.5t-36 92.5q0 53 35.5 89t87.5 36z" />
    <glyph glyph-name="quotesinglbase" unicode="&#x201a;" 
d="M616 -27q-52 6 -86 43t-34 84q0 51 33 86t83 35q56 0 97 -45.5t41 -109.5q0 -196 -218 -306l-38 72q122 60 122 141z" />
    <glyph glyph-name="quotedblbase" unicode="&#x201e;" 
d="M788 -27q-52 6 -86 43t-34 84q0 51 33 86t83 35q56 0 97 -45.5t41 -109.5q0 -196 -217 -306l-39 72q122 60 122 141zM422 -27q-53 6 -87 43t-34 84q0 51 33.5 86t83.5 35q56 0 96.5 -45.5t40.5 -109.5q0 -196 -217 -306l-39 72q123 60 123 141z" />
    <glyph glyph-name="perthousand" unicode="&#x2030;" 
d="M252 1438q121 0 186.5 -80.5t65.5 -222.5q0 -143 -65.5 -223.5t-186.5 -80.5q-122 0 -187 80t-65 224q0 136 63 219.5t189 83.5zM252 952q108 0 108 183q0 182 -108 182q-109 0 -109 -182q0 -183 109 -183zM1057 928l-1057 -416v133l1057 420v-137zM977 580
q121 0 186.5 -80.5t65.5 -223.5q0 -142 -65.5 -222.5t-186.5 -80.5q-122 0 -187 80t-65 223t65.5 223.5t186.5 80.5zM977 94q108 0 108 182q0 183 -108 183q-109 0 -109 -183q0 -182 109 -182zM428 580q121 0 186.5 -80.5t65.5 -223.5q0 -136 -63 -219.5t-189 -83.5
q-122 0 -187 80t-65 223t65.5 223.5t186.5 80.5zM428 94q109 0 109 182q0 183 -109 183t-109 -183q0 -182 109 -182z" />
    <glyph glyph-name="Acircumflex" unicode="&#xc2;" 
d="M1176 0h-172l-156 494h-463l-158 -494h-170l461 1411h197zM801 637l-185 584l-184 -584h369zM932 1534h-113l-198 193l-199 -193h-113l199 301h225z" />
    <glyph glyph-name="Ecircumflex" unicode="&#xca;" 
d="M993 0h-737v1411h731v-143h-567v-437h545v-143h-545v-545h573v-143zM940 1534h-113l-198 193l-199 -193h-113l199 301h225z" />
    <glyph glyph-name="Aacute" unicode="&#xc1;" 
d="M1176 0h-172l-156 494h-463l-158 -494h-170l461 1411h197zM801 637l-185 584l-184 -584h369zM879 1835l-312 -301h-112l198 301h226z" />
    <glyph glyph-name="Edieresis" unicode="&#xcb;" 
d="M993 0h-737v1411h731v-143h-567v-437h545v-143h-545v-545h573v-143zM830 1759q45 0 75 -31t30 -78q0 -43 -31 -75.5t-74 -32.5q-45 0 -76.5 32.5t-31.5 75.5q0 47 31 78t77 31zM435 1759q46 0 76 -30.5t30 -78.5q0 -44 -31 -76t-75 -32t-76.5 32.5t-32.5 75.5q0 47 32 78
t77 31z" />
    <glyph glyph-name="Egrave" unicode="&#xc8;" 
d="M993 0h-737v1411h731v-143h-567v-437h545v-143h-545v-545h573v-143zM778 1534h-113l-311 301h225z" />
    <glyph glyph-name="Iacute" unicode="&#xcd;" 
d="M928 0h-641v143h243v1125h-243v143h641v-143h-234v-1125h234v-143zM844 1835l-312 -301h-112l198 301h226z" />
    <glyph glyph-name="Icircumflex" unicode="&#xce;" 
d="M928 0h-641v143h243v1125h-243v143h641v-143h-234v-1125h234v-143zM918 1534h-113l-198 193l-199 -193h-113l199 301h225z" />
    <glyph glyph-name="Idieresis" unicode="&#xcf;" 
d="M928 0h-641v143h243v1125h-243v143h641v-143h-234v-1125h234v-143zM807 1759q45 0 75 -31t30 -78q0 -43 -31 -75.5t-74 -32.5q-45 0 -76.5 32.5t-31.5 75.5q0 47 31 78t77 31zM412 1759q46 0 76 -30.5t30 -78.5q0 -44 -31 -76t-75 -32t-76.5 32.5t-32.5 75.5q0 47 32 78
t77 31z" />
    <glyph glyph-name="Igrave" unicode="&#xcc;" 
d="M928 0h-641v143h243v1125h-243v143h641v-143h-234v-1125h234v-143zM746 1534h-113l-311 301h225z" />
    <glyph glyph-name="Oacute" unicode="&#xd3;" 
d="M612 1438q237 0 361.5 -187.5t124.5 -545.5q0 -356 -124 -544t-362 -188q-236 0 -360.5 187.5t-124.5 544.5t124 545t361 188zM612 117q312 0 312 588q0 589 -312 589q-152 0 -231.5 -152.5t-79.5 -436.5q0 -287 79 -437.5t232 -150.5zM873 1835l-312 -301h-112l198 301
h226z" />
    <glyph glyph-name="Ocircumflex" unicode="&#xd4;" 
d="M612 1438q237 0 361.5 -187.5t124.5 -545.5q0 -356 -124 -544t-362 -188q-236 0 -360.5 187.5t-124.5 544.5t124 545t361 188zM612 117q312 0 312 588q0 589 -312 589q-152 0 -231.5 -152.5t-79.5 -436.5q0 -287 79 -437.5t232 -150.5zM924 1534h-113l-198 193l-199 -193
h-113l199 301h225z" />
    <glyph glyph-name="Ograve" unicode="&#xd2;" 
d="M612 1438q237 0 361.5 -187.5t124.5 -545.5q0 -356 -124 -544t-362 -188q-236 0 -360.5 187.5t-124.5 544.5t124 545t361 188zM612 117q312 0 312 588q0 589 -312 589q-152 0 -231.5 -152.5t-79.5 -436.5q0 -287 79 -437.5t232 -150.5zM756 1534h-113l-311 301h225z" />
    <glyph glyph-name="Uacute" unicode="&#xda;" 
d="M1020 444q0 -245 -99.5 -358t-302.5 -113q-409 0 -409 467v971h164v-956q0 -338 245 -338q123 0 180.5 80t57.5 260v954h164v-967zM881 1835l-312 -301h-112l198 301h226z" />
    <glyph glyph-name="Ucircumflex" unicode="&#xdb;" 
d="M1020 444q0 -245 -99.5 -358t-302.5 -113q-409 0 -409 467v971h164v-956q0 -338 245 -338q123 0 180.5 80t57.5 260v954h164v-967zM928 1534h-113l-198 193l-199 -193h-113l199 301h225z" />
    <glyph glyph-name="Ugrave" unicode="&#xd9;" 
d="M1020 444q0 -245 -99.5 -358t-302.5 -113q-409 0 -409 467v971h164v-956q0 -338 245 -338q123 0 180.5 80t57.5 260v954h164v-967zM750 1534h-113l-311 301h225z" />
    <glyph glyph-name="dotlessi" unicode="&#x131;" 
d="M758 0h-156v907h-307v135h463v-1042z" />
    <glyph glyph-name="circumflex" unicode="&#x2c6;" 
d="M932 1165h-113l-198 193l-199 -193h-113l199 301h225z" />
    <glyph glyph-name="tilde" unicode="&#x2dc;" 
d="M989 1430q-34 -230 -192 -230q-56 0 -174 57q-101 48 -142 48q-39 0 -68 -30t-36 -75h-84q34 230 192 230q56 0 174 -57q101 -48 142 -48q39 0 68 30t36 75h84z" />
    <glyph glyph-name="macron" unicode="&#x2c9;" 
d="M954 1282h-678v129h678v-129z" />
    <glyph glyph-name="breve" unicode="&#x2d8;" 
d="M899 1430q-24 -129 -98.5 -197t-188.5 -68q-242 0 -293 265h138q29 -127 157 -127q118 0 146 127h139z" />
    <glyph glyph-name="dotaccent" unicode="&#x2d9;" 
d="M614 1438q40 0 67.5 -27.5t27.5 -67.5t-27.5 -68t-67.5 -28q-39 0 -67.5 28.5t-28.5 67.5q0 40 28 67.5t68 27.5z" />
    <glyph glyph-name="ring" unicode="&#x2da;" 
d="M614 1536q78 0 134.5 -56.5t56.5 -133.5q0 -78 -56.5 -134.5t-134.5 -56.5t-134 56.5t-56 134.5q0 77 56 133.5t134 56.5zM614 1233q46 0 79.5 33.5t33.5 79.5q0 45 -33.5 78.5t-79.5 33.5q-45 0 -78.5 -33.5t-33.5 -78.5q0 -47 33 -80t79 -33z" />
    <glyph glyph-name="cedilla" unicode="&#xb8;" 
d="M637 -53q119 -28 119 -125q0 -87 -64.5 -138t-161.5 -51q-40 0 -81 7v96q34 -4 55 -4q55 0 93 22.5t38 50.5q0 66 -127 66l45 129h100z" />
    <glyph glyph-name="hungarumlaut" unicode="&#x2dd;" 
d="M952 1466l-229 -301h-113l138 301h204zM625 1466l-230 -301h-112l137 301h205z" />
    <glyph glyph-name="ogonek" unicode="&#x2db;" 
d="M809 -334q-73 -33 -150 -33q-91 0 -148.5 51.5t-57.5 133.5q0 90 90 182h102q-72 -89 -72 -141q0 -127 123 -127q36 0 113 22v-88z" />
    <glyph glyph-name="caron" unicode="&#x2c7;" 
d="M926 1466l-199 -301h-225l-199 301h113l198 -192l199 192h113z" />
    <glyph glyph-name="Lslash" unicode="&#x141;" 
d="M1024 0h-768v532l-102 -65l-72 108l174 113v723h164v-616l278 180l72 -109l-350 -227v-496h604v-143z" />
    <glyph glyph-name="lslash" unicode="&#x142;" 
d="M948 831l-276 -180v-516h270v-135h-426v551l-184 -119l-72 109l256 166v569h-272v135h428v-604l205 133z" />
    <glyph glyph-name="Scaron" unicode="&#x160;" 
d="M915 1255q-126 43 -239 43q-128 0 -208.5 -58.5t-80.5 -166.5q0 -128 211 -225q156 -72 206.5 -100t102.5 -77t83.5 -115.5t31.5 -149.5q0 -206 -138.5 -319.5t-326.5 -113.5q-182 0 -319 72l34 141q161 -73 281 -73q140 0 224.5 72.5t84.5 199.5q0 94 -55 159.5
t-203 133.5q-152 70 -196.5 95.5t-88.5 70.5t-68 101t-24 122q0 175 126 273t319 98q141 0 280 -43zM945 1835l-199 -301h-225l-199 301h113l198 -192l199 192h113z" />
    <glyph glyph-name="scaron" unicode="&#x161;" 
d="M909 893q-131 43 -247 43q-127 0 -201 -42.5t-74 -113.5q0 -45 34 -78.5t136 -62.5l149 -43q103 -29 168 -69.5t97.5 -98t32.5 -133.5q0 -149 -125 -235.5t-318 -86.5q-192 0 -317 58l30 135q131 -62 281 -62q130 0 211.5 48.5t81.5 128.5q0 54 -40.5 96.5t-190.5 88.5
q-121 37 -178 55.5t-106 54.5t-74.5 86t-25.5 112q0 135 118 214t313 79q126 0 280 -43zM940 1466l-199 -301h-225l-199 301h113l198 -192l199 192h113z" />
    <glyph glyph-name="Zcaron" unicode="&#x17d;" 
d="M1040 1294l-671 -1151h659v-143h-846v115l668 1153h-639v143h829v-117zM926 1835l-199 -301h-225l-199 301h113l198 -192l199 192h113z" />
    <glyph glyph-name="zcaron" unicode="&#x17e;" 
d="M1004 0h-801v84l594 821h-580v137h787v-77l-594 -828h594v-137zM926 1466l-199 -301h-225l-199 301h113l198 -192l199 192h113z" />
    <glyph glyph-name="brokenbar" unicode="&#xa6;" 
d="M686 651h-154v760h154v-760zM686 -412h-154v760h154v-760z" />
    <glyph glyph-name="Eth" unicode="&#xd0;" 
d="M209 1411h278q277 0 444 -188.5t167 -517.5q0 -336 -169.5 -520.5t-434.5 -184.5h-285v651h-146v144h146v616zM373 143h116q201 0 318 149t117 413q0 262 -117.5 412.5t-317.5 150.5h-116v-473h194v-144h-194v-508z" />
    <glyph glyph-name="eth" unicode="&#xf0;" 
d="M678 1305q204 -190 305.5 -380t99.5 -415q0 -235 -127 -386t-342 -151q-216 0 -342.5 150.5t-126.5 398.5q0 246 127 395.5t342 149.5q52 0 107 -10q-81 116 -146 178l-116 -84l-76 72l119 82q-60 59 -133 114l75 82q80 -57 160 -127l123 90l72 -69zM614 109
q142 0 224 120t82 291q0 180 -81 296t-225 116q-145 0 -225 -114.5t-80 -297.5q0 -174 81 -292.5t224 -118.5z" />
    <glyph glyph-name="Yacute" unicode="&#xdd;" 
d="M1139 1411l-441 -807v-604h-163v604l-441 807h185l337 -635l338 635h185zM893 1835l-312 -301h-112l198 301h226z" />
    <glyph glyph-name="yacute" unicode="&#xfd;" 
d="M1065 1042l-395 -1042q-86 -230 -170.5 -321t-192.5 -91q-96 0 -190 35l26 125q76 -24 136 -24q84 0 138 65t109 213l-391 1040h170l295 -831l295 831h170zM878 1466l-312 -301h-112l198 301h226z" />
    <glyph glyph-name="Thorn" unicode="&#xde;" 
d="M420 1120h194q203 0 325 -102t122 -281q0 -180 -121.5 -287.5t-318.5 -107.5h-201v-342h-164v1411h164v-291zM420 485h178q289 0 289 242q0 112 -78.5 181t-202.5 69h-186v-492z" />
    <glyph glyph-name="thorn" unicode="&#xfe;" 
d="M371 907q52 72 140.5 116t186.5 44q180 0 282.5 -148.5t102.5 -386.5q0 -240 -107.5 -399.5t-289.5 -159.5q-97 0 -181.5 48.5t-133.5 128.5v-562h-156v1823h156v-504zM371 752v-433q44 -88 119 -147t155 -59q126 0 200.5 118t74.5 293q0 180 -71 294t-198 114
q-165 0 -280 -180z" />
    <glyph glyph-name="minus" unicode="&#x2212;" 
d="M1087 655h-946v131h946v-131z" />
    <glyph glyph-name="multiply" unicode="&#xd7;" 
d="M1028 406l-94 -93l-318 318l-319 -318l-92 93l317 319l-317 317l92 95l319 -320l316 316l92 -93l-315 -315z" />
    <glyph glyph-name="onesuperior" unicode="&#xb9;" 
d="M817 698h-416v109h150v467l-141 -70v123l170 84h98v-604h139v-109z" />
    <glyph glyph-name="twosuperior" unicode="&#xb2;" 
d="M825 698h-432l2 84q210 227 249.5 296.5t39.5 129.5q0 47 -30 74t-85 27q-44 0 -151 -35l-17 106q91 37 183 37q105 0 168 -55t63 -150q0 -56 -41 -132t-227 -273h278v-109z" />
    <glyph glyph-name="threesuperior" unicode="&#xb3;" 
d="M653 1075q65 -10 109.5 -56t44.5 -106q0 -96 -79 -162.5t-187 -66.5q-91 0 -174 49l26 103q84 -41 152 -41q54 0 92.5 31.5t38.5 80.5q0 50 -42 81.5t-112 31.5h-45v102h29q68 0 112 28.5t44 78.5q0 80 -113 80q-53 0 -141 -35l-17 106q86 37 162 37q104 0 172 -52.5
t68 -133.5q0 -54 -38.5 -96t-101.5 -58v-2z" />
    <glyph glyph-name="onehalf" unicode="&#xbd;" 
d="M473 698h-416v109h150v467l-141 -70v123l170 84h98v-604h139v-109zM995 1411l-643 -1411h-116l641 1411h118zM1182 0h-432l2 84q210 227 249.5 296.5t39.5 129.5q0 47 -30 74t-85 27q-44 0 -151 -35l-17 106q91 37 183 37q105 0 168 -55t63 -150q0 -56 -41 -132
t-227 -273h278v-109z" />
    <glyph glyph-name="onequarter" unicode="&#xbc;" 
d="M473 698h-416v109h150v467l-141 -70v123l170 84h98v-604h139v-109zM995 1411l-643 -1411h-116l641 1411h118zM1149 160h-86v-160h-127v160h-307v86l286 467h148v-442h86v-111zM936 271v282l-174 -282h174z" />
    <glyph glyph-name="threequarters" unicode="&#xbe;" 
d="M345 1075q65 -10 109.5 -56t44.5 -106q0 -96 -79 -162.5t-187 -66.5q-91 0 -174 49l26 103q84 -41 152 -41q54 0 92.5 31.5t38.5 80.5q0 50 -42 81.5t-112 31.5h-45v102h29q68 0 112 28.5t44 78.5q0 80 -113 80q-53 0 -141 -35l-17 106q86 37 162 37q104 0 172 -52.5
t68 -133.5q0 -54 -38.5 -96t-101.5 -58v-2zM995 1411l-643 -1411h-116l641 1411h118zM1149 160h-86v-160h-127v160h-307v86l286 467h148v-442h86v-111zM936 271v282l-174 -282h174z" />
    <glyph glyph-name="sfthyphen" unicode="&#xad;" 
d="M901 487h-594v152h594v-152z" />
    <glyph glyph-name="overscore" unicode="&#xaf;" 
d="M1229 1726h-1229v132h1229v-132z" />
    <glyph glyph-name="foursuperior" 
d="M762 856h-86v-160h-127v160h-307v86l286 467h148v-442h86v-111zM549 967v282l-174 -282h174z" />
    <glyph glyph-name="commaaccent" unicode="&#xf004;" 
d="M647 -282q-40 5 -66 33.5t-26 65.5q0 38 25.5 65.5t62.5 27.5q44 0 75.5 -35.5t31.5 -86.5q0 -148 -167 -234l-30 57q94 45 94 107z" />
    <glyph glyph-name="commaaccent" unicode="&#xf005;" 
d="M647 -282q-40 5 -66 33.5t-26 65.5q0 38 25.5 65.5t62.5 27.5q44 0 75.5 -35.5t31.5 -86.5q0 -148 -167 -234l-30 57q94 45 94 107z" />
    <glyph glyph-name="Amacron" unicode="&#x100;" 
d="M1176 0h-172l-156 494h-463l-158 -494h-170l461 1411h197zM801 637l-185 584l-184 -584h369zM954 1554h-678v129h678v-129z" />
    <glyph glyph-name="amacron" unicode="&#x101;" 
d="M1044 0h-155q-19 63 -19 168q-133 -195 -362 -195q-116 0 -204.5 82.5t-88.5 212.5q0 77 31 136t91 99.5t146 64t204 32.5l175 14v50q0 268 -250 268q-59 0 -149.5 -25.5t-155.5 -60.5l-41 112q213 109 396 109q356 0 356 -377v-448q0 -136 26 -242zM862 309v189
q-211 -19 -289.5 -35.5t-136 -61.5t-57.5 -122q0 -70 49 -113t125 -43q83 0 165 49.5t144 136.5zM990 1222h-678v129h678v-129z" />
    <glyph glyph-name="Abreve" unicode="&#x102;" 
d="M1176 0h-172l-156 494h-463l-158 -494h-170l461 1411h197zM801 637l-185 584l-184 -584h369zM899 1807q-24 -129 -98.5 -197t-188.5 -68q-242 0 -293 265h138q29 -127 157 -127q118 0 146 127h139z" />
    <glyph glyph-name="abreve" unicode="&#x103;" 
d="M1044 0h-155q-19 63 -19 168q-133 -195 -362 -195q-116 0 -204.5 82.5t-88.5 212.5q0 77 31 136t91 99.5t146 64t204 32.5l175 14v50q0 268 -250 268q-59 0 -149.5 -25.5t-155.5 -60.5l-41 112q213 109 396 109q356 0 356 -377v-448q0 -136 26 -242zM862 309v189
q-211 -19 -289.5 -35.5t-136 -61.5t-57.5 -122q0 -70 49 -113t125 -43q83 0 165 49.5t144 136.5zM932 1430q-24 -129 -98.5 -197t-188.5 -68q-242 0 -293 265h138q29 -127 157 -127q118 0 146 127h139z" />
    <glyph glyph-name="Aogonek" unicode="&#x104;" 
d="M1176 0h-70q-72 -89 -72 -141q0 -127 103 -127q43 0 92 22v-88q-42 -33 -129 -33q-91 0 -139 51.5t-48 133.5q0 90 91 182l-156 494h-463l-158 -494h-170l461 1411h197zM801 637l-185 584l-184 -584h369z" />
    <glyph glyph-name="aogonek" unicode="&#x105;" 
d="M1044 0h-53q-71 -89 -71 -141q0 -127 122 -127q33 0 113 22v-88q-72 -33 -149 -33q-92 0 -149.5 51.5t-57.5 133.5q0 90 90 182q-19 63 -19 168q-133 -195 -362 -195q-116 0 -204.5 82.5t-88.5 212.5q0 77 31 136t91 99.5t146 64t204 32.5l175 14v50q0 268 -250 268
q-59 0 -149.5 -25.5t-155.5 -60.5l-41 112q213 109 396 109q356 0 356 -377v-448q0 -136 26 -242zM862 309v189q-211 -19 -289.5 -35.5t-136 -61.5t-57.5 -122q0 -70 49 -113t125 -43q83 0 165 49.5t144 136.5z" />
    <glyph glyph-name="Cacute" unicode="&#x106;" 
d="M1071 88q-166 -115 -385 -115q-274 0 -416.5 188t-142.5 544q0 344 138 538.5t421 194.5q102 0 202 -26t161 -69l-54 -129q-141 80 -309 80q-195 0 -290 -141.5t-95 -447.5q0 -588 385 -588q163 0 334 100zM934 1853l-312 -301h-112l198 301h226z" />
    <glyph glyph-name="cacute" unicode="&#x107;" 
d="M1014 35q-136 -62 -299 -62q-246 0 -392.5 149.5t-146.5 397.5t147.5 397.5t387.5 149.5q157 0 299 -55l-41 -129q-142 49 -256 49q-172 0 -272.5 -111t-100.5 -301q0 -174 104 -292.5t271 -118.5q132 0 272 51zM940 1466l-312 -301h-112l198 301h226z" />
    <glyph glyph-name="Ccircumflex" unicode="&#x108;" 
d="M1071 88q-166 -115 -385 -115q-274 0 -416.5 188t-142.5 544q0 344 138 538.5t421 194.5q102 0 202 -26t161 -69l-54 -129q-141 80 -309 80q-195 0 -290 -141.5t-95 -447.5q0 -588 385 -588q163 0 334 100zM968 1553h-113l-198 193l-199 -193h-113l199 301h225z" />
    <glyph glyph-name="ccircumflex" unicode="&#x109;" 
d="M1014 35q-136 -62 -299 -62q-246 0 -392.5 149.5t-146.5 397.5t147.5 397.5t387.5 149.5q157 0 299 -55l-41 -129q-142 49 -256 49q-172 0 -272.5 -111t-100.5 -301q0 -174 104 -292.5t271 -118.5q132 0 272 51zM972 1165h-113l-198 193l-199 -193h-113l199 301h225z" />
    <glyph glyph-name="Cdot" unicode="&#x10a;" 
d="M1071 88q-166 -115 -385 -115q-274 0 -416.5 188t-142.5 544q0 344 138 538.5t421 194.5q102 0 202 -26t161 -69l-54 -129q-141 80 -309 80q-195 0 -290 -141.5t-95 -447.5q0 -588 385 -588q163 0 334 100zM662 1742q40 0 67.5 -27.5t27.5 -67.5t-27.5 -68t-67.5 -28
q-39 0 -67.5 28.5t-28.5 67.5q0 40 28 67.5t68 27.5z" />
    <glyph glyph-name="cdot" unicode="&#x10b;" 
d="M1014 35q-136 -62 -299 -62q-246 0 -392.5 149.5t-146.5 397.5t147.5 397.5t387.5 149.5q157 0 299 -55l-41 -129q-142 49 -256 49q-172 0 -272.5 -111t-100.5 -301q0 -174 104 -292.5t271 -118.5q132 0 272 51zM686 1438q40 0 67.5 -27.5t27.5 -67.5t-27.5 -68
t-67.5 -28q-39 0 -67.5 28.5t-28.5 67.5q0 40 28 67.5t68 27.5z" />
    <glyph glyph-name="Ccaron" unicode="&#x10c;" 
d="M1071 88q-166 -115 -385 -115q-274 0 -416.5 188t-142.5 544q0 344 138 538.5t421 194.5q102 0 202 -26t161 -69l-54 -129q-141 80 -309 80q-195 0 -290 -141.5t-95 -447.5q0 -588 385 -588q163 0 334 100zM992 1853l-199 -301h-225l-199 301h113l198 -192l199 192h113z
" />
    <glyph glyph-name="ccaron" unicode="&#x10d;" 
d="M1014 35q-136 -62 -299 -62q-246 0 -392.5 149.5t-146.5 397.5t147.5 397.5t387.5 149.5q157 0 299 -55l-41 -129q-142 49 -256 49q-172 0 -272.5 -111t-100.5 -301q0 -174 104 -292.5t271 -118.5q132 0 272 51zM971 1466l-199 -301h-225l-199 301h113l198 -192l199 192
h113z" />
    <glyph glyph-name="Dcaron" unicode="&#x10e;" 
d="M209 1411h278q277 0 444 -188.5t167 -517.5q0 -336 -169.5 -520.5t-434.5 -184.5h-285v1411zM373 143h116q201 0 318 149t117 413q0 262 -117.5 412.5t-317.5 150.5h-116v-1125zM887 1853l-199 -301h-225l-199 301h113l198 -192l199 192h113z" />
    <glyph glyph-name="dcaron" unicode="&#x10f;" 
d="M914 0h-156v150q-48 -77 -137.5 -127t-188.5 -50q-179 0 -283 159.5t-104 404.5q0 229 108.5 379.5t287.5 150.5q197 0 317 -160v504h156v-1411zM758 319v433q-112 180 -270 180q-129 0 -204 -114.5t-75 -289.5q0 -180 70.5 -297.5t193.5 -117.5q59 0 119 32t113 96
t53 78zM1097 1291q-40 5 -66 33.5t-26 65.5q0 38 25.5 65.5t62.5 27.5q44 0 75.5 -35.5t31.5 -86.5q0 -148 -167 -234l-30 57q94 45 94 107z" />
    <glyph glyph-name="Dslash" unicode="&#x110;" 
d="M209 1411h278q277 0 444 -188.5t167 -517.5q0 -336 -169.5 -520.5t-434.5 -184.5h-285v651h-146v144h146v616zM373 143h116q201 0 318 149t117 413q0 262 -117.5 412.5t-317.5 150.5h-116v-473h194v-144h-194v-508z" />
    <glyph glyph-name="dcroat" unicode="&#x111;" 
d="M1178 1155h-164v-1155h-156v150q-48 -77 -137.5 -127t-188.5 -50q-179 0 -283 159.5t-104 404.5q0 229 108.5 379.5t287.5 150.5q197 0 317 -160v248h-221v123h221v133h156v-133h164v-123zM858 319v433q-112 180 -270 180q-129 0 -204 -114.5t-75 -289.5
q0 -180 70.5 -297.5t193.5 -117.5q59 0 119 32t113 96t53 78z" />
    <glyph glyph-name="Emacron" unicode="&#x112;" 
d="M993 0h-737v1411h731v-143h-567v-437h545v-143h-545v-545h573v-143zM966 1554h-678v129h678v-129z" />
    <glyph glyph-name="emacron" unicode="&#x113;" 
d="M1049 516h-715q0 -177 102.5 -292t251.5 -115q142 0 293 51l27 -125q-138 -62 -322 -62q-232 0 -374 149t-142 402q0 248 127.5 395.5t329.5 147.5q180 0 301 -137t121 -365v-49zM879 643q0 122 -76 205.5t-170 83.5q-121 0 -200.5 -80t-88.5 -209h535zM962 1222h-678
v129h678v-129z" />
    <glyph glyph-name="Ebreve" unicode="&#x114;" 
d="M993 0h-737v1411h731v-143h-567v-437h545v-143h-545v-545h573v-143zM931 1818q-24 -129 -98.5 -197t-188.5 -68q-242 0 -293 265h138q29 -127 157 -127q118 0 146 127h139z" />
    <glyph glyph-name="ebreve" unicode="&#x115;" 
d="M1049 516h-715q0 -177 102.5 -292t251.5 -115q142 0 293 51l27 -125q-138 -62 -322 -62q-232 0 -374 149t-142 402q0 248 127.5 395.5t329.5 147.5q180 0 301 -137t121 -365v-49zM879 643q0 122 -76 205.5t-170 83.5q-121 0 -200.5 -80t-88.5 -209h535zM915 1430
q-24 -129 -98.5 -197t-188.5 -68q-242 0 -293 265h138q29 -127 157 -127q118 0 146 127h139z" />
    <glyph glyph-name="Edot" unicode="&#x116;" 
d="M993 0h-737v1411h731v-143h-567v-437h545v-143h-545v-545h573v-143zM634 1746q40 0 67.5 -27.5t27.5 -67.5t-27.5 -68t-67.5 -28q-39 0 -67.5 28.5t-28.5 67.5q0 40 28 67.5t68 27.5z" />
    <glyph glyph-name="edot" unicode="&#x117;" 
d="M1049 516h-715q0 -177 102.5 -292t251.5 -115q142 0 293 51l27 -125q-138 -62 -322 -62q-232 0 -374 149t-142 402q0 248 127.5 395.5t329.5 147.5q180 0 301 -137t121 -365v-49zM879 643q0 122 -76 205.5t-170 83.5q-121 0 -200.5 -80t-88.5 -209h535zM614 1438
q40 0 67.5 -27.5t27.5 -67.5t-27.5 -68t-67.5 -28q-39 0 -67.5 28.5t-28.5 67.5q0 40 28 67.5t68 27.5z" />
    <glyph glyph-name="Eogonek" unicode="&#x118;" 
d="M993 0h-282q-72 -89 -72 -141q0 -127 123 -127q33 0 112 22v-88q-72 -33 -149 -33q-91 0 -149 51.5t-58 133.5q0 90 90 182h-352v1411h731v-143h-567v-437h545v-143h-545v-545h573v-143z" />
    <glyph glyph-name="eogonek" unicode="&#x119;" 
d="M1049 516h-715q0 -177 102.5 -292t251.5 -115q142 0 293 51l27 -125q-115 -53 -293 -62q-51 -71 -51 -114q0 -127 122 -127q33 0 113 22v-88q-72 -33 -149 -33q-92 0 -149.5 51.5t-57.5 133.5t69 159q-208 27 -325 173.5t-117 373.5q0 248 127.5 395.5t329.5 147.5
q180 0 301 -137t121 -365v-49zM879 643q0 122 -76 205.5t-170 83.5q-121 0 -200.5 -80t-88.5 -209h535z" />
    <glyph glyph-name="Ecaron" unicode="&#x11a;" 
d="M993 0h-737v1411h731v-143h-567v-437h545v-143h-545v-545h573v-143zM947 1860l-199 -301h-225l-199 301h113l198 -192l199 192h113z" />
    <glyph glyph-name="ecaron" unicode="&#x11b;" 
d="M1049 516h-715q0 -177 102.5 -292t251.5 -115q142 0 293 51l27 -125q-138 -62 -322 -62q-232 0 -374 149t-142 402q0 248 127.5 395.5t329.5 147.5q180 0 301 -137t121 -365v-49zM879 643q0 122 -76 205.5t-170 83.5q-121 0 -200.5 -80t-88.5 -209h535zM942 1466
l-199 -301h-225l-199 301h113l198 -192l199 192h113z" />
    <glyph glyph-name="Gcircumflex" unicode="&#x11c;" 
d="M1069 100q-173 -127 -383 -127q-275 0 -417 186.5t-142 545.5q0 347 137.5 540t421.5 193q102 0 202 -26t161 -69l-54 -129q-141 80 -309 80q-194 0 -289.5 -142t-95.5 -447q0 -588 385 -588q145 0 219 61v348h-254v142h418v-568zM984 1549h-113l-198 193l-199 -193h-113
l199 301h225z" />
    <glyph glyph-name="gcircumflex" unicode="&#x11d;" 
d="M504 393q-146 -71 -146 -125q0 -29 33.5 -49t91.5 -20l351 10q125 0 194.5 -61t69.5 -173q0 -177 -158 -282t-369 -105q-173 0 -283 72.5t-110 187.5q0 125 170 211q-141 66 -141 162q0 110 182 205q-84 51 -129 132t-45 171q0 147 100 241.5t250 94.5q108 0 195 -45
l309 47v-152h-199q45 -79 45 -186q0 -142 -99 -240t-251 -98q-32 0 -61 2zM565 512q86 0 140.5 59.5t54.5 155.5q0 101 -53 158t-142 57q-83 0 -139.5 -59.5t-56.5 -155.5q0 -94 56.5 -154.5t139.5 -60.5zM571 -291q154 0 262.5 68.5t108.5 169.5q0 104 -154 104
q-51 0 -176 -6q-79 -4 -124 -4q-22 0 -68.5 -36t-71 -72.5t-24.5 -75.5q0 -61 68 -104.5t179 -43.5zM908 1165h-113l-198 193l-199 -193h-113l199 301h225z" />
    <glyph glyph-name="Gbreve" unicode="&#x11e;" 
d="M1069 100q-173 -127 -383 -127q-275 0 -417 186.5t-142 545.5q0 347 137.5 540t421.5 193q102 0 202 -26t161 -69l-54 -129q-141 80 -309 80q-194 0 -289.5 -142t-95.5 -447q0 -588 385 -588q145 0 219 61v348h-254v142h418v-568zM947 1817q-24 -129 -98.5 -197
t-188.5 -68q-242 0 -293 265h138q29 -127 157 -127q118 0 146 127h139z" />
    <glyph glyph-name="gbreve" unicode="&#x11f;" 
d="M504 393q-146 -71 -146 -125q0 -29 33.5 -49t91.5 -20l351 10q125 0 194.5 -61t69.5 -173q0 -177 -158 -282t-369 -105q-173 0 -283 72.5t-110 187.5q0 125 170 211q-141 66 -141 162q0 110 182 205q-84 51 -129 132t-45 171q0 147 100 241.5t250 94.5q108 0 195 -45
l309 47v-152h-199q45 -79 45 -186q0 -142 -99 -240t-251 -98q-32 0 -61 2zM565 512q86 0 140.5 59.5t54.5 155.5q0 101 -53 158t-142 57q-83 0 -139.5 -59.5t-56.5 -155.5q0 -94 56.5 -154.5t139.5 -60.5zM571 -291q154 0 262.5 68.5t108.5 169.5q0 104 -154 104
q-51 0 -176 -6q-79 -4 -124 -4q-22 0 -68.5 -36t-71 -72.5t-24.5 -75.5q0 -61 68 -104.5t179 -43.5zM875 1430q-24 -129 -98.5 -197t-188.5 -68q-242 0 -293 265h138q29 -127 157 -127q118 0 146 127h139z" />
    <glyph glyph-name="Gdot" unicode="&#x120;" 
d="M1069 100q-173 -127 -383 -127q-275 0 -417 186.5t-142 545.5q0 347 137.5 540t421.5 193q102 0 202 -26t161 -69l-54 -129q-141 80 -309 80q-194 0 -289.5 -142t-95.5 -447q0 -588 385 -588q145 0 219 61v348h-254v142h418v-568zM658 1746q40 0 67.5 -27.5t27.5 -67.5
t-27.5 -68t-67.5 -28q-39 0 -67.5 28.5t-28.5 67.5q0 40 28 67.5t68 27.5z" />
    <glyph glyph-name="gdot" unicode="&#x121;" 
d="M504 393q-146 -71 -146 -125q0 -29 33.5 -49t91.5 -20l351 10q125 0 194.5 -61t69.5 -173q0 -177 -158 -282t-369 -105q-173 0 -283 72.5t-110 187.5q0 125 170 211q-141 66 -141 162q0 110 182 205q-84 51 -129 132t-45 171q0 147 100 241.5t250 94.5q108 0 195 -45
l309 47v-152h-199q45 -79 45 -186q0 -142 -99 -240t-251 -98q-32 0 -61 2zM565 512q86 0 140.5 59.5t54.5 155.5q0 101 -53 158t-142 57q-83 0 -139.5 -59.5t-56.5 -155.5q0 -94 56.5 -154.5t139.5 -60.5zM571 -291q154 0 262.5 68.5t108.5 169.5q0 104 -154 104
q-51 0 -176 -6q-79 -4 -124 -4q-22 0 -68.5 -36t-71 -72.5t-24.5 -75.5q0 -61 68 -104.5t179 -43.5zM570 1438q40 0 67.5 -27.5t27.5 -67.5t-27.5 -68t-67.5 -28q-39 0 -67.5 28.5t-28.5 67.5q0 40 28 67.5t68 27.5z" />
    <glyph glyph-name="Gcedilla" unicode="&#x122;" 
d="M1069 100q-173 -127 -383 -127q-275 0 -417 186.5t-142 545.5q0 347 137.5 540t421.5 193q102 0 202 -26t161 -69l-54 -129q-141 80 -309 80q-194 0 -289.5 -142t-95.5 -447q0 -588 385 -588q145 0 219 61v348h-254v142h418v-568zM647 -282q-40 5 -66 33.5t-26 65.5
q0 38 25.5 65.5t62.5 27.5q44 0 75.5 -35.5t31.5 -86.5q0 -148 -167 -234l-30 57q94 45 94 107z" />
    <glyph glyph-name="gcedilla" unicode="&#x123;" 
d="M504 393q-146 -71 -146 -125q0 -29 33.5 -50t91.5 -21l351 10q125 0 194.5 -60.5t69.5 -171.5q0 -177 -158 -282t-369 -105q-173 0 -283 72.5t-110 187.5q0 125 170 211q-141 66 -141 162q0 110 182 205q-84 51 -129 132t-45 171q0 147 100 241.5t250 94.5q108 0 195 -45
l309 47v-152h-199q45 -79 45 -186q0 -142 -99 -240t-251 -98q-32 0 -61 2zM565 512q86 0 140.5 59.5t54.5 155.5q0 101 -53 158t-142 57q-83 0 -139.5 -59.5t-56.5 -155.5q0 -94 56.5 -154.5t139.5 -60.5zM571 -291q154 0 262.5 68.5t108.5 169.5q0 104 -154 104
q-51 0 -176 -6q-79 -4 -124 -4q-22 0 -68.5 -36t-71 -72.5t-24.5 -75.5q0 -61 68 -104.5t179 -43.5zM682 1524q-104 -50 -104 -119q44 -6 73 -38t29 -73q0 -42 -28.5 -72t-69.5 -30q-49 0 -84 39.5t-35 95.5q0 164 186 260z" />
    <glyph glyph-name="Hcircumflex" unicode="&#x124;" 
d="M1020 0h-164v700h-483v-700h-164v1411h164v-567h483v567h164v-1411zM928 1553h-113l-198 193l-199 -193h-113l199 301h225z" />
    <glyph glyph-name="hcircumflex" unicode="&#x125;" 
d="M1018 0h-156v668q0 139 -44.5 201.5t-139.5 62.5q-143 0 -307 -178v-754h-156v1411h156v-522q168 178 354 178q293 0 293 -354v-713zM936 1553h-113l-198 193l-199 -193h-113l199 301h225z" />
    <glyph glyph-name="Hbar" unicode="&#x126;" 
d="M1161 1044h-141v-1044h-164v700h-483v-700h-164v1044h-146v144h146v223h164v-223h483v223h164v-223h141v-144zM856 844v200h-483v-200h483z" />
    <glyph glyph-name="hbar" unicode="&#x127;" 
d="M1018 0h-156v668q0 139 -44.5 201.5t-139.5 62.5q-143 0 -307 -178v-754h-156v1155h-164v123h164v133h156v-133h221v-123h-221v-266q168 178 354 178q293 0 293 -354v-713z" />
    <glyph glyph-name="Itilde" unicode="&#x128;" 
d="M928 0h-641v143h243v1125h-243v143h641v-143h-234v-1125h234v-143zM949 1782q-34 -230 -192 -230q-56 0 -174 57q-101 48 -142 48q-39 0 -68 -30t-36 -75h-84q34 230 192 230q56 0 174 -57q101 -48 142 -48q39 0 68 30t36 75h84z" />
    <glyph glyph-name="itilde" unicode="&#x129;" 
d="M758 0h-156v907h-307v135h463v-1042zM905 1430q-34 -230 -192 -230q-56 0 -174 57q-101 48 -142 48q-39 0 -68 -30t-36 -75h-84q34 230 192 230q56 0 174 -57q101 -48 142 -48q39 0 68 30t36 75h84z" />
    <glyph glyph-name="Imacron" unicode="&#x12a;" 
d="M928 0h-641v143h243v1125h-243v143h641v-143h-234v-1125h234v-143zM946 1554h-678v129h678v-129z" />
    <glyph glyph-name="imacron" unicode="&#x12b;" 
d="M758 0h-156v907h-307v135h463v-1042zM946 1222h-678v129h678v-129z" />
    <glyph glyph-name="Ibreve" unicode="&#x12c;" 
d="M928 0h-641v143h243v1125h-243v143h641v-143h-234v-1125h234v-143zM899 1818q-24 -129 -98.5 -197t-188.5 -68q-242 0 -293 265h138q29 -127 157 -127q118 0 146 127h139z" />
    <glyph glyph-name="ibreve" unicode="&#x12d;" 
d="M758 0h-156v907h-307v135h463v-1042zM939 1430q-24 -129 -98.5 -197t-188.5 -68q-242 0 -293 265h138q29 -127 157 -127q118 0 146 127h139z" />
    <glyph glyph-name="Iogonek" unicode="&#x12e;" 
d="M809 -334q-73 -33 -150 -33q-91 0 -148.5 51.5t-57.5 133.5q0 90 90 182h-256v143h243v1125h-243v143h641v-143h-234v-1125h234v-143h-283q-72 -89 -72 -141q0 -127 123 -127q33 0 113 22v-88z" />
    <glyph glyph-name="iogonek" unicode="&#x12f;" 
d="M868 -334q-72 -33 -149 -33q-92 0 -149.5 51.5t-57.5 133.5q0 90 90 182v907h-307v135h463v-1042h-53q-72 -89 -72 -141q0 -127 123 -127q33 0 112 22v-88zM682 1436q44 0 75 -31.5t31 -75.5q0 -46 -30.5 -77t-75.5 -31q-41 0 -72.5 32.5t-31.5 75.5t31.5 75t72.5 32z
" />
    <glyph glyph-name="Idotaccent" unicode="&#x130;" 
d="M928 0h-641v143h243v1125h-243v143h641v-143h-234v-1125h234v-143zM614 1743q40 0 67.5 -27.5t27.5 -67.5t-27.5 -68t-67.5 -28q-39 0 -67.5 28.5t-28.5 67.5q0 40 28 67.5t68 27.5z" />
    <glyph glyph-name="IJ" unicode="&#x132;" 
d="M518 0h-436v143h141v1125h-141v143h436v-143h-131v-1125h131v-143zM1096 375q0 -402 -318 -402q-94 0 -198 52l49 131q88 -39 149 -39q84 0 119 64t35 206v1024h164v-1036z" />
    <glyph glyph-name="ij" unicode="&#x133;" 
d="M360 1436q45 0 76 -31.5t31 -75.5q0 -46 -31 -77t-76 -31q-41 0 -72.5 32.5t-31.5 75.5t31.5 75t72.5 32zM922 1436q44 0 75 -31.5t31 -75.5q0 -46 -31 -77t-75 -31q-42 0 -73.5 32.5t-31.5 75.5t31.5 75t73.5 32zM436 0h-155v907h-226v135h381v-1042zM997 -53
q0 -196 -67 -277.5t-236 -81.5q-89 0 -198 39l41 125q99 -28 157 -28q85 0 116.5 47.5t31.5 191.5v944h-226v135h381v-1095z" />
    <glyph glyph-name="Jcircumflex" unicode="&#x134;" 
d="M866 375q0 -194 -101.5 -298t-297.5 -104q-171 0 -311 72l49 131q119 -59 262 -59q124 0 179.5 65.5t55.5 204.5v1024h164v-1036zM908 1553h-113l-198 193l-199 -193h-113l199 301h225z" />
    <glyph glyph-name="jcircumflex" unicode="&#x135;" 
d="M891 1165h-113l-198 193l-199 -193h-113l199 301h225zM758 -53q0 -196 -67.5 -277.5t-235.5 -81.5q-108 0 -240 41l41 127q111 -32 199 -32q84 0 115.5 47.5t31.5 191.5v944h-307v135h463v-1095z" />
    <glyph glyph-name="Kcedilla" unicode="&#x136;" 
d="M1206 0h-207l-477 692l-149 -162v-530h-164v1411h164v-676l626 676h189l-551 -596zM671 -282q-40 5 -66 33.5t-26 65.5q0 38 25.5 65.5t62.5 27.5q44 0 75.5 -35.5t31.5 -86.5q0 -148 -167 -234l-30 57q94 45 94 107z" />
    <glyph glyph-name="kcedilla" unicode="&#x137;" 
d="M1120 0h-205l-442 518l-102 -88v-430h-156v1411h156v-809l489 440h199l-475 -426zM631 -282q-40 5 -66 33.5t-26 65.5q0 38 25.5 65.5t62.5 27.5q44 0 75.5 -35.5t31.5 -86.5q0 -148 -167 -234l-30 57q94 45 94 107z" />
    <glyph glyph-name="kgreenlandic" unicode="&#x138;" 
d="M1094 0h-193l-395 508l-135 -143v-365h-156v1042h156v-491l337 366q69 73 129 106.5t146 33.5h18v-131h-24q-45 0 -93.5 -29.5t-279.5 -284.5z" />
    <glyph glyph-name="Lacute" unicode="&#x139;" 
d="M1024 0h-768v1411h164v-1268h604v-143zM846 1851l-312 -301h-112l198 301h226z" />
    <glyph glyph-name="lacute" unicode="&#x13a;" 
d="M942 0h-426v1276h-272v135h428v-1276h270v-135zM883 1853l-312 -301h-112l198 301h226z" />
    <glyph glyph-name="Lcedilla" unicode="&#x13b;" 
d="M1024 0h-768v1411h164v-1268h604v-143zM639 -282q-40 5 -66 33.5t-26 65.5q0 38 25.5 65.5t62.5 27.5q44 0 75.5 -35.5t31.5 -86.5q0 -148 -167 -234l-30 57q94 45 94 107z" />
    <glyph glyph-name="lcedilla" unicode="&#x13c;" 
d="M942 0h-426v1276h-272v135h428v-1276h270v-135zM599 -282q-40 5 -66 33.5t-26 65.5q0 38 25.5 65.5t62.5 27.5q44 0 75.5 -35.5t31.5 -86.5q0 -148 -167 -234l-30 57q94 45 94 107z" />
    <glyph glyph-name="Lcaron" unicode="&#x13d;" 
d="M1024 0h-768v1411h164v-1268h604v-143zM897 1291q-40 5 -66 33.5t-26 65.5q0 38 25.5 65.5t62.5 27.5q44 0 75.5 -35.5t31.5 -86.5q0 -148 -167 -234l-30 57q94 45 94 107z" />
    <glyph glyph-name="lcaron" unicode="&#x13e;" 
d="M942 0h-426v1276h-272v135h428v-1276h270v-135zM997 1291q-40 5 -66 33.5t-26 65.5q0 38 25.5 65.5t62.5 27.5q44 0 75.5 -35.5t31.5 -86.5q0 -148 -167 -234l-30 57q94 45 94 107z" />
    <glyph glyph-name="Ldot" unicode="&#x13f;" 
d="M1024 0h-768v1411h164v-1268h604v-143zM722 770q40 0 67.5 -27.5t27.5 -67.5t-27.5 -68t-67.5 -28q-39 0 -67.5 28.5t-28.5 67.5q0 40 28 67.5t68 27.5z" />
    <glyph glyph-name="ldot" unicode="&#x140;" 
d="M942 0h-426v1276h-272v135h428v-1276h270v-135zM946 774q40 0 67.5 -27.5t27.5 -67.5t-27.5 -68t-67.5 -28q-39 0 -67.5 28.5t-28.5 67.5q0 40 28 67.5t68 27.5z" />
    <glyph glyph-name="Nacute" unicode="&#x143;" 
d="M1040 0h-182l-506 1114v-1114h-164v1411h183l508 -1104v1104h161v-1411zM883 1853l-312 -301h-112l198 301h226z" />
    <glyph glyph-name="nacute" unicode="&#x144;" 
d="M1018 0h-156v668q0 139 -44.5 201.5t-139.5 62.5q-143 0 -307 -178v-754h-156v1042h156v-153q168 178 354 178q293 0 293 -354v-713zM883 1466l-312 -301h-112l198 301h226z" />
    <glyph glyph-name="Ncedilla" unicode="&#x145;" 
d="M1040 0h-182l-506 1114v-1114h-164v1411h183l508 -1104v1104h161v-1411zM631 -282q-40 5 -66 33.5t-26 65.5q0 38 25.5 65.5t62.5 27.5q44 0 75.5 -35.5t31.5 -86.5q0 -148 -167 -234l-30 57q94 45 94 107z" />
    <glyph glyph-name="ncedilla" unicode="&#x146;" 
d="M1018 0h-156v668q0 139 -44.5 201.5t-139.5 62.5q-143 0 -307 -178v-754h-156v1042h156v-153q168 178 354 178q293 0 293 -354v-713zM619 -282q-40 5 -66 33.5t-26 65.5q0 38 25.5 65.5t62.5 27.5q44 0 75.5 -35.5t31.5 -86.5q0 -148 -167 -234l-30 57q94 45 94 107z" />
    <glyph glyph-name="Ncaron" unicode="&#x147;" 
d="M1040 0h-182l-506 1114v-1114h-164v1411h183l508 -1104v1104h161v-1411zM922 1853l-199 -301h-225l-199 301h113l198 -192l199 192h113z" />
    <glyph glyph-name="ncaron" unicode="&#x148;" 
d="M1018 0h-156v668q0 139 -44.5 201.5t-139.5 62.5q-143 0 -307 -178v-754h-156v1042h156v-153q168 178 354 178q293 0 293 -354v-713zM916 1466l-199 -301h-225l-199 301h113l198 -192l199 192h113z" />
    <glyph glyph-name="napostrophe" unicode="&#x149;" 
d="M103 1422q-40 5 -66 33.5t-26 65.5q0 38 25.5 65.5t62.5 27.5q44 0 75.5 -35.5t31.5 -86.5q0 -148 -167 -234l-30 57q94 45 94 107zM1018 0h-156v668q0 139 -44.5 201.5t-139.5 62.5q-143 0 -307 -178v-754h-156v1042h156v-153q168 178 354 178q293 0 293 -354v-713z" />
    <glyph glyph-name="Eng" unicode="&#x14a;" 
d="M1040 -53q0 -196 -66 -277.5t-235 -81.5q-107 0 -239 41l41 127q111 -32 198 -32q80 0 113 53t33 211l-539 1136v-1124h-158v1411h183l514 -1089v1089h155v-1464z" />
    <glyph glyph-name="eng" unicode="&#x14b;" 
d="M1018 -53q0 -196 -67.5 -277.5t-235.5 -81.5q-108 0 -240 41l41 127q112 -32 199 -32q84 0 115.5 47.5t31.5 191.5v705q0 139 -44.5 201.5t-139.5 62.5q-143 0 -307 -178v-754h-156v1042h156v-153q168 178 354 178q293 0 293 -354v-766z" />
    <glyph glyph-name="Omacron" unicode="&#x14c;" 
d="M612 1438q237 0 361.5 -187.5t124.5 -545.5q0 -356 -124 -544t-362 -188q-236 0 -360.5 187.5t-124.5 544.5t124 545t361 188zM612 117q312 0 312 588q0 589 -312 589q-152 0 -231.5 -152.5t-79.5 -436.5q0 -287 79 -437.5t232 -150.5zM954 1554h-678v129h678v-129z" />
    <glyph glyph-name="omacron" unicode="&#x14d;" 
d="M614 1067q215 0 342 -150t127 -395q0 -247 -127 -398t-342 -151q-216 0 -342.5 150.5t-126.5 398.5q0 246 127 395.5t342 149.5zM614 109q142 0 224 120t82 291q0 180 -81 296t-225 116q-145 0 -225 -114.5t-80 -297.5q0 -174 81 -292.5t224 -118.5zM954 1222h-678v129
h678v-129z" />
    <glyph glyph-name="Obreve" unicode="&#x14e;" 
d="M612 1438q237 0 361.5 -187.5t124.5 -545.5q0 -356 -124 -544t-362 -188q-236 0 -360.5 187.5t-124.5 544.5t124 545t361 188zM612 117q312 0 312 588q0 589 -312 589q-152 0 -231.5 -152.5t-79.5 -436.5q0 -287 79 -437.5t232 -150.5zM899 1818q-24 -129 -98.5 -197
t-188.5 -68q-242 0 -293 265h138q29 -127 157 -127q118 0 146 127h139z" />
    <glyph glyph-name="obreve" unicode="&#x14f;" 
d="M614 1067q215 0 342 -150t127 -395q0 -247 -127 -398t-342 -151q-216 0 -342.5 150.5t-126.5 398.5q0 246 127 395.5t342 149.5zM614 109q142 0 224 120t82 291q0 180 -81 296t-225 116q-145 0 -225 -114.5t-80 -297.5q0 -174 81 -292.5t224 -118.5zM899 1430
q-24 -129 -98.5 -197t-188.5 -68q-242 0 -293 265h138q29 -127 157 -127q118 0 146 127h139z" />
    <glyph glyph-name="Odblacute" unicode="&#x150;" 
d="M612 1438q237 0 361.5 -187.5t124.5 -545.5q0 -356 -124 -544t-362 -188q-236 0 -360.5 187.5t-124.5 544.5t124 545t361 188zM612 117q312 0 312 588q0 589 -312 589q-152 0 -231.5 -152.5t-79.5 -436.5q0 -287 79 -437.5t232 -150.5zM1007 1853l-229 -301h-113l138 301
h204zM680 1853l-230 -301h-112l137 301h205z" />
    <glyph glyph-name="odblacute" unicode="&#x151;" 
d="M614 1067q215 0 342 -150t127 -395q0 -247 -127 -398t-342 -151q-216 0 -342.5 150.5t-126.5 398.5q0 246 127 395.5t342 149.5zM614 109q142 0 224 120t82 291q0 180 -81 296t-225 116q-145 0 -225 -114.5t-80 -297.5q0 -174 81 -292.5t224 -118.5zM1007 1466l-229 -301
h-113l138 301h204zM680 1466l-230 -301h-112l137 301h205z" />
    <glyph glyph-name="Racute" unicode="&#x154;" 
d="M1174 0h-205l-414 641h-182v-641h-164v1411h399q201 0 317.5 -97.5t116.5 -271.5q0 -129 -85 -229.5t-234 -136.5zM373 784h207q130 0 211 70.5t81 177.5q0 236 -288 236h-211v-484zM842 1853l-312 -301h-112l198 301h226z" />
    <glyph glyph-name="racute" unicode="&#x155;" 
d="M1034 1014l-63 -150q-103 45 -178 45q-69 0 -135 -39.5t-121.5 -113t-55.5 -82.5v-674h-155v1042h155v-211q125 236 324 236q118 0 229 -53zM903 1466l-312 -301h-112l198 301h226z" />
    <glyph glyph-name="Rcedilla" unicode="&#x156;" 
d="M1174 0h-205l-414 641h-182v-641h-164v1411h399q201 0 317.5 -97.5t116.5 -271.5q0 -129 -85 -229.5t-234 -136.5zM373 784h207q130 0 211 70.5t81 177.5q0 236 -288 236h-211v-484zM627 -282q-40 5 -66 33.5t-26 65.5q0 38 25.5 65.5t62.5 27.5q44 0 75.5 -35.5
t31.5 -86.5q0 -148 -167 -234l-30 57q94 45 94 107z" />
    <glyph glyph-name="rcedilla" unicode="&#x157;" 
d="M1034 1014l-63 -150q-103 45 -178 45q-69 0 -135 -39.5t-121.5 -113t-55.5 -82.5v-674h-155v1042h155v-211q125 236 324 236q118 0 229 -53zM671 -282q-40 5 -66 33.5t-26 65.5q0 38 25.5 65.5t62.5 27.5q44 0 75.5 -35.5t31.5 -86.5q0 -148 -167 -234l-30 57
q94 45 94 107z" />
    <glyph glyph-name="Rcaron" unicode="&#x158;" 
d="M1174 0h-205l-414 641h-182v-641h-164v1411h399q201 0 317.5 -97.5t116.5 -271.5q0 -129 -85 -229.5t-234 -136.5zM373 784h207q130 0 211 70.5t81 177.5q0 236 -288 236h-211v-484zM891 1853l-199 -301h-225l-199 301h113l198 -192l199 192h113z" />
    <glyph glyph-name="rcaron" unicode="&#x159;" 
d="M1034 1014l-63 -150q-103 45 -178 45q-69 0 -135 -39.5t-121.5 -113t-55.5 -82.5v-674h-155v1042h155v-211q125 236 324 236q118 0 229 -53zM969 1466l-199 -301h-225l-199 301h113l198 -192l199 192h113z" />
    <glyph glyph-name="Sacute" unicode="&#x15a;" 
d="M915 1255q-126 43 -239 43q-128 0 -208.5 -58.5t-80.5 -166.5q0 -128 211 -225q156 -72 206.5 -100t102.5 -77t83.5 -115.5t31.5 -149.5q0 -206 -138.5 -319.5t-326.5 -113.5q-182 0 -319 72l34 141q161 -73 281 -73q140 0 224.5 72.5t84.5 199.5q0 94 -55 159.5
t-203 133.5q-152 70 -196.5 95.5t-88.5 70.5t-68 101t-24 122q0 175 126 273t319 98q141 0 280 -43zM897 1853l-312 -301h-112l198 301h226z" />
    <glyph glyph-name="sacute" unicode="&#x15b;" 
d="M909 893q-131 43 -247 43q-127 0 -201 -42.5t-74 -113.5q0 -45 34 -78.5t136 -62.5l149 -43q103 -29 168 -69.5t97.5 -98t32.5 -133.5q0 -149 -125 -235.5t-318 -86.5q-192 0 -317 58l30 135q131 -62 281 -62q130 0 211.5 48.5t81.5 128.5q0 54 -40.5 96.5t-190.5 88.5
q-121 37 -178 55.5t-106 54.5t-74.5 86t-25.5 112q0 135 118 214t313 79q126 0 280 -43zM883 1466l-312 -301h-112l198 301h226z" />
    <glyph glyph-name="Scircumflex" unicode="&#x15c;" 
d="M915 1255q-126 43 -239 43q-128 0 -208.5 -58.5t-80.5 -166.5q0 -128 211 -225q156 -72 206.5 -100t102.5 -77t83.5 -115.5t31.5 -149.5q0 -206 -138.5 -319.5t-326.5 -113.5q-182 0 -319 72l34 141q161 -73 281 -73q140 0 224.5 72.5t84.5 199.5q0 94 -55 159.5
t-203 133.5q-152 70 -196.5 95.5t-88.5 70.5t-68 101t-24 122q0 175 126 273t319 98q141 0 280 -43zM932 1553h-113l-198 193l-199 -193h-113l199 301h225z" />
    <glyph glyph-name="scircumflex" unicode="&#x15d;" 
d="M909 893q-131 43 -247 43q-127 0 -201 -42.5t-74 -113.5q0 -45 34 -78.5t136 -62.5l149 -43q103 -29 168 -69.5t97.5 -98t32.5 -133.5q0 -149 -125 -235.5t-318 -86.5q-192 0 -317 58l30 135q131 -62 281 -62q130 0 211.5 48.5t81.5 128.5q0 54 -40.5 96.5t-190.5 88.5
q-121 37 -178 55.5t-106 54.5t-74.5 86t-25.5 112q0 135 118 214t313 79q126 0 280 -43zM932 1165h-113l-198 193l-199 -193h-113l199 301h225z" />
    <glyph glyph-name="Scedilla" unicode="&#x15e;" 
d="M915 1255q-126 43 -239 43q-128 0 -208.5 -58.5t-80.5 -166.5q0 -128 211 -225q156 -72 206.5 -100t102.5 -77t83.5 -115.5t31.5 -149.5q0 -206 -138.5 -319.5t-326.5 -113.5q-182 0 -319 72l34 141q161 -73 281 -73q140 0 224.5 72.5t84.5 199.5q0 94 -55 159.5
t-203 133.5q-152 70 -196.5 95.5t-88.5 70.5t-68 101t-24 122q0 175 126 273t319 98q141 0 280 -43zM620 -282q-40 5 -66 33.5t-26 65.5q0 38 25.5 65.5t62.5 27.5q44 0 75.5 -35.5t31.5 -86.5q0 -148 -167 -234l-30 57q94 45 94 107z" />
    <glyph glyph-name="scedilla" unicode="&#x15f;" 
d="M909 893q-131 43 -247 43q-127 0 -201 -42.5t-74 -113.5q0 -45 34 -78.5t136 -62.5l149 -43q103 -29 168 -69.5t97.5 -98t32.5 -133.5q0 -149 -125 -235.5t-318 -86.5q-192 0 -317 58l30 135q131 -62 281 -62q130 0 211.5 48.5t81.5 128.5q0 54 -40.5 96.5t-190.5 88.5
q-121 37 -178 55.5t-106 54.5t-74.5 86t-25.5 112q0 135 118 214t313 79q126 0 280 -43zM620 -282q-40 5 -66 33.5t-26 65.5q0 38 25.5 65.5t62.5 27.5q44 0 75.5 -35.5t31.5 -86.5q0 -148 -167 -234l-30 57q94 45 94 107z" />
    <glyph glyph-name="Tcedilla" unicode="&#x162;" 
d="M1133 1278h-435v-1278h-163v1278h-437v133h1035v-133zM612 -282q-40 5 -66 33.5t-26 65.5q0 38 25.5 65.5t62.5 27.5q44 0 75.5 -35.5t31.5 -86.5q0 -148 -167 -234l-30 57q94 45 94 107z" />
    <glyph glyph-name="tcedilla" unicode="&#x163;" 
d="M1028 47q-157 -72 -309 -72q-279 0 -279 295v637h-200v135h200v285h152v-285h354v-135h-354v-596q0 -95 42 -147.5t114 -52.5q128 0 253 57zM682 -282q-40 5 -66 33.5t-26 65.5q0 38 25.5 65.5t62.5 27.5q44 0 75.5 -35.5t31.5 -86.5q0 -148 -167 -234l-30 57
q94 45 94 107z" />
    <glyph glyph-name="Tcaron" unicode="&#x164;" 
d="M1133 1278h-435v-1278h-163v1278h-437v133h1035v-133zM926 1853l-199 -301h-225l-199 301h113l198 -192l199 192h113z" />
    <glyph glyph-name="tcaron" unicode="&#x165;" 
d="M878 47q-157 -72 -309 -72q-279 0 -279 295v637h-200v135h200v285h152v-285h354v-135h-354v-596q0 -95 42 -147.5t114 -52.5q128 0 253 57zM1097 1291q-40 5 -66 33.5t-26 65.5q0 38 25.5 65.5t62.5 27.5q44 0 75.5 -35.5t31.5 -86.5q0 -148 -167 -234l-30 57
q94 45 94 107z" />
    <glyph glyph-name="Tbar" unicode="&#x166;" 
d="M1133 1278h-435v-385h299v-143h-299v-750h-163v750h-299v143h299v385h-437v133h1035v-133z" />
    <glyph glyph-name="tbar" unicode="&#x167;" 
d="M1028 47q-157 -72 -309 -72q-279 0 -279 295v287h-188v123h188v227h-200v135h200v285h152v-285h354v-135h-354v-227h336v-123h-336v-246q0 -95 42 -147.5t114 -52.5q128 0 253 57z" />
    <glyph glyph-name="Utilde" unicode="&#x168;" 
d="M1020 444q0 -245 -99.5 -358t-302.5 -113q-409 0 -409 467v971h164v-956q0 -338 245 -338q123 0 180.5 80t57.5 260v954h164v-967zM969 1782q-34 -230 -192 -230q-56 0 -174 57q-101 48 -142 48q-39 0 -68 -30t-36 -75h-84q34 230 192 230q56 0 174 -57q101 -48 142 -48
q39 0 68 30t36 75h84z" />
    <glyph glyph-name="utilde" unicode="&#x169;" 
d="M1016 0h-156v154q-168 -179 -354 -179q-293 0 -293 355v712h156v-667q0 -133 42 -198.5t142 -65.5q143 0 307 178v753h156v-1042zM969 1430q-34 -230 -192 -230q-56 0 -174 57q-101 48 -142 48q-39 0 -68 -30t-36 -75h-84q34 230 192 230q56 0 174 -57q101 -48 142 -48
q39 0 68 30t36 75h84z" />
    <glyph glyph-name="Umacron" unicode="&#x16a;" 
d="M1020 444q0 -245 -99.5 -358t-302.5 -113q-409 0 -409 467v971h164v-956q0 -338 245 -338q123 0 180.5 80t57.5 260v954h164v-967zM954 1554h-678v129h678v-129z" />
    <glyph glyph-name="umacron" unicode="&#x16b;" 
d="M1016 0h-156v154q-168 -179 -354 -179q-293 0 -293 355v712h156v-667q0 -133 42 -198.5t142 -65.5q143 0 307 178v753h156v-1042zM954 1222h-678v129h678v-129z" />
    <glyph glyph-name="Ubreve" unicode="&#x16c;" 
d="M1020 444q0 -245 -99.5 -358t-302.5 -113q-409 0 -409 467v971h164v-956q0 -338 245 -338q123 0 180.5 80t57.5 260v954h164v-967zM899 1818q-24 -129 -98.5 -197t-188.5 -68q-242 0 -293 265h138q29 -127 157 -127q118 0 146 127h139z" />
    <glyph glyph-name="ubreve" unicode="&#x16d;" 
d="M1016 0h-156v154q-168 -179 -354 -179q-293 0 -293 355v712h156v-667q0 -133 42 -198.5t142 -65.5q143 0 307 178v753h156v-1042zM899 1430q-24 -129 -98.5 -197t-188.5 -68q-242 0 -293 265h138q29 -127 157 -127q118 0 146 127h139z" />
    <glyph glyph-name="Uring" unicode="&#x16e;" 
d="M1020 444q0 -245 -99.5 -358t-302.5 -113q-409 0 -409 467v971h164v-956q0 -338 245 -338q123 0 180.5 80t57.5 260v954h164v-967zM614 1933q78 0 134.5 -56.5t56.5 -133.5q0 -78 -56.5 -134.5t-134.5 -56.5t-134 56.5t-56 134.5q0 77 56 133.5t134 56.5zM614 1630
q46 0 79.5 33.5t33.5 79.5q0 45 -33.5 78.5t-79.5 33.5q-45 0 -78.5 -33.5t-33.5 -78.5q0 -47 33 -80t79 -33z" />
    <glyph glyph-name="uring" unicode="&#x16f;" 
d="M1016 0h-156v154q-168 -179 -354 -179q-293 0 -293 355v712h156v-667q0 -133 42 -198.5t142 -65.5q143 0 307 178v753h156v-1042zM614 1536q78 0 134.5 -56.5t56.5 -133.5q0 -78 -56.5 -134.5t-134.5 -56.5t-134 56.5t-56 134.5q0 77 56 133.5t134 56.5zM614 1233
q46 0 79.5 33.5t33.5 79.5q0 45 -33.5 78.5t-79.5 33.5q-45 0 -78.5 -33.5t-33.5 -78.5q0 -47 33 -80t79 -33z" />
    <glyph glyph-name="Udblacute" unicode="&#x170;" 
d="M1020 444q0 -245 -99.5 -358t-302.5 -113q-409 0 -409 467v971h164v-956q0 -338 245 -338q123 0 180.5 80t57.5 260v954h164v-967zM993 1853l-229 -301h-113l138 301h204zM666 1853l-230 -301h-112l137 301h205z" />
    <glyph glyph-name="udblacute" unicode="&#x171;" 
d="M1016 0h-156v154q-168 -179 -354 -179q-293 0 -293 355v712h156v-667q0 -133 42 -198.5t142 -65.5q143 0 307 178v753h156v-1042zM993 1466l-229 -301h-113l138 301h204zM666 1466l-230 -301h-112l137 301h205z" />
    <glyph glyph-name="Uogonek" unicode="&#x172;" 
d="M829 -334q-72 -33 -149 -33q-91 0 -149 51.5t-58 133.5t70 159q-334 41 -334 463v971h164v-956q0 -338 245 -338q123 0 180.5 80t57.5 260v954h164v-967q0 -237 -94 -350t-281 -121q-51 -71 -51 -114q0 -127 123 -127q33 0 112 22v-88z" />
    <glyph glyph-name="uogonek" unicode="&#x173;" 
d="M1126 -334q-72 -33 -149 -33q-92 0 -149.5 51.5t-57.5 133.5q0 90 90 182v154q-168 -179 -354 -179q-293 0 -293 355v712h156v-667q0 -133 42 -198.5t142 -65.5q143 0 307 178v753h156v-1042h-53q-72 -89 -72 -141q0 -127 123 -127q33 0 112 22v-88z" />
    <glyph glyph-name="Wcircumflex" unicode="&#x174;" 
d="M1186 1411l-180 -1411h-152l-240 795l-239 -795h-156l-176 1411h162l119 -1147l208 694h164l209 -696l121 1149h160zM932 1553h-113l-198 193l-199 -193h-113l199 301h225z" />
    <glyph glyph-name="wcircumflex" unicode="&#x175;" 
d="M1141 1042l-150 -1042h-119l-245 590l-246 -590h-119l-147 1042h155q83 -730 86 -766l191 453h160l190 -450l84 763h160zM932 1165h-113l-198 193l-199 -193h-113l199 301h225z" />
    <glyph glyph-name="Ycircumflex" unicode="&#x176;" 
d="M1139 1411l-441 -807v-604h-163v604l-441 807h185l337 -635l338 635h185zM932 1553h-113l-198 193l-199 -193h-113l199 301h225z" />
    <glyph glyph-name="ycircumflex" unicode="&#x177;" 
d="M1065 1042l-395 -1042q-86 -230 -170.5 -321t-192.5 -91q-96 0 -190 35l26 125q76 -24 136 -24q84 0 138 65t109 213l-391 1040h170l295 -831l295 831h170zM932 1165h-113l-198 193l-199 -193h-113l199 301h225z" />
    <glyph glyph-name="Zacute" unicode="&#x179;" 
d="M1040 1294l-671 -1151h659v-143h-846v115l668 1153h-639v143h829v-117zM883 1853l-312 -301h-112l198 301h226z" />
    <glyph glyph-name="zacute" unicode="&#x17a;" 
d="M1004 0h-801v84l594 821h-580v137h787v-77l-594 -828h594v-137zM862 1466l-312 -301h-112l198 301h226z" />
    <glyph glyph-name="Zdot" unicode="&#x17b;" 
d="M1040 1294l-671 -1151h659v-143h-846v115l668 1153h-639v143h829v-117zM614 1743q40 0 67.5 -27.5t27.5 -67.5t-27.5 -68t-67.5 -28q-39 0 -67.5 28.5t-28.5 67.5q0 40 28 67.5t68 27.5z" />
    <glyph glyph-name="zdot" unicode="&#x17c;" 
d="M1004 0h-801v84l594 821h-580v137h787v-77l-594 -828h594v-137zM614 1438q40 0 67.5 -27.5t27.5 -67.5t-27.5 -68t-67.5 -28q-39 0 -67.5 28.5t-28.5 67.5q0 40 28 67.5t68 27.5z" />
    <glyph glyph-name="longs" unicode="&#x17f;" 
d="M1028 1395l-41 -127q-111 32 -199 32q-84 0 -115.5 -47.5t-31.5 -191.5v-1061h-156v907h-123v135h123v35q0 199 68 279t235 80q108 0 240 -41z" />
    <glyph glyph-name="questiongreek" unicode="&#x37e;" 
d="M614 1057q51 0 86 -34.5t35 -84.5q0 -51 -35 -85t-86 -34q-50 0 -84 34.5t-34 84.5t34 84.5t84 34.5zM616 -27q-52 6 -86 43t-34 84q0 51 33 86t83 35q56 0 97 -45.5t41 -109.5q0 -196 -218 -306l-38 72q122 60 122 141z" />
    <glyph glyph-name="tonos" unicode="&#x384;" 
d="M713 1495l-56 -301h-86l-55 301h197z" />
    <glyph glyph-name="dieresistonos" unicode="&#x385;" 
d="M713 1655l-56 -301h-86l-55 301h197zM387 1407q46 0 76.5 -30.5t30.5 -78.5q0 -44 -31 -76t-76 -32q-44 0 -76 32.5t-32 75.5q0 47 31.5 78t76.5 31zM844 1407q45 0 74.5 -31t29.5 -78q0 -43 -30.5 -75.5t-73.5 -32.5q-45 0 -77 32.5t-32 75.5q0 47 31 78t78 31z" />
    <glyph glyph-name="Alphatonos" unicode="&#x386;" 
d="M1176 0h-172l-156 494h-463l-158 -494h-170l461 1411h197zM801 637l-185 584l-184 -584h369zM329 1411l-56 -301h-86l-55 301h197z" />
    <glyph glyph-name="anoteleia" unicode="&#x387;" 
d="M608 803q53 0 89 -36t36 -89q0 -54 -36.5 -92.5t-88.5 -38.5q-51 0 -87 38.5t-36 92.5q0 53 35.5 89t87.5 36z" />
    <glyph glyph-name="Epsilontonos" unicode="&#x388;" 
d="M993 0h-737v1411h731v-143h-567v-437h545v-143h-545v-545h573v-143zM229 1411l-56 -301h-86l-55 301h197z" />
    <glyph glyph-name="Etatonos" unicode="&#x389;" 
d="M1020 0h-164v700h-483v-700h-164v1411h164v-567h483v567h164v-1411zM197 1411l-56 -301h-86l-55 301h197z" />
    <glyph glyph-name="Iotatonos" unicode="&#x38a;" 
d="M928 0h-641v143h243v1125h-243v143h641v-143h-234v-1125h234v-143zM233 1411l-56 -301h-86l-55 301h197z" />
    <glyph glyph-name="Omicrontonos" unicode="&#x38c;" 
d="M612 1438q237 0 361.5 -187.5t124.5 -545.5q0 -356 -124 -544t-362 -188q-236 0 -360.5 187.5t-124.5 544.5t124 545t361 188zM612 117q312 0 312 588q0 589 -312 589q-152 0 -231.5 -152.5t-79.5 -436.5q0 -287 79 -437.5t232 -150.5zM197 1411l-56 -301h-86l-55 301
h197z" />
    <glyph glyph-name="Upsilontonos" unicode="&#x38e;" 
d="M1229 1411l-441 -807v-604h-163v604l-441 807h185l337 -635l338 635h185zM197 1411l-56 -301h-86l-55 301h197z" />
    <glyph glyph-name="Omegatonos" unicode="&#x38f;" 
d="M365 133q-94 65 -166 230.5t-72 363.5q0 325 128 518t357 193q226 0 356 -190.5t130 -520.5q0 -196 -71.5 -361.5t-164.5 -232.5h209v-133h-381v131q109 48 176.5 212t67.5 384q0 273 -85 425.5t-237 152.5t-236.5 -152t-84.5 -426q0 -212 72.5 -381t183.5 -215v-131
h-393v133h211zM197 1411l-56 -301h-86l-55 301h197z" />
    <glyph glyph-name="iotadieresistonos" unicode="&#x390;" 
d="M967 47q-153 -72 -265 -72q-266 0 -266 295v772h156v-731q0 -200 139 -200q76 0 209 55zM621 1655l-56 -301h-86l-55 301h197zM295 1407q46 0 76.5 -30.5t30.5 -78.5q0 -44 -31 -76t-76 -32q-44 0 -76 32.5t-32 75.5q0 47 31.5 78t76.5 31zM752 1407q45 0 74.5 -31
t29.5 -78q0 -43 -30.5 -75.5t-73.5 -32.5q-45 0 -77 32.5t-32 75.5q0 47 31 78t78 31z" />
    <glyph glyph-name="Alpha" unicode="&#x391;" 
d="M1176 0h-172l-156 494h-463l-158 -494h-170l461 1411h197zM801 637l-185 584l-184 -584h369z" />
    <glyph glyph-name="Beta" unicode="&#x392;" 
d="M784 774q141 -33 221 -128t80 -226q0 -192 -139.5 -306t-335.5 -114h-401v1411h391q204 0 319 -89.5t115 -252.5q0 -100 -66.5 -178t-183.5 -113v-4zM373 850h192q301 0 301 215q0 98 -74 150.5t-217 52.5h-202v-418zM373 143h186q163 0 258.5 74t95.5 203q0 137 -94 212
t-272 75h-174v-564z" />
    <glyph glyph-name="Gamma" unicode="&#x393;" 
d="M1024 1268h-604v-1268h-164v1411h768v-143z" />
    <glyph glyph-name="Delta" unicode="&#x394;" 
d="M1176 0h-1119l461 1411h197zM958 143l-342 1078l-344 -1078h686z" />
    <glyph glyph-name="Epsilon" unicode="&#x395;" 
d="M993 0h-737v1411h731v-143h-567v-437h545v-143h-545v-545h573v-143z" />
    <glyph glyph-name="Zeta" unicode="&#x396;" 
d="M1040 1294l-671 -1151h659v-143h-846v115l668 1153h-639v143h829v-117z" />
    <glyph glyph-name="Eta" unicode="&#x397;" 
d="M1020 0h-164v700h-483v-700h-164v1411h164v-567h483v567h164v-1411z" />
    <glyph glyph-name="Theta" unicode="&#x398;" 
d="M612 1438q237 0 361.5 -187.5t124.5 -545.5q0 -356 -124 -544t-362 -188q-236 0 -360.5 187.5t-124.5 544.5t124 545t361 188zM612 117q312 0 312 588q0 589 -312 589q-152 0 -231.5 -152.5t-79.5 -436.5q0 -287 79 -437.5t232 -150.5zM795 637h-361v143h361v-143z" />
    <glyph glyph-name="Iota" unicode="&#x399;" 
d="M928 0h-641v143h243v1125h-243v143h641v-143h-234v-1125h234v-143z" />
    <glyph glyph-name="Kappa" unicode="&#x39a;" 
d="M1206 0h-207l-477 692l-149 -162v-530h-164v1411h164v-676l626 676h189l-551 -596z" />
    <glyph glyph-name="Lambda" unicode="&#x39b;" 
d="M1171 0h-170l-389 1221l-387 -1221h-172l461 1411h197z" />
    <glyph glyph-name="Mu" unicode="&#x39c;" 
d="M1069 0h-158v1210l-213 -579h-155l-213 579v-1210h-158v1411h213l236 -643l235 643h213v-1411z" />
    <glyph glyph-name="Nu" unicode="&#x39d;" 
d="M1040 0h-182l-506 1114v-1114h-164v1411h183l508 -1104v1104h161v-1411z" />
    <glyph glyph-name="Xi" unicode="&#x39e;" 
d="M987 1268h-745v143h745v-143zM903 688h-577v143h577v-143zM1024 0h-819v143h819v-143z" />
    <glyph glyph-name="Omicron" unicode="&#x39f;" 
d="M612 1438q237 0 361.5 -187.5t124.5 -545.5q0 -356 -124 -544t-362 -188q-236 0 -360.5 187.5t-124.5 544.5t124 545t361 188zM612 117q312 0 312 588q0 589 -312 589q-152 0 -231.5 -152.5t-79.5 -436.5q0 -287 79 -437.5t232 -150.5z" />
    <glyph glyph-name="Pi" unicode="&#x3a0;" 
d="M1020 0h-164v1268h-483v-1268h-164v1411h811v-1411z" />
    <glyph glyph-name="Rho" unicode="&#x3a1;" 
d="M256 1411h358q203 0 325 -102t122 -281q0 -180 -121.5 -287.5t-318.5 -107.5h-201v-633h-164v1411zM420 776h178q289 0 289 242q0 112 -78.5 181t-202.5 69h-186v-492z" />
    <glyph glyph-name="Sigma" unicode="&#x3a3;" 
d="M1047 0h-879v119l457 622l-432 545v125h815v-143h-623l412 -518l-447 -607h697v-143z" />
    <glyph glyph-name="Tau" unicode="&#x3a4;" 
d="M1133 1278h-435v-1278h-163v1278h-437v133h1035v-133z" />
    <glyph glyph-name="Upsilon" unicode="&#x3a5;" 
d="M1139 1411l-441 -807v-604h-163v604l-441 807h185l337 -635l338 635h185z" />
    <glyph glyph-name="Phi" unicode="&#x3a6;" 
d="M696 1249q231 -24 354.5 -170.5t123.5 -353.5q0 -204 -123.5 -350t-354.5 -170v-205h-164v205q-232 21 -354.5 165t-122.5 355q0 210 123 356.5t354 167.5v162h164v-162zM532 336v778q-305 -29 -305 -389q0 -194 78 -284.5t227 -104.5zM696 338q305 38 305 387
q0 156 -76.5 262.5t-228.5 126.5v-776z" />
    <glyph glyph-name="Chi" unicode="&#x3a7;" 
d="M1163 0h-182l-358 578l-355 -578h-182l451 719l-449 692h188l347 -559l350 559h180l-442 -692z" />
    <glyph glyph-name="Psi" unicode="&#x3a8;" 
d="M1219 1286h-9q-50 0 -72.5 -27.5t-30.5 -81.5t-22 -221q-30 -376 -391 -376v-580h-164v580q-356 0 -387 376q-13 167 -22 221t-31.5 81.5t-71.5 27.5h-8v129h15q86 0 135.5 -16t78 -59.5t39 -110t21.5 -238.5q8 -145 60.5 -211.5t170.5 -66.5v698h164v-698
q63 0 108.5 18.5t75.5 63t39.5 98.5t18.5 199q11 181 55 252t213 71h15v-129z" />
    <glyph glyph-name="Omega" unicode="&#x3a9;" 
d="M365 133q-94 65 -166 230.5t-72 363.5q0 325 128 518t357 193q226 0 356 -190.5t130 -520.5q0 -196 -71.5 -361.5t-164.5 -232.5h209v-133h-381v131q109 48 176.5 212t67.5 384q0 273 -85 425.5t-237 152.5t-236.5 -152t-84.5 -426q0 -212 72.5 -381t183.5 -215v-131
h-393v133h211z" />
    <glyph glyph-name="Iotadieresis" unicode="&#x3aa;" 
d="M928 0h-641v143h243v1125h-243v143h641v-143h-234v-1125h234v-143zM813 1759q45 0 75 -31t30 -78q0 -43 -31 -75.5t-74 -32.5q-45 0 -76.5 32.5t-31.5 75.5q0 47 31 78t77 31zM418 1759q46 0 76 -30.5t30 -78.5q0 -44 -31 -76t-75 -32t-76.5 32.5t-32.5 75.5q0 47 32 78
t77 31z" />
    <glyph glyph-name="Upsilondieresis" unicode="&#x3ab;" 
d="M1139 1411l-441 -807v-604h-163v604l-441 807h185l337 -635l338 635h185zM813 1759q45 0 75 -31t30 -78q0 -43 -31 -75.5t-74 -32.5q-45 0 -76.5 32.5t-31.5 75.5q0 47 31 78t77 31zM418 1759q46 0 76 -30.5t30 -78.5q0 -44 -31 -76t-75 -32t-76.5 32.5t-32.5 75.5
q0 47 32 78t77 31z" />
    <glyph glyph-name="alphatonos" unicode="&#x3ac;" 
d="M1159 1042q-9 -29 -62 -163l-171 -422q90 -348 164 -457h-160q-40 57 -92 248q-118 -275 -344 -275q-155 0 -252 134.5t-97 353.5q0 268 115.5 437t298.5 169q117 0 191 -95.5t124 -301.5q113 304 134 372h151zM784 449q-53 231 -71.5 298t-61.5 126t-112 59
q-90 0 -160 -132.5t-70 -318.5q0 -160 56 -266t149 -106q142 0 270 340zM681 1495l-56 -301h-86l-55 301h197z" />
    <glyph glyph-name="epsilontonos" unicode="&#x3ad;" 
d="M1014 35q-136 -62 -299 -62q-246 0 -392.5 149.5t-146.5 397.5t147.5 397.5t387.5 149.5q157 0 299 -55l-41 -129q-142 49 -256 49q-150 0 -248 -86.5t-121 -245.5h526v-135h-528q20 -163 123 -259.5t250 -96.5q132 0 272 51zM781 1495l-56 -301h-86l-55 301h197z" />
    <glyph glyph-name="etatonos" unicode="&#x3ae;" 
d="M1018 -412h-156v1080q0 139 -44.5 201.5t-139.5 62.5q-143 0 -307 -178v-754h-156v795q0 157 -31 247h160q27 -65 27 -147v-6q168 178 354 178q293 0 293 -354v-1125zM713 1495l-56 -301h-86l-55 301h197z" />
    <glyph glyph-name="iotatonos" unicode="&#x3af;" 
d="M967 47q-153 -72 -265 -72q-266 0 -266 295v772h156v-731q0 -200 139 -200q76 0 209 55zM617 1495l-56 -301h-86l-55 301h197z" />
    <glyph glyph-name="upsilondieresistonos" unicode="&#x3b0;" 
d="M987 1042q96 -268 96 -514q0 -239 -122 -397t-328 -158q-194 0 -306 130t-112 341v598h156v-598q0 -154 67.5 -244.5t194.5 -90.5q142 0 215.5 107.5t73.5 311.5q0 246 -101 514h166zM713 1655l-56 -301h-86l-55 301h197zM387 1407q46 0 76.5 -30.5t30.5 -78.5
q0 -44 -31 -76t-76 -32q-44 0 -76 32.5t-32 75.5q0 47 31.5 78t76.5 31zM844 1407q45 0 74.5 -31t29.5 -78q0 -43 -30.5 -75.5t-73.5 -32.5q-45 0 -77 32.5t-32 75.5q0 47 31 78t78 31z" />
    <glyph glyph-name="alpha" unicode="&#x3b1;" 
d="M1159 1042q-9 -29 -62 -163l-171 -422q90 -348 164 -457h-160q-40 57 -92 248q-118 -275 -344 -275q-155 0 -252 134.5t-97 353.5q0 268 115.5 437t298.5 169q117 0 191 -95.5t124 -301.5q113 304 134 372h151zM784 449q-53 231 -71.5 298t-61.5 126t-112 59
q-90 0 -160 -132.5t-70 -318.5q0 -160 56 -266t149 -106q142 0 270 340z" />
    <glyph glyph-name="beta" unicode="&#x3b2;" 
d="M696 774q394 -69 394 -383q0 -177 -115.5 -295.5t-292.5 -118.5q-123 0 -227 37l26 129q102 -30 199 -30q111 0 184.5 76t73.5 200q0 130 -101.5 205t-355.5 104v131h8q140 0 232 74.5t92 192.5q0 207 -197 207q-245 0 -245 -318v-1397h-156v1424q0 215 109 320.5
t292 105.5q158 0 258.5 -88.5t100.5 -239.5q0 -128 -77.5 -221.5t-201.5 -112.5v-2z" />
    <glyph glyph-name="gamma" unicode="&#x3b3;" 
d="M1065 1042l-389 -1026v-428h-156v432l-385 1022h170l295 -829l295 829h170z" />
    <glyph glyph-name="delta" unicode="&#x3b4;" 
d="M915 1255q-150 48 -286 48q-115 0 -191 -35t-76 -88q0 -70 322 -248q399 -222 399 -479q0 -220 -128 -350t-341 -130q-212 0 -340.5 130t-128.5 350q0 142 89 259t239 183q-274 179 -274 291q0 113 122 182.5t306 69.5q151 0 331 -54zM602 817q-293 -126 -293 -366
q0 -139 84 -240.5t221 -101.5q138 0 222 101.5t84 240.5q0 198 -318 366z" />
    <glyph glyph-name="epsilon" unicode="&#x3b5;" 
d="M1014 35q-136 -62 -299 -62q-246 0 -392.5 149.5t-146.5 397.5t147.5 397.5t387.5 149.5q157 0 299 -55l-41 -129q-142 49 -256 49q-150 0 -248 -86.5t-121 -245.5h526v-135h-528q20 -163 123 -259.5t250 -96.5q132 0 272 51z" />
    <glyph glyph-name="zeta" unicode="&#x3b6;" 
d="M1010 1286l-302 -304q-179 -178 -257 -306.5t-78 -239.5q0 -135 92 -206.5t262 -71.5h47q162 0 233.5 -56t71.5 -180q0 -144 -107 -239t-278 -95q-79 0 -133 9v135q59 -6 121 -6q116 0 185 48.5t69 123.5q0 67 -52 96t-161 29h-51q-216 0 -339.5 108t-123.5 303
q0 117 88 255.5t274 319.5l265 259h-400v143h574v-125z" />
    <glyph glyph-name="eta" unicode="&#x3b7;" 
d="M1018 -412h-156v1080q0 139 -44.5 201.5t-139.5 62.5q-143 0 -307 -178v-754h-156v795q0 157 -31 247h160q27 -65 27 -147v-6q168 178 354 178q293 0 293 -354v-1125z" />
    <glyph glyph-name="theta" unicode="&#x3b8;" 
d="M600 1438q219 0 334 -189.5t115 -541.5q0 -342 -117 -538t-332 -196t-331.5 196t-116.5 538q0 352 115 541.5t333 189.5zM883 786q-6 254 -78.5 385.5t-204.5 131.5q-271 0 -285 -517h568zM885 657h-570q6 -267 80 -407.5t205 -140.5q132 0 206.5 140.5t78.5 407.5z" />
    <glyph glyph-name="iota" unicode="&#x3b9;" 
d="M967 47q-153 -72 -265 -72q-266 0 -266 295v772h156v-731q0 -200 139 -200q76 0 209 55z" />
    <glyph glyph-name="kappa" unicode="&#x3ba;" 
d="M1094 0h-193l-395 508l-135 -143v-365h-156v1042h156v-491l337 366q69 73 129 106.5t146 33.5h18v-131h-24q-45 0 -93.5 -29.5t-279.5 -284.5z" />
    <glyph glyph-name="lambda" unicode="&#x3bb;" 
d="M1176 129l-52 -141q-76 0 -149 39.5t-124 166.5l-206 500l-377 -694h-184l487 870q-118 287 -136 326.5t-52 73t-84 33.5q-79 0 -178 -35l-37 125q103 45 223 45q128 0 186.5 -47.5t92.5 -128.5l411 -996q56 -132 179 -137z" />
    <glyph glyph-name="mu" unicode="&#x3bc;" 
d="M1047 0h-162q-23 57 -23 117v18q-28 -74 -101.5 -117t-146.5 -43q-82 0 -147.5 35t-95.5 99v-521h-156v1454h156v-628q0 -135 66 -218t177 -83t179.5 86.5t68.5 214.5v628h156v-800q0 -143 29 -242z" />
    <glyph glyph-name="nu" unicode="&#x3bd;" 
d="M1065 1042l-395 -1042h-142l-393 1042h170l295 -829l295 829h170z" />
    <glyph glyph-name="xi" unicode="&#x3be;" 
d="M815 774q-258 -126 -345 -221t-87 -191t82.5 -150t230.5 -54h86q157 0 231 -57t74 -177q0 -145 -107 -240.5t-278 -95.5q-69 0 -131 6v138q59 -6 119 -6q108 0 182 50.5t74 121.5q0 125 -201 125h-81q-203 0 -324 91.5t-121 250.5q0 115 85.5 215.5t328.5 218.5
q-87 14 -155 81t-68 156q0 170 237 238h-270v137h571v-135h-65q-154 -36 -240 -98.5t-86 -139.5q0 -67 75.5 -110.5t182.5 -48.5v-105z" />
    <glyph glyph-name="omicron" unicode="&#x3bf;" 
d="M614 1067q215 0 342 -150t127 -395q0 -247 -127 -398t-342 -151q-216 0 -342.5 150.5t-126.5 398.5q0 246 127 395.5t342 149.5zM614 109q142 0 224 120t82 291q0 180 -81 296t-225 116q-145 0 -225 -114.5t-80 -297.5q0 -174 81 -292.5t224 -118.5z" />
    <glyph glyph-name="pi" unicode="&#x3c0;" 
d="M1167 907h-184v-907h-156v907h-397v-907h-156v907h-71q-65 0 -142 -22v137q65 20 136 20h970v-135z" />
    <glyph glyph-name="rho" unicode="&#x3c1;" 
d="M145 -412v934q0 246 127 395.5t342 149.5t342 -150t127 -395q0 -247 -127 -398t-342 -151q-190 0 -313 119v-504h-156zM614 109q142 0 224 120t82 291q0 180 -81 296t-225 116q-147 0 -230 -116.5t-83 -295.5q0 -170 84 -290.5t229 -120.5z" />
    <glyph glyph-name="sigma1" unicode="&#x3c2;" 
d="M971 872q-167 62 -291 62q-137 0 -233.5 -134.5t-96.5 -312.5q0 -145 79 -237t218 -92h103q162 0 233.5 -56t71.5 -180q0 -144 -107.5 -239t-277.5 -95q-79 0 -133 9v135q59 -6 120 -6q116 0 185 48.5t69 123.5q0 67 -52 97t-161 30h-106q-186 0 -295 134t-109 322
q0 224 145.5 405t344.5 181q161 0 328 -68z" />
    <glyph glyph-name="sigma" unicode="&#x3c3;" 
d="M1167 907h-215q58 -52 94.5 -165.5t36.5 -231.5q0 -245 -126.5 -391t-342.5 -146q-217 0 -343 145.5t-126 391.5q0 244 126 388t343 144h553v-135zM920 508q0 120 -32.5 234.5t-82.5 164.5h-191q-146 0 -225.5 -109t-79.5 -290q0 -172 80.5 -285.5t224.5 -113.5
q143 0 224.5 115t81.5 284z" />
    <glyph glyph-name="tau" unicode="&#x3c4;" 
d="M1061 907h-363v-907h-155v907h-234q-65 0 -141 -22v137q65 20 135 20h758v-135z" />
    <glyph glyph-name="upsilon" unicode="&#x3c5;" 
d="M987 1042q96 -268 96 -514q0 -239 -122 -397t-328 -158q-194 0 -306 130t-112 341v598h156v-598q0 -154 67.5 -244.5t194.5 -90.5q142 0 215.5 107.5t73.5 311.5q0 246 -101 514h166z" />
    <glyph glyph-name="phi" unicode="&#x3c6;" 
d="M690 1063q202 -24 317 -175.5t115 -365.5q0 -216 -115 -367t-317 -173v-394h-155v392q-202 20 -317.5 172.5t-115.5 369.5q0 214 115.5 365.5t317.5 173.5v350h155v-348zM535 115v811q-134 -20 -201.5 -127.5t-67.5 -278.5q0 -170 68 -279.5t201 -125.5zM690 113
q132 16 198 123.5t66 283.5q0 365 -264 404v-811z" />
    <glyph glyph-name="chi" unicode="&#x3c7;" 
d="M1122 -272l-35 -142q-64 1 -134 42.5t-131 155.5l-218 409l-332 -605h-159l409 756l-232 422q-40 72 -82.5 103t-101.5 34l35 141q39 -1 78.5 -14t78.5 -43t62 -63t100 -175l140 -255l299 548h168l-385 -700l260 -480q36 -68 77 -100t103 -34z" />
    <glyph glyph-name="psi" unicode="&#x3c8;" 
d="M1010 1042q96 -220 96 -501t-105 -407t-317 -144v-402h-156v400q-210 21 -309.5 138.5t-99.5 373.5q0 74 9 187q9 109 9 179q0 87 -51 176h168q45 -75 45 -176q0 -78 -9 -188q-9 -107 -9 -178q0 -197 60 -276.5t187 -96.5v1284h156v-1286q116 12 188 92t72 324
q0 278 -96 501h162z" />
    <glyph glyph-name="omega" unicode="&#x3c9;" 
d="M1085 1042q56 -279 56 -538q0 -300 -65.5 -415.5t-207.5 -115.5q-185 0 -254 246q-77 -246 -258 -246q-140 0 -205 112.5t-65 412.5q0 259 53 544h162q-53 -327 -53 -544q0 -200 25.5 -294.5t111.5 -94.5q70 0 111 123t41 257v279h155v-279q0 -133 40 -256.5t108 -123.5
q72 0 105.5 81t33.5 314q0 217 -55 538h161z" />
    <glyph glyph-name="iotadieresis" unicode="&#x3ca;" 
d="M967 47q-153 -72 -265 -72q-266 0 -266 295v772h156v-731q0 -200 139 -200q76 0 209 55zM741 1407q45 0 75 -31t30 -78q0 -43 -31 -75.5t-74 -32.5q-45 0 -76.5 32.5t-31.5 75.5q0 47 31 78t77 31zM346 1407q46 0 76 -30.5t30 -78.5q0 -44 -31 -76t-75 -32t-76.5 32.5
t-32.5 75.5q0 47 32 78t77 31z" />
    <glyph glyph-name="upsilondieresis" unicode="&#x3cb;" 
d="M987 1042q96 -268 96 -514q0 -239 -122 -397t-328 -158q-194 0 -306 130t-112 341v598h156v-598q0 -154 67.5 -244.5t194.5 -90.5q142 0 215.5 107.5t73.5 311.5q0 246 -101 514h166zM817 1407q45 0 75 -31t30 -78q0 -43 -31 -75.5t-74 -32.5q-45 0 -76.5 32.5
t-31.5 75.5q0 47 31 78t77 31zM422 1407q46 0 76 -30.5t30 -78.5q0 -44 -31 -76t-75 -32t-76.5 32.5t-32.5 75.5q0 47 32 78t77 31z" />
    <glyph glyph-name="omicrontonos" unicode="&#x3cc;" 
d="M614 1067q215 0 342 -150t127 -395q0 -247 -127 -398t-342 -151q-216 0 -342.5 150.5t-126.5 398.5q0 246 127 395.5t342 149.5zM614 109q142 0 224 120t82 291q0 180 -81 296t-225 116q-145 0 -225 -114.5t-80 -297.5q0 -174 81 -292.5t224 -118.5zM713 1495l-56 -301
h-86l-55 301h197z" />
    <glyph glyph-name="upsilontonos" unicode="&#x3cd;" 
d="M987 1042q96 -268 96 -514q0 -239 -122 -397t-328 -158q-194 0 -306 130t-112 341v598h156v-598q0 -154 67.5 -244.5t194.5 -90.5q142 0 215.5 107.5t73.5 311.5q0 246 -101 514h166zM713 1495l-56 -301h-86l-55 301h197z" />
    <glyph glyph-name="omegatonos" unicode="&#x3ce;" 
d="M1085 1042q56 -279 56 -538q0 -300 -65.5 -415.5t-207.5 -115.5q-185 0 -254 246q-77 -246 -258 -246q-140 0 -205 112.5t-65 412.5q0 259 53 544h162q-53 -327 -53 -544q0 -200 25.5 -294.5t111.5 -94.5q70 0 111 123t41 257v279h155v-279q0 -133 40 -256.5t108 -123.5
q72 0 105.5 81t33.5 314q0 217 -55 538h161zM713 1495l-56 -301h-86l-55 301h197z" />
    <glyph glyph-name="afii10023" unicode="&#x401;" 
d="M993 0h-737v1411h731v-143h-567v-437h545v-143h-545v-545h573v-143zM829 1763q45 0 75 -31t30 -78q0 -43 -31 -75.5t-74 -32.5q-45 0 -76.5 32.5t-31.5 75.5q0 47 31 78t77 31zM434 1763q46 0 76 -30.5t30 -78.5q0 -44 -31 -76t-75 -32t-76.5 32.5t-32.5 75.5q0 47 32 78
t77 31z" />
    <glyph glyph-name="afii10051" unicode="&#x402;" 
d="M1116 461q0 -238 -92 -351.5t-256 -113.5q-51 0 -119 24l45 121q52 -10 84 -10q82 0 128 83.5t46 244.5v8q0 313 -243 313q-120 0 -246 -86v-694h-164v1278h-293v133h748v-133h-291v-444q122 81 266 81q179 0 283 -116.5t104 -327.5v-10z" />
    <glyph glyph-name="afii10052" unicode="&#x403;" 
d="M1024 1268h-604v-1268h-164v1411h768v-143zM883 1835l-312 -301h-112l198 301h226z" />
    <glyph glyph-name="afii10053" unicode="&#x404;" 
d="M1071 88q-166 -115 -385 -115q-274 0 -416.5 188t-142.5 544q0 344 138 538.5t421 194.5q102 0 202 -26t161 -69l-54 -129q-141 80 -309 80q-364 0 -383 -512h563v-143h-563q23 -522 383 -522q163 0 334 100z" />
    <glyph glyph-name="afii10054" unicode="&#x405;" 
d="M915 1255q-126 43 -239 43q-128 0 -208.5 -58.5t-80.5 -166.5q0 -128 211 -225q156 -72 206.5 -100t102.5 -77t83.5 -115.5t31.5 -149.5q0 -206 -138.5 -319.5t-326.5 -113.5q-182 0 -319 72l34 141q161 -73 281 -73q140 0 224.5 72.5t84.5 199.5q0 94 -55 159.5
t-203 133.5q-152 70 -196.5 95.5t-88.5 70.5t-68 101t-24 122q0 175 126 273t319 98q141 0 280 -43z" />
    <glyph glyph-name="afii10055" unicode="&#x406;" 
d="M928 0h-641v143h243v1125h-243v143h641v-143h-234v-1125h234v-143z" />
    <glyph glyph-name="afii10056" unicode="&#x407;" 
d="M928 0h-641v143h243v1125h-243v143h641v-143h-234v-1125h234v-143zM813 1759q45 0 75 -31t30 -78q0 -43 -31 -75.5t-74 -32.5q-45 0 -76.5 32.5t-31.5 75.5q0 47 31 78t77 31zM418 1759q46 0 76 -30.5t30 -78.5q0 -44 -31 -76t-75 -32t-76.5 32.5t-32.5 75.5q0 47 32 78
t77 31z" />
    <glyph glyph-name="afii10057" unicode="&#x408;" 
d="M866 375q0 -194 -101.5 -298t-297.5 -104q-171 0 -311 72l49 131q119 -59 262 -59q124 0 179.5 65.5t55.5 204.5v1024h164v-1036z" />
    <glyph glyph-name="afii10058" unicode="&#x409;" 
d="M733 844h33q424 0 424 -426q0 -202 -98 -310t-275 -108h-248v1268h-282v-955q0 -201 -53.5 -263t-190.5 -62h-39v143h10q60 0 84.5 36t24.5 163v1081h610v-567zM733 143h33q138 0 195 67t57 208q0 144 -62 213t-202 69h-21v-557z" />
    <glyph glyph-name="afii10059" unicode="&#x40a;" 
d="M733 844h33q424 0 424 -426q0 -202 -98 -310t-275 -108h-248v700h-282v-700h-164v1411h164v-567h282v567h164v-567zM733 143h33q137 0 194.5 67.5t57.5 207.5q0 144 -62 213t-202 69h-21v-557z" />
    <glyph glyph-name="afii10060" unicode="&#x40b;" 
d="M1116 0h-164v467q0 313 -243 313q-120 0 -246 -86v-694h-164v1278h-293v133h748v-133h-291v-444q122 81 266 81q179 0 283 -116.5t104 -327.5v-471z" />
    <glyph glyph-name="afii10061" unicode="&#x40c;" 
d="M1206 0h-207l-477 692l-149 -162v-530h-164v1411h164v-676l626 676h189l-551 -596zM903 1858l-312 -301h-112l198 301h226z" />
    <glyph glyph-name="afii10062" unicode="&#x40e;" 
d="M1171 1411l-489 -1104q-78 -176 -188 -250.5t-291 -74.5h-33v155h29q124 0 194 53t119 156l-459 1065h172l387 -876l389 876h170zM971 1808q-53 -249 -350 -249q-139 0 -231.5 65t-119.5 184h142q43 -114 209 -114q109 0 148 30.5t58 83.5h144z" />
    <glyph glyph-name="afii10145" unicode="&#x40f;" 
d="M1020 0h-324v-297h-164v297h-323v1411h164v-1268h483v1268h164v-1411z" />
    <glyph glyph-name="afii10017" unicode="&#x410;" 
d="M1176 0h-172l-156 494h-463l-158 -494h-170l461 1411h197zM801 637l-185 584l-184 -584h369z" />
    <glyph glyph-name="afii10018" unicode="&#x411;" 
d="M373 850h186q244 0 385 -114.5t141 -315.5q0 -192 -139.5 -306t-335.5 -114h-401v1411h770v-143h-606v-418zM373 143h186q163 0 258.5 74t95.5 203q0 137 -96.5 212t-269.5 75h-174v-564z" />
    <glyph glyph-name="afii10019" unicode="&#x412;" 
d="M784 774q141 -33 221 -128t80 -226q0 -192 -139.5 -306t-335.5 -114h-401v1411h391q204 0 319 -89.5t115 -252.5q0 -100 -66.5 -178t-183.5 -113v-4zM373 850h192q301 0 301 215q0 98 -74 150.5t-217 52.5h-202v-418zM373 143h186q163 0 258.5 74t95.5 203q0 137 -94 212
t-272 75h-174v-564z" />
    <glyph glyph-name="afii10020" unicode="&#x413;" 
d="M1024 1268h-604v-1268h-164v1411h768v-143z" />
    <glyph glyph-name="afii10021" unicode="&#x414;" 
d="M1214 -268h-163v268h-873v-268h-164v411h133q158 137 250 414.5t92 654.5v199h553v-1268h172v-411zM879 143v1125h-228v-29q0 -374 -86 -667t-217 -429h531z" />
    <glyph glyph-name="afii10022" unicode="&#x415;" 
d="M993 0h-737v1411h731v-143h-567v-437h545v-143h-545v-545h573v-143z" />
    <glyph glyph-name="afii10024" unicode="&#x416;" 
d="M1227 0h-170l-256 684l-105 -203v-481h-164v485l-104 199l-254 -684h-170l340 842l-301 569h158l331 -674v674h164v-676l334 676h158l-305 -569z" />
    <glyph glyph-name="afii10025" unicode="&#x417;" 
d="M760 752q133 -32 220 -126t87 -210q0 -200 -155 -321.5t-380 -121.5q-222 0 -399 142l62 110q175 -108 344 -108q141 0 250.5 81t109.5 208q0 109 -120.5 186.5t-284.5 77.5h-129v143h98q154 0 277.5 74t123.5 186q0 91 -96.5 156t-220.5 65q-178 0 -324 -86l-67 117
q164 113 399 113q192 0 334.5 -103.5t142.5 -259.5q0 -106 -82.5 -200.5t-189.5 -118.5v-4z" />
    <glyph glyph-name="afii10026" unicode="&#x418;" 
d="M1040 0h-157v1145l-512 -1145h-183v1411h156v-1135l514 1135h182v-1411z" />
    <glyph glyph-name="afii10027" unicode="&#x419;" 
d="M1040 0h-157v1145l-512 -1145h-183v1411h156v-1135l514 1135h182v-1411zM971 1808q-53 -249 -350 -249q-139 0 -231.5 65t-119.5 184h142q43 -114 209 -114q109 0 148 30.5t58 83.5h144z" />
    <glyph glyph-name="afii10028" unicode="&#x41a;" 
d="M1206 0h-207l-477 692l-149 -162v-530h-164v1411h164v-676l626 676h189l-551 -596z" />
    <glyph glyph-name="afii10029" unicode="&#x41b;" 
d="M1020 0h-164v1268h-483v-955q0 -201 -53.5 -263t-190.5 -62h-39v143h10q60 0 84.5 36t24.5 163v1081h811v-1411z" />
    <glyph glyph-name="afii10030" unicode="&#x41c;" 
d="M1069 0h-158v1210l-213 -579h-155l-213 579v-1210h-158v1411h213l236 -643l235 643h213v-1411z" />
    <glyph glyph-name="afii10031" unicode="&#x41d;" 
d="M1020 0h-164v700h-483v-700h-164v1411h164v-567h483v567h164v-1411z" />
    <glyph glyph-name="afii10032" unicode="&#x41e;" 
d="M612 1438q237 0 361.5 -187.5t124.5 -545.5q0 -356 -124 -544t-362 -188q-236 0 -360.5 187.5t-124.5 544.5t124 545t361 188zM612 117q312 0 312 588q0 589 -312 589q-152 0 -231.5 -152.5t-79.5 -436.5q0 -287 79 -437.5t232 -150.5z" />
    <glyph glyph-name="afii10033" unicode="&#x41f;" 
d="M1020 0h-164v1268h-483v-1268h-164v1411h811v-1411z" />
    <glyph glyph-name="afii10034" unicode="&#x420;" 
d="M256 1411h358q203 0 325 -102t122 -281q0 -180 -121.5 -287.5t-318.5 -107.5h-201v-633h-164v1411zM420 776h178q289 0 289 242q0 112 -78.5 181t-202.5 69h-186v-492z" />
    <glyph glyph-name="afii10035" unicode="&#x421;" 
d="M1071 88q-166 -115 -385 -115q-274 0 -416.5 188t-142.5 544q0 344 138 538.5t421 194.5q102 0 202 -26t161 -69l-54 -129q-141 80 -309 80q-195 0 -290 -141.5t-95 -447.5q0 -588 385 -588q163 0 334 100z" />
    <glyph glyph-name="afii10036" unicode="&#x422;" 
d="M1133 1278h-435v-1278h-163v1278h-437v133h1035v-133z" />
    <glyph glyph-name="afii10037" unicode="&#x423;" 
d="M1171 1411l-489 -1104q-78 -176 -188 -250.5t-291 -74.5h-33v155h29q124 0 194 53t119 156l-459 1065h172l387 -876l389 876h170z" />
    <glyph glyph-name="afii10038" unicode="&#x424;" 
d="M696 1249q231 -24 354.5 -170.5t123.5 -353.5q0 -204 -123.5 -350t-354.5 -170v-205h-164v205q-232 21 -354.5 165t-122.5 355q0 210 123 356.5t354 167.5v162h164v-162zM532 336v778q-305 -29 -305 -389q0 -194 78 -284.5t227 -104.5zM696 338q305 38 305 387
q0 156 -76.5 262.5t-228.5 126.5v-776z" />
    <glyph glyph-name="afii10039" unicode="&#x425;" 
d="M1163 0h-182l-358 578l-355 -578h-182l451 719l-449 692h188l347 -559l350 559h180l-442 -692z" />
    <glyph glyph-name="afii10040" unicode="&#x426;" 
d="M1112 -297h-164v297h-739v1411h164v-1268h483v1268h164v-1268h92v-440z" />
    <glyph glyph-name="afii10041" unicode="&#x427;" 
d="M1020 0h-164v578q-122 -82 -266 -82q-177 0 -279 116t-102 328v471h164v-467q0 -313 237 -313q120 0 246 86v694h164v-1411z" />
    <glyph glyph-name="afii10042" unicode="&#x428;" 
d="M1139 0h-1049v1411h164v-1268h278v1268h164v-1268h279v1268h164v-1411z" />
    <glyph glyph-name="afii10043" unicode="&#x429;" 
d="M1065 0h-975v1411h164v-1268h278v1268h164v-1268h279v1268h164v-1268h90v-440h-164v297z" />
    <glyph glyph-name="afii10044" unicode="&#x42a;" 
d="M469 850h104q244 0 385.5 -114.5t141.5 -315.5q0 -187 -137.5 -303.5t-337.5 -116.5h-320v1268h-295v143h459v-561zM469 143h104q163 0 259 74t96 203q0 137 -97 212t-270 75h-92v-564z" />
    <glyph glyph-name="afii10045" unicode="&#x42b;" 
d="M1143 0h-164v1411h164v-1411zM254 850h104q244 0 385.5 -114.5t141.5 -315.5q0 -187 -137.5 -303.5t-337.5 -116.5h-320v1411h164v-561zM254 143h104q163 0 259 74t96 203q0 137 -97 212t-270 75h-92v-564z" />
    <glyph glyph-name="afii10046" unicode="&#x42c;" 
d="M410 850h104q244 0 385 -114.5t141 -315.5q0 -192 -139.5 -306t-335.5 -114h-319v1411h164v-561zM410 143h104q163 0 258.5 74t95.5 203q0 137 -96.5 212t-269.5 75h-92v-564z" />
    <glyph glyph-name="afii10047" unicode="&#x42d;" 
d="M180 1343q60 43 160.5 69t202.5 26q274 0 416.5 -188.5t142.5 -544.5t-142.5 -544t-416.5 -188q-219 0 -385 115l51 129q171 -100 334 -100q360 0 383 522h-564v143h564q-19 512 -383 512q-168 0 -310 -80z" />
    <glyph glyph-name="afii10048" unicode="&#x42e;" 
d="M410 780q18 658 372 658q189 0 281 -181t92 -552q0 -732 -373 -732q-182 0 -273.5 164.5t-98.5 499.5h-156v-637h-164v1411h164v-631h156zM782 117q103 0 151 125t48 463q0 238 -21 358t-64.5 175.5t-113.5 55.5q-102 0 -150 -125.5t-48 -463.5t48 -463t150 -125z" />
    <glyph glyph-name="afii10049" unicode="&#x42f;" 
d="M1020 0h-164v641h-182l-414 -641h-205l451 676q-149 36 -234.5 136.5t-85.5 229.5q0 178 119 273.5t316 95.5h399v-1411zM856 784v484h-211q-289 0 -289 -236q0 -107 81 -177.5t212 -70.5h207z" />
    <glyph glyph-name="afii10065" unicode="&#x430;" 
d="M1044 0h-155q-19 63 -19 168q-133 -195 -362 -195q-116 0 -204.5 82.5t-88.5 212.5q0 77 31 136t91 99.5t146 64t204 32.5l175 14v50q0 268 -250 268q-59 0 -149.5 -25.5t-155.5 -60.5l-41 112q213 109 396 109q356 0 356 -377v-448q0 -136 26 -242zM862 309v189
q-211 -19 -289.5 -35.5t-136 -61.5t-57.5 -122q0 -70 49 -113t125 -43q83 0 165 49.5t144 136.5z" />
    <glyph glyph-name="afii10066" unicode="&#x431;" 
d="M330 952q101 115 284 115q215 0 342 -150t127 -395q0 -247 -127 -398t-342 -151q-216 0 -342.5 150.5t-126.5 398.5v6q0 897 484 897q71 0 155 -12q69 -10 119 -10q77 0 117 20v-135q-62 -18 -117 -18q-65 0 -152 11q-74 9 -120 9q-126 0 -199 -77.5t-102 -260.5z
M614 109q142 0 224 120t82 291q0 180 -81 296t-225 116q-145 0 -225 -114.5t-80 -297.5q0 -174 81 -292.5t224 -118.5z" />
    <glyph glyph-name="afii10067" unicode="&#x432;" 
d="M831 553q94 -20 156 -87t62 -142q0 -155 -107.5 -239.5t-249.5 -84.5h-477v1042h414q163 0 263.5 -75t100.5 -201q0 -75 -47 -135t-115 -78zM371 614h262q196 0 196 146q0 68 -56 107.5t-146 39.5h-256v-293zM371 135h293q96 0 157.5 49t61.5 135q0 76 -67.5 118
t-176.5 42h-268v-344z" />
    <glyph glyph-name="afii10068" unicode="&#x433;" 
d="M924 907h-410v-907h-156v1042h566v-135z" />
    <glyph glyph-name="afii10069" unicode="&#x434;" 
d="M1112 -205h-156v205h-731v-205h-155v340h84q119 102 193.5 290t74.5 427v190h575v-907h115v-340zM842 135v772h-264v-18q0 -235 -62.5 -433.5t-161.5 -320.5h488z" />
    <glyph glyph-name="afii10070" unicode="&#x435;" 
d="M1049 516h-715q0 -177 102.5 -292t251.5 -115q142 0 293 51l27 -125q-138 -62 -322 -62q-232 0 -374 149t-142 402q0 248 127.5 395.5t329.5 147.5q180 0 301 -137t121 -365v-49zM879 643q0 122 -76 205.5t-170 83.5q-121 0 -200.5 -80t-88.5 -209h535z" />
    <glyph glyph-name="afii10072" unicode="&#x436;" 
d="M1227 0h-176l-258 510l-101 -127v-383h-155v383l-101 127l-258 -510h-176l338 635l-322 407h164l355 -452v452h155v-452l355 452h163l-319 -407z" />
    <glyph glyph-name="afii10073" unicode="&#x437;" 
d="M770 557q95 -14 163 -85.5t68 -162.5q0 -146 -133 -241t-317 -95q-179 0 -352 99l61 116q148 -79 293 -79q122 0 203.5 54.5t81.5 141.5q0 83 -76 127.5t-207 44.5h-113v141h97q125 0 196.5 45t71.5 125q0 59 -65 101.5t-154 42.5q-154 0 -283 -49l-63 118q56 28 155 47
t185 19q184 0 291.5 -75.5t107.5 -203.5q0 -73 -59.5 -140.5t-151.5 -88.5v-2z" />
    <glyph glyph-name="afii10074" unicode="&#x438;" 
d="M1014 0h-158v807l-463 -807h-178v1042h156v-811l465 811h178v-1042z" />
    <glyph glyph-name="afii10075" unicode="&#x439;" 
d="M1014 0h-158v807l-463 -807h-178v1042h156v-811l465 811h178v-1042zM963 1464q-53 -250 -351 -250q-138 0 -230.5 65.5t-119.5 184.5h141q44 -114 209 -114q110 0 149 30.5t58 83.5h144z" />
    <glyph glyph-name="afii10076" unicode="&#x43a;" 
d="M1120 0h-205l-442 518l-102 -88v-430h-156v1042h156v-440l489 440h199l-475 -426z" />
    <glyph glyph-name="afii10077" unicode="&#x43b;" 
d="M1014 0h-158v907h-485v-616q0 -179 -63.5 -244t-219.5 -65h-39v135h10q95 0 125.5 44t30.5 146v735h799v-1042z" />
    <glyph glyph-name="afii10078" unicode="&#x43c;" 
d="M1112 0h-160v915l-262 -915h-162l-260 915v-915h-151v1042h270l227 -833l238 833h260v-1042z" />
    <glyph glyph-name="afii10079" unicode="&#x43d;" 
d="M1014 0h-158v514h-485v-514h-156v1042h156v-393h485v393h158v-1042z" />
    <glyph glyph-name="afii10080" unicode="&#x43e;" 
d="M614 1067q215 0 342 -150t127 -395q0 -247 -127 -398t-342 -151q-216 0 -342.5 150.5t-126.5 398.5q0 246 127 395.5t342 149.5zM614 109q142 0 224 120t82 291q0 180 -81 296t-225 116q-145 0 -225 -114.5t-80 -297.5q0 -174 81 -292.5t224 -118.5z" />
    <glyph glyph-name="afii10081" unicode="&#x43f;" 
d="M1014 0h-158v907h-485v-907h-156v1042h799v-1042z" />
    <glyph glyph-name="afii10082" unicode="&#x440;" 
d="M371 907q52 72 140.5 116t186.5 44q180 0 282.5 -148.5t102.5 -386.5q0 -240 -107.5 -399.5t-289.5 -159.5q-97 0 -181.5 48.5t-133.5 128.5v-562h-156v1454h156v-135zM371 752v-433q44 -88 119 -147t155 -59q126 0 200.5 118t74.5 293q0 180 -71 294t-198 114
q-165 0 -280 -180z" />
    <glyph glyph-name="afii10083" unicode="&#x441;" 
d="M1014 35q-136 -62 -299 -62q-246 0 -392.5 149.5t-146.5 397.5t147.5 397.5t387.5 149.5q157 0 299 -55l-41 -129q-142 49 -256 49q-172 0 -272.5 -111t-100.5 -301q0 -174 104 -292.5t271 -118.5q132 0 272 51z" />
    <glyph glyph-name="afii10084" unicode="&#x442;" 
d="M1036 907h-344v-907h-155v907h-344v135h843v-135z" />
    <glyph glyph-name="afii10085" unicode="&#x443;" 
d="M1065 1042l-395 -1042q-86 -230 -170.5 -321t-192.5 -91q-96 0 -190 35l26 125q76 -24 136 -24q84 0 138 65t109 213l-391 1040h170l295 -831l295 831h170z" />
    <glyph glyph-name="afii10086" unicode="&#x444;" 
d="M692 907q72 160 215 160q273 0 273 -530q0 -564 -265 -564q-75 0 -126.5 38t-96.5 139v-562h-155v562q-46 -101 -97 -139t-127 -38q-264 0 -264 564q0 530 273 530q143 0 215 -160v504h155v-504zM537 319v433q-32 84 -78 132t-90 48q-78 0 -117 -82t-39 -322
q0 -172 15.5 -255t46.5 -121.5t79 -38.5q42 0 76.5 27.5t70.5 100t36 78.5zM692 319q55 -130 95 -168t87 -38q71 0 106.5 87t35.5 328q0 173 -17 251.5t-51.5 115.5t-87.5 37q-59 0 -113.5 -77.5t-54.5 -102.5v-433z" />
    <glyph glyph-name="afii10087" unicode="&#x445;" 
d="M1055 0h-176l-279 408l-289 -408h-166l371 522l-371 520h179l280 -405l285 405h166l-369 -514z" />
    <glyph glyph-name="afii10088" unicode="&#x446;" 
d="M1133 -227h-158v227h-817v1042h155v-907h547v907h158v-907h115v-362z" />
    <glyph glyph-name="afii10089" unicode="&#x447;" 
d="M1014 0h-158v475q-185 -174 -367 -174q-155 0 -237 91.5t-82 266.5v383h156v-337q0 -139 51 -204t160 -65q141 0 319 174v432h158v-1042z" />
    <glyph glyph-name="afii10090" unicode="&#x448;" 
d="M1112 0h-995v1042h155v-907h265v907h155v-907h264v907h156v-1042z" />
    <glyph glyph-name="afii10091" unicode="&#x449;" 
d="M1071 0h-954v1042h155v-907h265v907h155v-907h264v907h156v-907h117v-362h-158v227z" />
    <glyph glyph-name="afii10092" unicode="&#x44a;" 
d="M518 649h109q201 0 310.5 -86t109.5 -241q0 -153 -107 -237.5t-311 -84.5h-267v907h-321v135h477v-393zM518 135h109q120 0 188 48t68 139q0 103 -74.5 147.5t-181.5 44.5h-109v-379z" />
    <glyph glyph-name="afii10093" unicode="&#x44b;" 
d="M1106 0h-156v1042h156v-1042zM272 649h109q199 0 309.5 -87.5t110.5 -239.5q0 -155 -108 -238.5t-310 -83.5h-266v1042h155v-393zM272 135h109q120 0 187 47.5t67 139.5q0 94 -67.5 143t-186.5 49h-109v-379z" />
    <glyph glyph-name="afii10094" unicode="&#x44c;" 
d="M473 649h109q202 0 310.5 -85.5t108.5 -241.5q0 -157 -106.5 -239.5t-310.5 -82.5h-267v1042h156v-393zM473 135h109q256 0 256 187q0 192 -256 192h-109v-379z" />
    <glyph glyph-name="afii10095" unicode="&#x44d;" 
d="M219 1012q141 55 299 55q239 0 387 -150.5t148 -396.5q0 -247 -146 -397t-393 -150q-163 0 -299 62l27 125q140 -51 272 -51q145 0 247 94.5t124 255.5h-398v135h398q-22 162 -119.5 250t-249.5 88q-114 0 -256 -49z" />
    <glyph glyph-name="afii10096" unicode="&#x44e;" 
d="M387 594q22 473 385 473q186 0 286.5 -144t100.5 -401q0 -249 -97.5 -399t-289.5 -150q-366 0 -385 486h-115v-459h-155v1042h155v-448h115zM772 109q223 0 223 411q0 216 -55.5 314t-167.5 98t-167.5 -98t-55.5 -314q0 -411 223 -411z" />
    <glyph glyph-name="afii10097" unicode="&#x44f;" 
d="M958 0h-155v426h-170l-299 -426h-180l329 465q-102 31 -161.5 109t-59.5 174q0 137 93 215.5t255 78.5h348v-1042zM803 561v344h-174q-99 0 -154 -41.5t-55 -115.5q0 -77 64 -132t153 -55h166z" />
    <glyph glyph-name="afii10071" unicode="&#x451;" 
d="M1049 516h-715q0 -177 102.5 -292t251.5 -115q142 0 293 51l27 -125q-138 -62 -322 -62q-232 0 -374 149t-142 402q0 248 127.5 395.5t329.5 147.5q180 0 301 -137t121 -365v-49zM879 643q0 122 -76 205.5t-170 83.5q-121 0 -200.5 -80t-88.5 -209h535zM829 1407
q45 0 75 -31t30 -78q0 -43 -31 -75.5t-74 -32.5q-45 0 -76.5 32.5t-31.5 75.5q0 47 31 78t77 31zM434 1407q46 0 76 -30.5t30 -78.5q0 -44 -31 -76t-75 -32t-76.5 32.5t-32.5 75.5q0 47 32 78t77 31z" />
    <glyph glyph-name="afii10099" unicode="&#x452;" 
d="M1018 -53q0 -196 -67.5 -277.5t-235.5 -81.5q-108 0 -240 41l41 127q112 -32 199 -32q84 0 115.5 47.5t31.5 191.5v705q0 139 -44.5 201.5t-139.5 62.5q-143 0 -307 -178v-754h-156v1190h-156v135h156v86h156v-86h182v-135h-182v-301q168 178 354 178q293 0 293 -354
v-766z" />
    <glyph glyph-name="afii10100" unicode="&#x453;" 
d="M924 907h-410v-907h-156v1042h566v-135zM883 1466l-312 -301h-112l198 301h226z" />
    <glyph glyph-name="afii10101" unicode="&#x454;" 
d="M1014 35q-136 -62 -299 -62q-246 0 -392.5 149.5t-146.5 397.5t147.5 397.5t387.5 149.5q157 0 299 -55l-41 -129q-142 49 -256 49q-152 0 -250 -88t-119 -250h397v-135h-397q22 -161 123.5 -255.5t247.5 -94.5q132 0 272 51z" />
    <glyph glyph-name="afii10102" unicode="&#x455;" 
d="M909 893q-131 43 -247 43q-127 0 -201 -42.5t-74 -113.5q0 -45 34 -78.5t136 -62.5l149 -43q103 -29 168 -69.5t97.5 -98t32.5 -133.5q0 -149 -125 -235.5t-318 -86.5q-192 0 -317 58l30 135q131 -62 281 -62q130 0 211.5 48.5t81.5 128.5q0 54 -40.5 96.5t-190.5 88.5
q-121 37 -178 55.5t-106 54.5t-74.5 86t-25.5 112q0 135 118 214t313 79q126 0 280 -43z" />
    <glyph glyph-name="afii10103" unicode="&#x456;" 
d="M682 1436q44 0 75 -31.5t31 -75.5q0 -46 -30.5 -77t-75.5 -31q-41 0 -72.5 32.5t-31.5 75.5t31.5 75t72.5 32zM758 0h-156v907h-307v135h463v-1042z" />
    <glyph glyph-name="afii10104" unicode="&#x457;" 
d="M758 0h-156v907h-307v135h463v-1042zM833 1407q45 0 75 -31t30 -78q0 -43 -31 -75.5t-74 -32.5q-45 0 -76.5 32.5t-31.5 75.5q0 47 31 78t77 31zM438 1407q46 0 76 -30.5t30 -78.5q0 -44 -31 -76t-75 -32t-76.5 32.5t-32.5 75.5q0 47 32 78t77 31z" />
    <glyph glyph-name="afii10105" unicode="&#x458;" 
d="M682 1436q44 0 75 -31.5t31 -75.5q0 -46 -30.5 -77t-75.5 -31q-41 0 -72.5 32.5t-31.5 75.5t31.5 75t72.5 32zM758 -53q0 -196 -67.5 -277.5t-235.5 -81.5q-108 0 -240 41l41 127q111 -32 199 -32q84 0 115.5 47.5t31.5 191.5v944h-307v135h463v-1095z" />
    <glyph glyph-name="afii10106" unicode="&#x459;" 
d="M743 649h21q201 0 308.5 -85t107.5 -242q0 -322 -414 -322h-180v907h-293v-616q0 -165 -51 -237t-191 -72h-39v135h11q114 0 114 190v735h606v-393zM743 135h21q252 0 252 187q0 192 -252 192h-21v-379z" />
    <glyph glyph-name="afii10107" unicode="&#x45a;" 
d="M743 649h21q201 0 308.5 -85t107.5 -242q0 -158 -105 -240t-309 -82h-180v514h-320v-514h-155v1042h155v-393h320v393h157v-393zM743 135h21q119 0 185.5 48.5t66.5 138.5q0 192 -252 192h-21v-379z" />
    <glyph glyph-name="afii10108" unicode="&#x45b;" 
d="M1018 0h-156v668q0 139 -44.5 201.5t-139.5 62.5q-143 0 -307 -178v-754h-156v1190h-156v135h156v86h156v-86h182v-135h-182v-301q168 178 354 178q293 0 293 -354v-713z" />
    <glyph glyph-name="afii10109" unicode="&#x45c;" 
d="M1120 0h-205l-442 518l-102 -88v-430h-156v1042h156v-440l489 440h199l-475 -426zM883 1466l-312 -301h-112l198 301h226z" />
    <glyph glyph-name="afii10110" unicode="&#x45e;" 
d="M1065 1042l-395 -1042q-86 -230 -170.5 -321t-192.5 -91q-96 0 -190 35l26 125q76 -24 136 -24q84 0 138 65t109 213l-391 1040h170l295 -831l295 831h170zM946 1464q-53 -250 -350 -250q-138 0 -231 65.5t-119 184.5h141q43 -114 209 -114q109 0 148.5 30.5t58.5 83.5
h143z" />
    <glyph glyph-name="afii10193" unicode="&#x45f;" 
d="M1018 0h-352v-227h-158v227h-350v1042h155v-907h547v907h158v-1042z" />
    <glyph glyph-name="afii10050" unicode="&#x490;" 
d="M1087 1268h-667v-1268h-164v1411h668v268h163v-411z" />
    <glyph glyph-name="afii10098" unicode="&#x491;" 
d="M985 907h-512v-907h-156v1042h512v228h156v-363z" />
    <glyph glyph-name="Wgrave" unicode="&#x1e80;" 
d="M1186 1411l-180 -1411h-152l-240 795l-239 -795h-156l-176 1411h162l119 -1147l208 694h164l209 -696l121 1149h160zM772 1519h-113l-311 301h225z" />
    <glyph glyph-name="wgrave" unicode="&#x1e81;" 
d="M1141 1042l-150 -1042h-119l-245 590l-246 -590h-119l-147 1042h155q83 -730 86 -766l191 453h160l190 -450l84 763h160zM772 1165h-113l-311 301h225z" />
    <glyph glyph-name="Wdieresis" unicode="&#x1e84;" 
d="M1186 1411l-180 -1411h-152l-240 795l-239 -795h-156l-176 1411h162l119 -1147l208 694h164l209 -696l121 1149h160zM813 1761q45 0 75 -31t30 -78q0 -43 -31 -75.5t-74 -32.5q-45 0 -76.5 32.5t-31.5 75.5q0 47 31 78t77 31zM418 1761q46 0 76 -30.5t30 -78.5
q0 -44 -31 -76t-75 -32t-76.5 32.5t-32.5 75.5q0 47 32 78t77 31z" />
    <glyph glyph-name="wdieresis" unicode="&#x1e85;" 
d="M1141 1042l-150 -1042h-119l-245 590l-246 -590h-119l-147 1042h155q83 -730 86 -766l191 453h160l190 -450l84 763h160zM813 1407q45 0 75 -31t30 -78q0 -43 -31 -75.5t-74 -32.5q-45 0 -76.5 32.5t-31.5 75.5q0 47 31 78t77 31zM418 1407q46 0 76 -30.5t30 -78.5
q0 -44 -31 -76t-75 -32t-76.5 32.5t-32.5 75.5q0 47 32 78t77 31z" />
    <glyph glyph-name="SF100000" unicode="&#x2500;" 
d="M0 628v155h1229v-155h-1229z" />
    <glyph glyph-name="SF110000" unicode="&#x2502;" 
d="M537 -446v2304h155v-2304h-155z" />
    <glyph glyph-name="SF010000" unicode="&#x250c;" 
d="M537 -446v1229h692v-155h-537v-1074h-155z" />
    <glyph glyph-name="SF030000" unicode="&#x2510;" 
d="M537 -446v1074h-537v155h692v-1229h-155z" />
    <glyph glyph-name="SF020000" unicode="&#x2514;" 
d="M537 628v1230h155v-1075h537v-155h-692z" />
    <glyph glyph-name="SF040000" unicode="&#x2518;" 
d="M0 628v155h537v1075h155v-1230h-692z" />
    <glyph glyph-name="SF080000" unicode="&#x251c;" 
d="M537 -446v2304h155v-1075h537v-155h-537v-1074h-155z" />
    <glyph glyph-name="SF090000" unicode="&#x2524;" 
d="M537 -446v1074h-537v155h537v1075h155v-2304h-155z" />
    <glyph glyph-name="SF060000" unicode="&#x252c;" 
d="M537 -446v1074h-537v155h1229v-155h-537v-1074h-155z" />
    <glyph glyph-name="SF070000" unicode="&#x2534;" 
d="M0 628v155h537v1075h155v-1075h537v-155h-1229z" />
    <glyph glyph-name="SF050000" unicode="&#x253c;" 
d="M537 -446v1074h-537v155h537v1075h155v-1075h537v-155h-537v-1074h-155z" />
    <glyph glyph-name="SF430000" unicode="&#x2550;" 
d="M0 628h1229v-155h-1229v155zM0 783v155h1229v-155h-1229z" />
    <glyph glyph-name="SF240000" unicode="&#x2551;" 
d="M537 -446h-155v2304h155v-2304zM692 1858h155v-2304h-155v2304z" />
    <glyph glyph-name="SF510000" unicode="&#x2552;" 
d="M537 -446v1384h692v-155h-537v-155h537v-155h-537v-919h-155z" />
    <glyph glyph-name="SF520000" unicode="&#x2553;" 
d="M537 -446h-155v1229h847v-155h-382v-1074h-155v1074h-155v-1074z" />
    <glyph glyph-name="SF390000" unicode="&#x2554;" 
d="M537 -446h-155v1384h847v-155h-692v-1229zM692 -446v1074h537v-155h-382v-919h-155z" />
    <glyph glyph-name="SF220000" unicode="&#x2555;" 
d="M537 -446v919h-537v155h537v155h-537v155h692v-1384h-155z" />
    <glyph glyph-name="SF210000" unicode="&#x2556;" 
d="M537 -446h-155v1074h-382v155h847v-1229h-155v1074h-155v-1074z" />
    <glyph glyph-name="SF250000" unicode="&#x2557;" 
d="M537 -446h-155v919h-382v155h537v-1074zM692 -446v1229h-692v155h847v-1384h-155z" />
    <glyph glyph-name="SF500000" unicode="&#x2558;" 
d="M537 473v1385h155v-920h537v-155h-537v-155h537v-155h-692z" />
    <glyph glyph-name="SF490000" unicode="&#x2559;" 
d="M382 628v1230h155v-1075h155v1075h155v-1075h382v-155h-847z" />
    <glyph glyph-name="SF380000" unicode="&#x255a;" 
d="M382 473v1385h155v-1230h692v-155h-847zM1229 783h-537v1075h155v-920h382v-155z" />
    <glyph glyph-name="SF280000" unicode="&#x255b;" 
d="M0 628h537v155h-537v155h537v920h155v-1385h-692v155z" />
    <glyph glyph-name="SF270000" unicode="&#x255c;" 
d="M0 628v155h382v1075h155v-1075h155v1075h155v-1230h-847z" />
    <glyph glyph-name="SF260000" unicode="&#x255d;" 
d="M0 628h692v1230h155v-1385h-847v155zM0 783v155h382v920h155v-1074z" />
    <glyph glyph-name="SF360000" unicode="&#x255e;" 
d="M537 -446v2304h155v-919h537v-155h-537v-155h537v-155h-537v-920h-155z" />
    <glyph glyph-name="SF370000" unicode="&#x255f;" 
d="M382 -446v2304h155v-2304h-155zM692 -446v2304h155v-1075h382v-155h-382v-1074h-155z" />
    <glyph glyph-name="SF420000" unicode="&#x2560;" 
d="M382 -446v2304h155v-2304h-155zM692 -446v1074h537v-155h-382v-919h-155zM692 783v1075h155v-920h382v-155h-537z" />
    <glyph glyph-name="SF190000" unicode="&#x2561;" 
d="M537 -446v919h-537v155h537v155h-537v155h537v920h155v-2304h-155z" />
    <glyph glyph-name="SF200000" unicode="&#x2562;" 
d="M382 -446v1074h-382v155h382v1074h155v-2304zM692 -447v2304h155v-2304h-155z" />
    <glyph glyph-name="SF230000" unicode="&#x2563;" 
d="M382 -446v919h-382v155h537v-1074h-155zM692 -446v2304h155v-2304h-155zM0 783v155h382v920h155v-1074z" />
    <glyph glyph-name="SF470000" unicode="&#x2564;" 
d="M0 628h1229v-155h-537v-919h-155v919h-537v155zM0 783v155h1229v-155h-1229z" />
    <glyph glyph-name="SF480000" unicode="&#x2565;" 
d="M0 628v155h1229v-155h-382v-1074h-155v1074h-155v-1074h-155v1074h-382z" />
    <glyph glyph-name="SF410000" unicode="&#x2566;" 
d="M0 628h537v-1074h-155v919h-382v155zM0 783v155h1229v-155h-1229zM1229 628v-155h-382v-919h-155v1074h537z" />
    <glyph glyph-name="SF450000" unicode="&#x2567;" 
d="M0 628h1229v-155h-1229v155zM0 783v155h537v920h155v-920h537v-155h-1229z" />
    <glyph glyph-name="SF460000" unicode="&#x2568;" 
d="M0 628v155h382v1075h155v-1075h155v1075h155v-1075h382v-155h-1229z" />
    <glyph glyph-name="SF400000" unicode="&#x2569;" 
d="M0 628h1229v-155h-1229v155zM0 783v155h382v920h155v-1075h-537zM692 783v1075h155v-920h382v-155h-537z" />
    <glyph glyph-name="SF540000" unicode="&#x256a;" 
d="M0 628h537v155h-537v155h537v920h155v-920h537v-155h-537v-155h537v-155h-537v-919h-155v919h-537v155z" />
    <glyph glyph-name="SF530000" unicode="&#x256b;" 
d="M0 628v155h382v1075h155v-1075h155v1075h155v-1075h382v-155h-382v-1074h-155v1074h-155v-1074h-155v1074h-382z" />
    <glyph glyph-name="SF440000" unicode="&#x256c;" 
d="M0 628h537v-1074h-155v919h-382v155zM0 783v155h382v920h155v-1075h-537zM692 783v1075h155v-920h382v-155h-537zM1229 628v-155h-382v-919h-155v1074h537z" />
    <glyph glyph-name="franc" unicode="&#x20a3;" 
d="M256 416v995h748v-143h-584v-461h532v-143h-532v-248h309v-144h-309v-272h-164v272h-174v144h174z" />
    <glyph glyph-name="underscoredbl" unicode="&#x2017;" 
d="M1229 -184h-1229v131h1229v-131zM1229 -446h-1229v131h1229v-131z" />
    <glyph glyph-name="exclamdbl" unicode="&#x203c;" 
d="M436 952l-47 -528h-86l-47 528v459h180v-459zM350 229q53 0 89 -36t36 -89t-36.5 -92t-88.5 -39q-51 0 -87 38.5t-36 92.5t35.5 89.5t87.5 35.5zM961 952l-47 -528h-86l-47 528v459h180v-459zM875 229q53 0 89 -36t36 -89t-36.5 -92t-88.5 -39q-51 0 -87 38.5t-36 92.5
t35.5 89.5t87.5 35.5z" />
    <glyph glyph-name="nsuperior" unicode="&#x207f;" 
d="M866 524h-129v400q0 70 -21.5 100.5t-74.5 30.5q-89 0 -170 -80v-451h-127v625h127v-92q95 106 199 106q196 0 196 -213v-426z" />
    <glyph glyph-name="peseta" unicode="&#x20a7;" 
d="M532 748h72v-148h156v-108h-156v-304q0 -90 55 -90q40 0 127 37l23 -98q-91 -47 -164 -47q-158 0 -158 176v326h-100v108h100v121q-98 -47 -221 -47h-30v-674h-144v1411h158q203 0 318.5 -94t115.5 -266q0 -200 -152 -303zM236 809h8q286 0 286 240q0 111 -72 169
t-206 58h-16v-467zM1137 492q-73 24 -121 24q-43 0 -67.5 -18.5t-24.5 -48.5q0 -29 17 -42t103 -49q136 -55 136 -174q0 -89 -59 -141.5t-148 -52.5q-81 0 -156 47l23 104q64 -43 129 -43q46 0 74 21.5t28 56.5q0 36 -22 54.5t-68 37.5q-84 34 -109.5 51.5t-41 49.5
t-15.5 75q0 82 55.5 130.5t147.5 48.5q50 0 141 -27z" />
    <glyph glyph-name="intersection" unicode="&#x2229;" 
d="M174 993q0 177 124 311t316 134q191 0 316 -132t125 -313v-993h-131v956q0 157 -87 254t-223 97t-222.5 -97.5t-86.5 -255.5v-954h-131v993z" />
    <glyph glyph-name="equivalence" unicode="&#x2261;" 
d="M1087 858h-946v131h946v-131zM1087 457h-946v131h946v-131zM1087 55h-946v131h946v-131z" />
    <glyph glyph-name="house" unicode="&#x2302;" 
d="M1067 0h-905v672l450 389l455 -389v-672zM293 131h643v479l-324 277l-319 -277v-479z" />
    <glyph glyph-name="revlogicalnot" unicode="&#x2310;" 
d="M1087 858h-815v-360h-131v491h946v-131z" />
    <glyph glyph-name="minute" unicode="&#x2032;" 
d="M672 1139l-146 -244l-73 31l63 224q14 50 40 109l69 162l139 -61z" />
    <glyph glyph-name="second" unicode="&#x2033;" 
d="M856 1139l-145 -244l-74 31l64 224q14 50 39 109l69 162l139 -61zM487 1139l-145 -244l-74 31l64 224q14 50 39 109l69 162l140 -61z" />
    <glyph glyph-name="afii61248" unicode="&#x2105;" 
d="M516 821q-92 -67 -192 -67q-130 0 -207.5 92t-77.5 235q0 152 74.5 241t210.5 89q89 0 180 -49l-35 -94q-67 37 -145 37q-82 0 -120 -52.5t-38 -171.5q0 -221 158 -221q73 0 159 53zM985 1411l-643 -1411h-117l641 1411h119zM918 657q133 0 208.5 -88t75.5 -241
q0 -143 -76.5 -235.5t-207.5 -92.5q-130 0 -207.5 92t-77.5 236q0 153 75.5 241t209.5 88zM918 106q157 0 157 222q0 118 -38 170.5t-119 52.5q-82 0 -120 -52.5t-38 -170.5q0 -222 158 -222z" />
    <glyph glyph-name="afii61289" unicode="&#x2113;" 
d="M596 422q20 -157 55.5 -239.5t77.5 -82.5q55 0 143 66l41 -119q-92 -88 -182 -88q-101 0 -176 101t-115 296q-61 -21 -129 -37l-41 121q99 27 150 45q-14 151 -14 289q0 292 78.5 469.5t189.5 177.5q104 0 178 -132.5t74 -313.5q0 -374 -330 -553zM584 565
q190 128 190 410q0 123 -28.5 211t-71.5 88q-38 0 -67 -133.5t-29 -366.5q0 -114 6 -209z" />
    <glyph glyph-name="Aringacute" unicode="&#x1fa;" 
d="M727 1370q0 1 224 -684l225 -686h-172l-156 494h-463l-158 -494h-170l447 1368q-80 61 -80 156q0 78 56 134t134 56t134.5 -56t56.5 -134q0 -94 -78 -154zM614 1411q46 0 79.5 33.5t33.5 79.5t-33.5 79t-79.5 33q-45 0 -78.5 -33t-33.5 -79t33 -79.5t79 -33.5zM801 637
l-185 584l-184 -584h369zM883 2038l-312 -301h-112l198 301h226z" />
    <glyph glyph-name="aringacute" unicode="&#x1fb;" 
d="M1044 0h-155q-19 63 -19 168q-133 -195 -362 -195q-116 0 -204.5 82.5t-88.5 212.5q0 77 31 136t91 99.5t146 64t204 32.5l175 14v50q0 268 -250 268q-59 0 -149.5 -25.5t-155.5 -60.5l-41 112q213 109 396 109q356 0 356 -377v-448q0 -136 26 -242zM862 309v189
q-211 -19 -289.5 -35.5t-136 -61.5t-57.5 -122q0 -70 49 -113t125 -43q83 0 165 49.5t144 136.5zM895 1854l-312 -301h-112l198 301h226zM626 1536q78 0 134.5 -56.5t56.5 -133.5q0 -78 -56.5 -134.5t-134.5 -56.5t-134 56.5t-56 134.5q0 77 56 133.5t134 56.5zM626 1233
q46 0 79.5 33.5t33.5 79.5q0 45 -33.5 78.5t-79.5 33.5q-45 0 -78.5 -33.5t-33.5 -78.5q0 -47 33 -80t79 -33z" />
    <glyph glyph-name="AEacute" unicode="&#x1fc;" 
d="M1182 0h-586v504h-260l-156 -504h-168l451 1411h713v-143h-416v-437h393v-143h-393v-545h422v-143zM596 647v615h-23l-190 -615h213zM987 1834l-312 -301h-112l198 301h226z" />
    <glyph glyph-name="aeacute" unicode="&#x1fd;" 
d="M1186 35q-129 -62 -258 -62q-210 0 -310 177q-132 -177 -309 -177q-115 0 -189.5 80.5t-74.5 214.5q0 144 108 231.5t388 112.5v52q0 141 -45.5 204.5t-157.5 63.5q-78 0 -211 -58l-41 119q151 74 301 74q185 0 256 -119q91 119 234 119q142 0 224.5 -125t82.5 -367v-59
h-488v-18q0 -188 59 -288.5t173 -100.5q108 0 235 51zM1010 643q0 137 -35 214t-98 77q-81 0 -128 -77.5t-53 -213.5h314zM541 256v242q-163 -10 -247.5 -69.5t-84.5 -149.5q0 -69 42.5 -112.5t104.5 -43.5q73 0 129 53t56 80zM875 1466l-312 -301h-112l198 301h226z" />
    <glyph glyph-name="Oslashacute" unicode="&#x1fe;" 
d="M936 1300q162 -187 162 -595q0 -356 -124 -544t-362 -188q-124 0 -221 54l-61 -144h-135l96 226q-164 183 -164 596q0 357 124 545t361 188q126 0 222 -56l65 154h137zM772 1239q-68 55 -160 55q-152 0 -231.5 -152.5t-79.5 -436.5q0 -260 68 -414zM453 172
q68 -55 159 -55q312 0 312 588q0 268 -66 413zM911 1834l-312 -301h-112l198 301h226z" />
    <glyph glyph-name="oslashacute" unicode="&#x1ff;" 
d="M891 979q192 -149 192 -457q0 -247 -127 -398t-342 -151q-72 0 -147 21l-61 -144h-136l84 197q-209 147 -209 475q0 246 127 395.5t342 149.5q86 0 166 -27l64 148h137zM725 911q-55 21 -111 21q-145 0 -225 -114.5t-80 -297.5q0 -208 109 -327zM522 123q47 -14 92 -14
q142 0 224 120t82 291q0 193 -93 311zM915 1466l-312 -301h-112l198 301h226z" />
    <glyph glyph-name="Wacute" unicode="&#x1e82;" 
d="M1186 1411l-180 -1411h-152l-240 795l-239 -795h-156l-176 1411h162l119 -1147l208 694h164l209 -696l121 1149h160zM895 1834l-312 -301h-112l198 301h226z" />
    <glyph glyph-name="wacute" unicode="&#x1e83;" 
d="M1141 1042l-150 -1042h-119l-245 590l-246 -590h-119l-147 1042h155q83 -730 86 -766l191 453h160l190 -450l84 763h160zM883 1466l-312 -301h-112l198 301h226z" />
    <glyph glyph-name="Ygrave" unicode="&#x1ef2;" 
d="M1139 1411l-441 -807v-604h-163v604l-441 807h185l337 -635l338 635h185zM828 1533h-113l-311 301h225z" />
    <glyph glyph-name="ygrave" unicode="&#x1ef3;" 
d="M1065 1042l-395 -1042q-86 -230 -170.5 -321t-192.5 -91q-96 0 -190 35l26 125q76 -24 136 -24q84 0 138 65t109 213l-391 1040h170l295 -831l295 831h170zM812 1165h-113l-311 301h225z" />
    <glyph glyph-name="quotereversed" unicode="&#x201b;" 
d="M729 1049l-39 -72q-217 110 -217 305q0 65 41 110.5t96 45.5q50 0 83.5 -35t33.5 -86q0 -48 -34 -84.5t-87 -42.5q0 -81 123 -141z" />
    <glyph glyph-name="radicalex" unicode="&#x203e;" 
d="M1036 1282h-841v129h841v-129z" />
    <glyph glyph-name="afii08941" unicode="&#x20a4;" 
d="M358 649v125h-196v133h196v27q0 255 97 378.5t297 123.5q145 0 266 -54l-37 -133q-115 43 -227 43q-121 0 -176.5 -86t-55.5 -274v-25h252v-133h-252v-125h252v-133h-252v-84q0 -116 -61 -180q93 0 226 -64q112 -53 177 -53q121 0 248 111v-168q-115 -98 -258 -98
q-79 0 -204 60q-114 56 -181 56q-127 0 -258 -106v157q112 86 129.5 148.5t17.5 118.5v102h-196v133h196z" />
    <glyph glyph-name="oneeighth" unicode="&#x215b;" 
d="M473 698h-416v109h150v467l-141 -70v123l170 84h98v-604h139v-109zM995 1411l-643 -1411h-116l641 1411h118zM1069 385q119 -58 119 -178q0 -102 -70 -161.5t-174 -59.5q-107 0 -176.5 60t-69.5 157q0 122 121 180q-94 52 -94 146q0 74 59 131t158 57q98 0 160.5 -56.5
t62.5 -131.5q0 -88 -96 -144zM940 439q96 29 96 90q0 35 -28 60.5t-66 25.5q-35 0 -62.5 -25.5t-27.5 -60.5q0 -62 88 -90zM942 336q-113 -34 -113 -135q0 -48 35.5 -79t79.5 -31q46 0 79.5 30.5t33.5 79.5q0 99 -115 135z" />
    <glyph glyph-name="threeeighths" unicode="&#x215c;" 
d="M345 1075q65 -10 109.5 -56t44.5 -106q0 -96 -79 -162.5t-187 -66.5q-91 0 -174 49l26 103q84 -41 152 -41q54 0 92.5 31.5t38.5 80.5q0 50 -42 81.5t-112 31.5h-45v102h29q68 0 112 28.5t44 78.5q0 80 -113 80q-53 0 -141 -35l-17 106q86 37 162 37q104 0 172 -52.5
t68 -133.5q0 -54 -38.5 -96t-101.5 -58v-2zM995 1411l-643 -1411h-116l641 1411h118zM1069 389q119 -58 119 -178q0 -102 -70 -161.5t-174 -59.5q-107 0 -176.5 60t-69.5 157q0 122 121 180q-94 52 -94 146q0 74 59 131t158 57q98 0 160.5 -56.5t62.5 -131.5q0 -88 -96 -144
zM940 443q96 29 96 90q0 35 -28 60.5t-66 25.5q-35 0 -62.5 -25.5t-27.5 -60.5q0 -62 88 -90zM942 340q-113 -34 -113 -135q0 -48 35.5 -79t79.5 -31q46 0 79.5 30.5t33.5 79.5q0 99 -115 135z" />
    <glyph glyph-name="fiveeighths" unicode="&#x215d;" 
d="M215 1143q24 4 45 4q111 0 174.5 -62.5t63.5 -156.5q0 -100 -73.5 -169t-180.5 -69q-96 0 -176 39l24 105q90 -35 154 -35q55 0 88 33.5t33 95.5q0 55 -30.5 85.5t-80.5 30.5q-51 0 -80 -16l-74 31v352h363v-108h-250v-160zM995 1411l-643 -1411h-116l641 1411h118z
M1065 385q119 -58 119 -178q0 -102 -70 -161.5t-174 -59.5q-107 0 -176.5 60t-69.5 157q0 122 121 180q-94 52 -94 146q0 74 59 131t158 57q98 0 160.5 -56.5t62.5 -131.5q0 -88 -96 -144zM936 439q96 29 96 90q0 35 -28 60.5t-66 25.5q-35 0 -62.5 -25.5t-27.5 -60.5
q0 -62 88 -90zM938 336q-113 -34 -113 -135q0 -48 35.5 -79t79.5 -31q46 0 79.5 30.5t33.5 79.5q0 99 -115 135z" />
    <glyph glyph-name="seveneighths" unicode="&#x215e;" 
d="M584 1331l-289 -626h-121l277 598h-328v108h461v-80zM995 1411l-643 -1411h-116l641 1411h118zM1065 389q119 -58 119 -178q0 -102 -70 -161.5t-174 -59.5q-107 0 -176.5 60t-69.5 157q0 122 121 180q-94 52 -94 146q0 74 59 131t158 57q98 0 160.5 -56.5t62.5 -131.5
q0 -88 -96 -144zM936 443q96 29 96 90q0 35 -28 60.5t-66 25.5q-35 0 -62.5 -25.5t-27.5 -60.5q0 -62 88 -90zM938 340q-113 -34 -113 -135q0 -48 35.5 -79t79.5 -31q46 0 79.5 30.5t33.5 79.5q0 99 -115 135z" />
    <glyph glyph-name="afii00208" unicode="&#x2015;" 
d="M1149 487h-1069v152h1069v-152z" />
    <glyph glyph-name="afii61352" unicode="&#x2116;" 
d="M655 0h-182l-307 1165q22 -273 22 -395l-2 -770h-137v1411h182l310 -1163q-21 306 -21 452v711h135v-1411zM950 1036q121 0 179.5 -78t58.5 -247q0 -158 -54 -244t-184 -86q-121 0 -179 77.5t-58 252.5q0 172 58 248.5t179 76.5zM950 485q51 0 75 43t24 181
q0 137 -24 180t-75 43q-50 0 -74 -43t-24 -180q0 -138 24 -181t74 -43zM1157 166h-414v131h414v-131z" />
    <glyph glyph-name="arrowleft" unicode="&#x2190;" 
d="M270 568h49q-38 -77 -57 -107t-69 -93h1034v-66h-1034q67 -71 128 -200h-50q-83 93 -144 141.5t-125 78.5v30q117 50 268 216z" />
    <glyph glyph-name="arrowup" unicode="&#x2191;" 
d="M381 600q166 153 216 268h30q31 -64 79 -124.5t141 -143.5v-51q-131 62 -200 128v-955h-66v956q-60 -49 -91.5 -69t-108.5 -58v49z" />
    <glyph glyph-name="arrowright" unicode="&#x2192;" 
d="M959 568q150 -166 268 -216v-30q-65 -30 -125.5 -78.5t-143.5 -141.5h-50q61 130 128 200h-1034v66h1034q-49 61 -68.5 92.5t-58.5 107.5h50z" />
    <glyph glyph-name="arrowdown" unicode="&#x2193;" 
d="M381 -11v50q77 -38 108.5 -58t91.5 -69v956h66v-955q69 66 200 128v-51q-93 -83 -141 -143.5t-79 -124.5h-30q-51 118 -216 267z" />
    <glyph glyph-name="arrowboth" unicode="&#x2194;" 
d="M1227 350v-29q-60 -28 -120 -75.5t-144 -142.5h-51q44 111 125 201h-846q82 -90 126 -201h-52q-84 95 -143.5 142.5t-119.5 75.5v29q61 28 119 74.5t144 144.5h52q-45 -112 -126 -202h846q-80 90 -125 202h51q87 -98 145 -144.5t119 -74.5z" />
    <glyph glyph-name="arrowupdn" unicode="&#x2195;" 
d="M599 948h30q56 -122 218 -263v-52q-110 44 -201 126v-846q90 81 201 125v-51q-161 -141 -218 -264h-30q-28 62 -75.5 121t-142.5 143v51q112 -45 201 -125v846q-91 -82 -201 -126v52q96 84 143 143t75 120z" />
    <glyph glyph-name="arrowupdnbse" unicode="&#x21a8;" 
d="M599 948h30q56 -122 218 -263v-52q-110 44 -201 126v-846q90 81 201 125v-51q-161 -141 -218 -264h-30q-28 62 -75.5 121t-142.5 143v51q112 -45 201 -125v846q-91 -82 -201 -126v52q96 84 143 143t75 120zM382 -339h465v-63h-465v63z" />
    <glyph glyph-name="orthogonal" unicode="&#x221f;" 
d="M2 1223h95v-1128h1130v-95h-1225v1223z" />
    <glyph glyph-name="integraltp" unicode="&#x2320;" 
d="M688 -446h-147v1839q0 197 83 319t211 122q63 0 100.5 -31t37.5 -78q0 -40 -25.5 -66t-62.5 -26q-31 0 -57 15l-39 44q-35 39 -49 39q-37 0 -45 -39q-7 -34 -7 -139v-1999z" />
    <glyph glyph-name="integralbt" unicode="&#x2321;" 
d="M541 1858h147v-1839q0 -207 -90 -330q-81 -111 -204 -111q-61 0 -99.5 30.5t-38.5 78.5q0 40 25.5 66t61.5 26q32 0 59 -16q8 -5 41 -46q29 -36 46 -36q37 0 45 40q7 35 7 138v1999z" />
    <glyph glyph-name="upblock" unicode="&#x2580;" 
d="M0 706v1152h1229v-1152h-1229z" />
    <glyph glyph-name="dnblock" unicode="&#x2584;" 
d="M0 -446v1152h1229v-1152h-1229z" />
    <glyph glyph-name="block" unicode="&#x2588;" 
d="M0 -446v2304h1229v-2304h-1229z" />
    <glyph glyph-name="lfblock" unicode="&#x258c;" 
d="M0 -446v2304h615v-2304h-615z" />
    <glyph glyph-name="rtblock" unicode="&#x2590;" 
d="M1229 -446h-614v2304h614v-2304z" />
    <glyph glyph-name="ltshade" unicode="&#x2591;" 
d="M102 1489h103v-97h-103v97zM512 1489h103v-97h-103v97zM922 1489h103v-97h-103v97zM307 1295h103v-96h-103v96zM717 1295h103v-96h-103v96zM1127 1295h102v-96h-102v96zM922 1102h103v-96h-103v96zM512 1102h103v-96h-103v96zM102 1102h103v-96h-103v96zM1127 909h102
v-97h-102v97zM717 909h103v-97h-103v97zM307 909h103v-97h-103v97zM102 715h103v-96h-103v96zM512 715h103v-96h-103v96zM922 715h103v-96h-103v96zM1127 522h102v-96h-102v96zM717 522h103v-96h-103v96zM307 522h103v-96h-103v96zM102 329h103v-97h-103v97zM512 329h103
v-97h-103v97zM922 329h103v-97h-103v97zM307 135h103v-96h-103v96zM717 135h103v-96h-103v96zM1127 135h102v-96h-102v96zM922 -58h103v-97h-103v97zM512 -58h103v-97h-103v97zM102 -58h103v-97h-103v97zM307 -251h103v-97h-103v97zM717 -251h103v-97h-103v97zM1127 -251
h102v-97h-102v97zM0 -446zM307 1682h103v-97h-103v97zM717 1682h103v-97h-103v97zM1127 1682h102v-97h-102v97zM102 1874h103v-95h-103v95zM512 1874h103v-95h-103v95zM922 1874h103v-95h-103v95z" />
    <glyph glyph-name="shade" unicode="&#x2592;" 
d="M102 1489h103v-97h-103v97zM307 1489h103v-97h-103v97zM512 1489h103v-97h-103v97zM717 1489h103v-97h-103v97zM922 1489h103v-97h-103v97zM1127 1489h102v-97h-102v97zM0 1295h102v-96h-102v96zM205 1295h102v-96h-102v96zM410 1295h102v-96h-102v96zM615 1295h102v-96
h-102v96zM820 1295h102v-96h-102v96zM1025 1295h102v-96h-102v96zM102 1102h103v-96h-103v96zM307 1102h103v-96h-103v96zM512 1102h103v-96h-103v96zM717 1102h103v-96h-103v96zM922 1102h103v-96h-103v96zM1127 1102h102v-96h-102v96zM0 909h102v-97h-102v97zM205 909h102
v-97h-102v97zM410 909h102v-97h-102v97zM615 909h102v-97h-102v97zM820 909h102v-97h-102v97zM1025 909h102v-97h-102v97zM102 715h103v-96h-103v96zM307 715h103v-96h-103v96zM512 715h103v-96h-103v96zM717 715h103v-96h-103v96zM922 715h103v-96h-103v96zM1127 715h102
v-96h-102v96zM0 522h102v-96h-102v96zM410 522h102v-96h-102v96zM615 522h102v-96h-102v96zM820 522h102v-96h-102v96zM1025 522h102v-96h-102v96zM205 522h102v-96h-102v96zM1127 329h102v-97h-102v97zM922 329h103v-97h-103v97zM717 329h103v-97h-103v97zM512 329h103v-97
h-103v97zM307 329h103v-97h-103v97zM102 329h103v-97h-103v97zM0 135h102v-96h-102v96zM205 135h102v-96h-102v96zM410 135h102v-96h-102v96zM615 135h102v-96h-102v96zM820 135h102v-96h-102v96zM1025 135h102v-96h-102v96zM1127 -58h102v-97h-102v97zM922 -58h103v-97
h-103v97zM717 -58h103v-97h-103v97zM512 -58h103v-97h-103v97zM307 -58h103v-97h-103v97zM102 -58h103v-97h-103v97zM0 -251h102v-97h-102v97zM205 -251h102v-97h-102v97zM410 -251h102v-97h-102v97zM615 -251h102v-97h-102v97zM820 -251h102v-97h-102v97zM1025 -251h102
v-97h-102v97zM0 -446zM0 1682h102v-97h-102v97zM205 1682h102v-97h-102v97zM410 1682h102v-97h-102v97zM615 1682h102v-97h-102v97zM820 1682h102v-97h-102v97zM1025 1682h102v-97h-102v97zM102 1874h103v-95h-103v95zM307 1874h103v-95h-103v95zM512 1874h103v-95h-103v95z
M717 1874h103v-95h-103v95zM922 1874h103v-95h-103v95zM1127 1874h102v-95h-102v95z" />
    <glyph glyph-name="dkshade" unicode="&#x2593;" 
d="M1229 1682h-102v-97h102v-290h-102v-96h102v-290h-102v-97h102v-290h-102v-97h102v-290h-102v-96h102v-290h-102v-97h102v-98h-1229v291h102v97h-102v290h102v97h-102v290h102v96h-102v290h102v97h-102v290h102v97h-102v290h102v95h103v-95h102v95h103v-95h102v95h103
v-95h102v95h103v-95h102v95h103v-95h102v95h102v-192zM102 1295v-96h103v96h-103zM307 1295v-96h103v96h-103zM512 1295v-96h103v96h-103zM717 1295v-96h103v96h-103zM922 1295v-96h103v96h-103zM1127 1102h-102v-97h102v97zM922 1102h-102v-97h102v97zM717 1102h-102v-97
h102v97zM512 1102h-102v-97h102v97zM307 1102h-102v-97h102v97zM102 909v-97h103v97h-103zM307 909v-97h103v97h-103zM512 909v-97h103v97h-103zM717 909v-97h103v97h-103zM922 909v-97h103v97h-103zM307 715h-102v-96h102v96zM410 715v-96h102v96h-102zM615 715v-96h102v96
h-102zM820 715v-96h102v96h-102zM1025 715v-96h102v96h-102zM102 522v-97h103v97h-103zM512 522v-97h103v97h-103zM410 425v97h-103v-97h103zM717 522v-97h103v97h-103zM922 522v-97h103v97h-103zM1127 232v97h-102v-97h102zM922 232v97h-102v-97h102zM717 232v97h-102v-97
h102zM512 232v97h-102v-97h102zM307 232v97h-102v-97h102zM102 135v-96h103v96h-103zM307 135v-96h103v96h-103zM512 135v-96h103v96h-103zM717 135v-96h103v96h-103zM922 135v-96h103v96h-103zM1127 -155v97h-102v-97h102zM922 -155v97h-102v-97h102zM717 -155v97h-102v-97
h102zM512 -155v97h-102v-97h102zM307 -155v97h-102v-97h102zM102 -251v-97h103v97h-103zM307 -251v-97h103v97h-103zM512 -251v-97h103v97h-103zM717 -251v-97h103v97h-103zM922 -251v-97h103v97h-103zM1127 1489h-102v-97h102v97zM922 1489h-102v-97h102v97zM717 1489h-102
v-97h102v97zM512 1489h-102v-97h102v97zM307 1489h-102v-97h102v97zM1025 1682h-103v-97h103v97zM820 1682h-103v-97h103v97zM615 1682h-103v-97h103v97zM410 1682h-103v-97h103v97zM205 1682h-103v-97h103v97z" />
    <glyph glyph-name="filledbox" unicode="&#x25a0;" 
d="M2 1225h1225v-1225h-1225v1225z" />
    <glyph glyph-name="filledrect" unicode="&#x25ac;" 
d="M2 626h1225v-231h-1225v231z" />
    <glyph glyph-name="triagup" unicode="&#x25b2;" 
d="M15 0l599 1198l599 -1198h-1198z" />
    <glyph glyph-name="triagrt" unicode="&#x25ba;" 
d="M2 1196l1225 -611l-1225 -611v1222z" />
    <glyph glyph-name="triagdn" unicode="&#x25bc;" 
d="M1213 1172l-599 -1198l-599 1198h1198z" />
    <glyph glyph-name="triaglf" unicode="&#x25c4;" 
d="M1227 1196v-1222l-1225 611z" />
    <glyph glyph-name="circle" unicode="&#x25cb;" 
d="M615 1018q110 0 216 -57t165 -163t59 -220q0 -183 -129 -312t-311 -129q-183 0 -312 129t-129 312q0 115 59 220.5t165 162.5t217 57zM615 942q-93 0 -180 -47t-136 -135t-49 -182q0 -151 107 -258t258 -107t257.5 107t106.5 258q0 94 -49 182t-136 135t-179 47z" />
    <glyph glyph-name="invbullet" unicode="&#x25d8;" 
d="M124 0v980h980v-980h-980zM614 692q-84 0 -143 -59t-59 -143q0 -83 59.5 -142.5t142.5 -59.5q84 0 143 59.5t59 142.5q0 84 -59 143t-143 59z" />
    <glyph glyph-name="invcircle" unicode="&#x25d9;" 
d="M38 0v1155h1155v-1155h-1155zM615 1018q-111 0 -216.5 -57t-164.5 -163t-59 -221q0 -182 129 -311t311 -129q183 0 312 129t129 311q0 115 -59 221t-164.5 163t-217.5 57zM616 942q91 0 178.5 -47t136.5 -134.5t49 -183.5q0 -151 -106.5 -257.5t-257.5 -106.5
q-152 0 -258.5 106.5t-106.5 257.5q0 96 49 183.5t136.5 134.5t179.5 47z" />
    <glyph glyph-name="smileface" unicode="&#x263a;" 
d="M1226 584q0 -253 -179 -432t-433 -179q-253 0 -432 179t-179 432q0 254 179 433t432 179q254 0 433 -179t179 -433zM1137 584q0 217 -153 370t-370 153q-216 0 -369 -153t-153 -370q0 -216 153 -369t369 -153q217 0 370 153t153 369zM458 711q0 -32 -23 -55t-55 -23
t-54.5 23t-22.5 55t22.5 54.5t54.5 22.5t55 -22.5t23 -54.5zM926 711q0 -32 -22.5 -55t-54.5 -23t-55 23t-23 55t23 54.5t55 22.5t54.5 -22.5t22.5 -54.5zM332 387l60 35q76 -138 222 -138t222 138l60 -35q-98 -187 -282 -187q-93 0 -163.5 48t-118.5 139z" />
    <glyph glyph-name="invsmileface" unicode="&#x263b;" 
d="M1226 584q0 -253 -179 -432t-433 -179q-253 0 -432 179t-179 432q0 254 179 433t432 179q254 0 433 -179t179 -433zM458 711q0 32 -23 54.5t-55 22.5t-54.5 -22.5t-22.5 -54.5t22.5 -55t54.5 -23t55 23t23 55zM926 711q0 32 -22.5 54.5t-54.5 22.5t-55 -22.5t-23 -54.5
t23 -55t55 -23t54.5 23t22.5 55zM332 387q48 -91 118.5 -139t163.5 -48q92 0 162.5 47t119.5 140l-60 35q-76 -138 -222 -138t-222 138z" />
    <glyph glyph-name="sun" unicode="&#x263c;" 
d="M582 1083h66v-217q64 -5 115.5 -25.5t108.5 -64.5l186 182l45 -45l-184 -184q88 -116 92 -230h216v-61h-216q-13 -120 -91 -221l183 -189l-48 -43l-183 182q-61 -45 -109 -64t-115 -27v-217h-66v217q-126 18 -221 89l-189 -179l-44 44l183 185q-79 100 -93 226h-216v61
h216q12 126 92 224l-182 184l41 49l189 -182q115 78 224 89v217zM613 804q-138 0 -235 -98t-97 -235q0 -138 97 -235t235 -97t235.5 97t97.5 235q0 137 -97.5 235t-235.5 98z" />
    <glyph glyph-name="female" unicode="&#x2640;" 
d="M579 577q-109 15 -180 96.5t-71 188.5q0 121 84.5 206t203.5 85q118 0 202.5 -85t84.5 -206q0 -109 -70.5 -190t-178.5 -95v-165h255v-69h-255v-263h-75v263h-258v69h258v165zM615 1069q-85 0 -145 -60t-60 -145t60 -145.5t145 -60.5t145.5 60.5t60.5 145.5t-60 145
t-146 60z" />
    <glyph glyph-name="male" unicode="&#x2642;" 
d="M628 782l242 242q-35 9 -108 37q-55 21 -83 49q-8 8 -8 19q0 8 7 15q5 5 15 5q9 0 31 -5q64 -15 127 -15q94 0 130.5 12t48.5 12q8 0 12 -3.5t4 -11.5q0 -7 -5 -25q-18 -69 -18 -158q0 -63 13 -130q5 -23 5 -32t-5 -14q-7 -7 -14 -7q-19 0 -40 39q-44 83 -65 166
l-237 -237q84 -81 84 -192q0 -124 -85.5 -211t-205.5 -87t-204.5 84t-84.5 201q0 120 85.5 205t205.5 85q71 0 153 -43zM475 750q-89 0 -151 -62t-62 -150t62.5 -150.5t150.5 -62.5t150 62t62 151q0 88 -62 150t-150 62z" />
    <glyph glyph-name="spade" unicode="&#x2660;" 
d="M615 1231q26 -108 80 -193t192.5 -210.5t175.5 -193t37 -136.5q0 -95 -64 -159t-154 -64q-156 0 -255 190q1 -147 38.5 -233.5t119.5 -136t219 -58.5l7 -37h-792l7 37q124 0 210.5 50t131 139t41.5 239q-45 -95 -111.5 -142.5t-149.5 -47.5q-90 0 -155 65t-65 154
q0 74 32 133q45 83 157 174q140 115 217 229q56 83 81 201z" />
    <glyph glyph-name="club" unicode="&#x2663;" 
d="M1037 0h-842l8 34q165 35 218 68q81 51 132 150.5t51 208.5q0 15 -2 46q-59 -122 -146.5 -179t-177.5 -57q-116 0 -196 80.5t-80 197.5q0 115 73.5 194.5t165.5 79.5q61 0 163 -51q-42 68 -54.5 104t-12.5 77q0 113 78.5 191t196.5 78q117 0 196.5 -78.5t79.5 -187.5
q0 -88 -68 -184q84 39 100 44q27 8 61 8q100 0 173 -78t73 -193q0 -119 -80 -200t-193 -81q-61 0 -127.5 30t-115.5 81q-35 36 -86 124q4 -158 48 -250t136 -152q61 -40 220 -71z" />
    <glyph glyph-name="heart" unicode="&#x2665;" 
d="M617 -22q-29 109 -83 205.5t-206 298.5q-112 148 -139 189q-43 65 -62 119t-19 110q0 104 69 173.5t171 69.5q101 0 176 -72q57 -55 93 -161q33 118 104.5 176t158.5 58q101 0 171 -69t70 -163q0 -85 -40.5 -175t-158.5 -239q-152 -192 -214.5 -302.5t-90.5 -217.5z" />
    <glyph glyph-name="diamond" unicode="&#x2666;" 
d="M613 1222q89 -151 227 -335t231 -287q-76 -79 -242 -302q-136 -182 -215 -322q-26 50 -69 114q-76 113 -196 273q-30 40 -190 237q101 115 258 325q117 156 196 297z" />
    <glyph glyph-name="musicalnote" unicode="&#x266a;" 
d="M563 303v850h75v-101l155 -191q50 -70 79 -152t29 -166q0 -154 -95 -271h-47q59 130 59 249t-57.5 198.5t-122.5 89.5v-506q0 -124 -72.5 -199t-179.5 -75q-57 0 -86 27t-29 72q0 76 59.5 134.5t142.5 58.5q23 0 45.5 -4.5t44.5 -13.5z" />
    <glyph glyph-name="musicalnotedbl" unicode="&#x266b;" 
d="M1082 323q0 -125 -74 -199t-177 -74q-57 0 -86 27t-29 72q0 76 59.5 134t141.5 58q23 0 45.5 -4.5t44.5 -13.5v450l-550 -150v-393q0 -124 -72.5 -198.5t-179.5 -74.5q-57 0 -86 27t-29 72q0 75 59.5 133t142.5 58q23 0 45.5 -4t44.5 -13v750l700 179v-836zM457 750
l550 150v115l-550 -150v-115z" />
    <glyph glyph-name="H22073" unicode="&#x25a1;" 
d="M2 1225h1225v-1225h-1225v1225zM78 1149v-1073h1073v1073h-1073z" />
    <glyph glyph-name="H18543" unicode="&#x25aa;" 
d="M868 383h-507v507h507v-507z" />
    <glyph glyph-name="H18551" unicode="&#x25ab;" 
d="M868 383h-507v507h507v-507zM792 459v355h-355v-355h355z" />
    <glyph glyph-name="H18533" unicode="&#x25cf;" 
d="M615 1018q110 0 216 -57t165 -163t59 -220q0 -183 -129 -312t-311 -129q-183 0 -312 129t-129 312q0 115 59 220.5t165 162.5t217 57z" />
    <glyph glyph-name="openbullet" unicode="&#x25e6;" 
d="M862 637q0 -103 -73 -175.5t-175 -72.5t-174.5 72.5t-72.5 175.5q0 102 72.5 174.5t174.5 72.5q103 0 175.5 -72.5t72.5 -174.5zM786 637q0 71 -50.5 121t-121.5 50t-121 -50.5t-50 -120.5q0 -71 50 -121.5t121 -50.5t121.5 50t50.5 122z" />
    <glyph glyph-name="estimated" unicode="&#x212e;" 
d="M321 531v-371q128 -121 298 -121q254 0 395 246l72 -43q-101 -142 -204.5 -209t-262.5 -67q-237 0 -383 160t-146 405q0 247 147 406t382 159q214 0 366 -142t163 -423h-827zM917 605v297q-128 121 -300 121q-175 0 -296 -122v-296h596z" />
    <glyph glyph-name="fivesuperior" 
d="M215 1143q24 4 45 4q111 0 174.5 -62.5t63.5 -156.5q0 -100 -73.5 -169t-180.5 -69q-96 0 -176 39l24 105q90 -35 154 -35q55 0 88 33.5t33 95.5q0 55 -30.5 85.5t-80.5 30.5q-51 0 -80 -16l-74 31v352h363v-108h-250v-160z" />
    <glyph glyph-name="sevensuperior" 
d="M584 1331l-289 -626h-121l277 598h-328v108h461v-80z" />
    <glyph glyph-name="eightsuperior" 
d="M385 1085q119 -58 119 -178q0 -102 -70 -161.5t-174 -59.5q-107 0 -176.5 60t-69.5 157q0 122 121 180q-94 52 -94 146q0 74 59 131t158 57q98 0 160.5 -56.5t62.5 -131.5q0 -88 -96 -144zM256 1139q96 29 96 90q0 35 -28 60.5t-66 25.5q-35 0 -62.5 -25.5t-27.5 -60.5
q0 -62 88 -90zM258 1036q-113 -34 -113 -135q0 -48 35.5 -79t79.5 -31q46 0 79.5 30.5t33.5 79.5q0 99 -115 135z" />
    <glyph glyph-name="currency" unicode="&#xa4;" 
d="M1157 266l-115 -96l-186 207q-114 -68 -244 -68q-124 0 -241 68l-185 -207l-114 96l184 211q-106 131 -106 295q0 168 106 295l-184 213l114 100l185 -211q108 70 241 66q74 0 126.5 -16.5t117.5 -49.5l186 211l115 -100l-184 -213q104 -137 104 -295q0 -161 -104 -295z
M612 467q127 0 218.5 90.5t91.5 216.5q0 127 -91 217t-219 90q-127 0 -217 -90t-90 -217t90 -217t217 -90z" />
  </font>
</defs>
</svg>
